<?xml version="1.0" standalone="no"?>
<!DOCTYPE svg PUBLIC "-//W3C//DTD SVG 1.1//EN" "http://www.w3.org/Graphics/SVG/1.1/DTD/svg11.dtd">
<svg width="800" height="600" version="1.1" xmlns="http://www.w3.org/2000/svg">
<rect width="800" height="600" x="0" y="0" style="fill:rgb(238,238,238);stroke:none"/>
<rect width="800" height="600" x="0" y="0" style="fill:rgb(255,255,255);stroke:none"/>
<text x="2" y="566" fill="rgb(0,0,0)" font-family="Arial" font-size="12">0</text>
<text x="2" y="514" fill="rgb(0,0,0)" font-family="Arial" font-size="12">10</text>
<text x="2" y="462" fill="rgb(0,0,0)" font-family="Arial" font-size="12">20</text>
<text x="2" y="410" fill="rgb(0,0,0)" font-family="Arial" font-size="12">30</text>
<text x="2" y="358" fill="rgb(0,0,0)" font-family="Arial" font-size="12">40</text>
<text x="2" y="306" fill="rgb(0,0,0)" font-family="Arial" font-size="12">50</text>
<text x="2" y="254" fill="rgb(0,0,0)" font-family="Arial" font-size="12">60</text>
<text x="2" y="202" fill="rgb(0,0,0)" font-family="Arial" font-size="12">70</text>
<text x="2" y="150" fill="rgb(0,0,0)" font-family="Arial" font-size="12">80</text>
<text x="2" y="98" fill="rgb(0,0,0)" font-family="Arial" font-size="12">90</text>
<text x="2" y="46" fill="rgb(0,0,0)" font-family="Arial" font-size="12">100</text>
<text x="298" y="30" fill="rgb(0,0,0)" font-family="Arial" font-size="12">Sequence content across all bases</text>
<line x1="29" y1="560" x2="790" y2="560" stroke="rgb(0,0,0)" stroke-width="1"/>
<line x1="29" y1="560" x2="29" y2="40" stroke="rgb(0,0,0)" stroke-width="1"/>
<text x="336" y="595" fill="rgb(0,0,0)" font-family="Arial" font-size="12">Position in read (bp)</text>
<text x="32" y="575" fill="rgb(0,0,0)" font-family="Arial" font-size="12">1</text>
<rect width="15" height="520" x="44" y="40" style="fill:rgb(230,230,230);stroke:none"/>
<text x="47" y="575" fill="rgb(0,0,0)" font-family="Arial" font-size="12">2</text>
<text x="62" y="575" fill="rgb(0,0,0)" font-family="Arial" font-size="12">3</text>
<rect width="15" height="520" x="74" y="40" style="fill:rgb(230,230,230);stroke:none"/>
<text x="77" y="575" fill="rgb(0,0,0)" font-family="Arial" font-size="12">4</text>
<text x="92" y="575" fill="rgb(0,0,0)" font-family="Arial" font-size="12">5</text>
<rect width="15" height="520" x="104" y="40" style="fill:rgb(230,230,230);stroke:none"/>
<text x="107" y="575" fill="rgb(0,0,0)" font-family="Arial" font-size="12">6</text>
<text x="122" y="575" fill="rgb(0,0,0)" font-family="Arial" font-size="12">7</text>
<rect width="15" height="520" x="134" y="40" style="fill:rgb(230,230,230);stroke:none"/>
<text x="137" y="575" fill="rgb(0,0,0)" font-family="Arial" font-size="12">8</text>
<text x="152" y="575" fill="rgb(0,0,0)" font-family="Arial" font-size="12">9</text>
<rect width="15" height="520" x="164" y="40" style="fill:rgb(230,230,230);stroke:none"/>
<text x="178" y="575" fill="rgb(0,0,0)" font-family="Arial" font-size="12">11</text>
<rect width="15" height="520" x="194" y="40" style="fill:rgb(230,230,230);stroke:none"/>
<text x="208" y="575" fill="rgb(0,0,0)" font-family="Arial" font-size="12">13</text>
<rect width="15" height="520" x="224" y="40" style="fill:rgb(230,230,230);stroke:none"/>
<text x="238" y="575" fill="rgb(0,0,0)" font-family="Arial" font-size="12">15</text>
<rect width="15" height="520" x="254" y="40" style="fill:rgb(230,230,230);stroke:none"/>
<text x="268" y="575" fill="rgb(0,0,0)" font-family="Arial" font-size="12">17</text>
<rect width="15" height="520" x="284" y="40" style="fill:rgb(230,230,230);stroke:none"/>
<text x="298" y="575" fill="rgb(0,0,0)" font-family="Arial" font-size="12">19</text>
<rect width="15" height="520" x="314" y="40" style="fill:rgb(230,230,230);stroke:none"/>
<text x="328" y="575" fill="rgb(0,0,0)" font-family="Arial" font-size="12">21</text>
<rect width="15" height="520" x="344" y="40" style="fill:rgb(230,230,230);stroke:none"/>
<text x="358" y="575" fill="rgb(0,0,0)" font-family="Arial" font-size="12">23</text>
<rect width="15" height="520" x="374" y="40" style="fill:rgb(230,230,230);stroke:none"/>
<text x="388" y="575" fill="rgb(0,0,0)" font-family="Arial" font-size="12">25</text>
<rect width="15" height="520" x="404" y="40" style="fill:rgb(230,230,230);stroke:none"/>
<text x="418" y="575" fill="rgb(0,0,0)" font-family="Arial" font-size="12">27</text>
<rect width="15" height="520" x="434" y="40" style="fill:rgb(230,230,230);stroke:none"/>
<text x="448" y="575" fill="rgb(0,0,0)" font-family="Arial" font-size="12">29</text>
<rect width="15" height="520" x="464" y="40" style="fill:rgb(230,230,230);stroke:none"/>
<text x="478" y="575" fill="rgb(0,0,0)" font-family="Arial" font-size="12">31</text>
<rect width="15" height="520" x="494" y="40" style="fill:rgb(230,230,230);stroke:none"/>
<text x="508" y="575" fill="rgb(0,0,0)" font-family="Arial" font-size="12">33</text>
<rect width="15" height="520" x="524" y="40" style="fill:rgb(230,230,230);stroke:none"/>
<text x="538" y="575" fill="rgb(0,0,0)" font-family="Arial" font-size="12">35</text>
<rect width="15" height="520" x="554" y="40" style="fill:rgb(230,230,230);stroke:none"/>
<text x="568" y="575" fill="rgb(0,0,0)" font-family="Arial" font-size="12">37</text>
<rect width="15" height="520" x="584" y="40" style="fill:rgb(230,230,230);stroke:none"/>
<text x="598" y="575" fill="rgb(0,0,0)" font-family="Arial" font-size="12">39</text>
<rect width="15" height="520" x="614" y="40" style="fill:rgb(230,230,230);stroke:none"/>
<text x="628" y="575" fill="rgb(0,0,0)" font-family="Arial" font-size="12">41</text>
<rect width="15" height="520" x="644" y="40" style="fill:rgb(230,230,230);stroke:none"/>
<text x="658" y="575" fill="rgb(0,0,0)" font-family="Arial" font-size="12">43</text>
<rect width="15" height="520" x="674" y="40" style="fill:rgb(230,230,230);stroke:none"/>
<text x="688" y="575" fill="rgb(0,0,0)" font-family="Arial" font-size="12">45</text>
<rect width="15" height="520" x="704" y="40" style="fill:rgb(230,230,230);stroke:none"/>
<text x="718" y="575" fill="rgb(0,0,0)" font-family="Arial" font-size="12">47</text>
<rect width="15" height="520" x="734" y="40" style="fill:rgb(230,230,230);stroke:none"/>
<text x="748" y="575" fill="rgb(0,0,0)" font-family="Arial" font-size="12">49</text>
<rect width="15" height="520" x="764" y="40" style="fill:rgb(230,230,230);stroke:none"/>
<line x1="29" y1="560" x2="790" y2="560" stroke="rgb(180,180,180)" stroke-width="1"/>
<line x1="29" y1="508" x2="790" y2="508" stroke="rgb(180,180,180)" stroke-width="1"/>
<line x1="29" y1="456" x2="790" y2="456" stroke="rgb(180,180,180)" stroke-width="1"/>
<line x1="29" y1="404" x2="790" y2="404" stroke="rgb(180,180,180)" stroke-width="1"/>
<line x1="29" y1="352" x2="790" y2="352" stroke="rgb(180,180,180)" stroke-width="1"/>
<line x1="29" y1="300" x2="790" y2="300" stroke="rgb(180,180,180)" stroke-width="1"/>
<line x1="29" y1="248" x2="790" y2="248" stroke="rgb(180,180,180)" stroke-width="1"/>
<line x1="29" y1="196" x2="790" y2="196" stroke="rgb(180,180,180)" stroke-width="1"/>
<line x1="29" y1="144" x2="790" y2="144" stroke="rgb(180,180,180)" stroke-width="1"/>
<line x1="29" y1="92" x2="790" y2="92" stroke="rgb(180,180,180)" stroke-width="1"/>
<line x1="29" y1="40" x2="790" y2="40" stroke="rgb(180,180,180)" stroke-width="1"/>
<line x1="36" y1="326" x2="51" y2="467" stroke="rgb(136,34,85)" stroke-width="1"/>
<line x1="51" y1="467" x2="66" y2="454" stroke="rgb(136,34,85)" stroke-width="1"/>
<line x1="66" y1="454" x2="81" y2="426" stroke="rgb(136,34,85)" stroke-width="1"/>
<line x1="81" y1="426" x2="96" y2="434" stroke="rgb(136,34,85)" stroke-width="1"/>
<line x1="96" y1="434" x2="111" y2="439" stroke="rgb(136,34,85)" stroke-width="1"/>
<line x1="111" y1="439" x2="126" y2="405" stroke="rgb(136,34,85)" stroke-width="1"/>
<line x1="126" y1="405" x2="141" y2="415" stroke="rgb(136,34,85)" stroke-width="1"/>
<line x1="141" y1="415" x2="156" y2="451" stroke="rgb(136,34,85)" stroke-width="1"/>
<line x1="156" y1="451" x2="171" y2="432" stroke="rgb(136,34,85)" stroke-width="1"/>
<line x1="171" y1="432" x2="186" y2="454" stroke="rgb(136,34,85)" stroke-width="1"/>
<line x1="186" y1="454" x2="201" y2="366" stroke="rgb(136,34,85)" stroke-width="1"/>
<line x1="201" y1="366" x2="216" y2="438" stroke="rgb(136,34,85)" stroke-width="1"/>
<line x1="216" y1="438" x2="231" y2="451" stroke="rgb(136,34,85)" stroke-width="1"/>
<line x1="231" y1="451" x2="246" y2="451" stroke="rgb(136,34,85)" stroke-width="1"/>
<line x1="246" y1="451" x2="261" y2="440" stroke="rgb(136,34,85)" stroke-width="1"/>
<line x1="261" y1="440" x2="276" y2="430" stroke="rgb(136,34,85)" stroke-width="1"/>
<line x1="276" y1="430" x2="291" y2="394" stroke="rgb(136,34,85)" stroke-width="1"/>
<line x1="291" y1="394" x2="306" y2="373" stroke="rgb(136,34,85)" stroke-width="1"/>
<line x1="306" y1="373" x2="321" y2="440" stroke="rgb(136,34,85)" stroke-width="1"/>
<line x1="321" y1="440" x2="336" y2="428" stroke="rgb(136,34,85)" stroke-width="1"/>
<line x1="336" y1="428" x2="351" y2="442" stroke="rgb(136,34,85)" stroke-width="1"/>
<line x1="351" y1="442" x2="366" y2="405" stroke="rgb(136,34,85)" stroke-width="1"/>
<line x1="366" y1="405" x2="381" y2="410" stroke="rgb(136,34,85)" stroke-width="1"/>
<line x1="381" y1="410" x2="396" y2="468" stroke="rgb(136,34,85)" stroke-width="1"/>
<line x1="396" y1="468" x2="411" y2="441" stroke="rgb(136,34,85)" stroke-width="1"/>
<line x1="411" y1="441" x2="426" y2="430" stroke="rgb(136,34,85)" stroke-width="1"/>
<line x1="426" y1="430" x2="441" y2="473" stroke="rgb(136,34,85)" stroke-width="1"/>
<line x1="441" y1="473" x2="456" y2="498" stroke="rgb(136,34,85)" stroke-width="1"/>
<line x1="456" y1="498" x2="471" y2="506" stroke="rgb(136,34,85)" stroke-width="1"/>
<line x1="471" y1="506" x2="486" y2="487" stroke="rgb(136,34,85)" stroke-width="1"/>
<line x1="486" y1="487" x2="501" y2="426" stroke="rgb(136,34,85)" stroke-width="1"/>
<line x1="501" y1="426" x2="516" y2="503" stroke="rgb(136,34,85)" stroke-width="1"/>
<line x1="516" y1="503" x2="531" y2="515" stroke="rgb(136,34,85)" stroke-width="1"/>
<line x1="531" y1="515" x2="546" y2="531" stroke="rgb(136,34,85)" stroke-width="1"/>
<line x1="546" y1="531" x2="561" y2="528" stroke="rgb(136,34,85)" stroke-width="1"/>
<line x1="561" y1="528" x2="576" y2="534" stroke="rgb(136,34,85)" stroke-width="1"/>
<line x1="576" y1="534" x2="591" y2="533" stroke="rgb(136,34,85)" stroke-width="1"/>
<line x1="591" y1="533" x2="606" y2="511" stroke="rgb(136,34,85)" stroke-width="1"/>
<line x1="606" y1="511" x2="621" y2="512" stroke="rgb(136,34,85)" stroke-width="1"/>
<line x1="621" y1="512" x2="636" y2="496" stroke="rgb(136,34,85)" stroke-width="1"/>
<line x1="636" y1="496" x2="651" y2="498" stroke="rgb(136,34,85)" stroke-width="1"/>
<line x1="651" y1="498" x2="666" y2="486" stroke="rgb(136,34,85)" stroke-width="1"/>
<line x1="666" y1="486" x2="681" y2="465" stroke="rgb(136,34,85)" stroke-width="1"/>
<line x1="681" y1="465" x2="696" y2="489" stroke="rgb(136,34,85)" stroke-width="1"/>
<line x1="696" y1="489" x2="711" y2="464" stroke="rgb(136,34,85)" stroke-width="1"/>
<line x1="711" y1="464" x2="726" y2="401" stroke="rgb(136,34,85)" stroke-width="1"/>
<line x1="726" y1="401" x2="741" y2="440" stroke="rgb(136,34,85)" stroke-width="1"/>
<line x1="741" y1="440" x2="756" y2="385" stroke="rgb(136,34,85)" stroke-width="1"/>
<line x1="756" y1="385" x2="771" y2="465" stroke="rgb(136,34,85)" stroke-width="1"/>
<line x1="36" y1="488" x2="51" y2="377" stroke="rgb(51,34,136)" stroke-width="1"/>
<line x1="51" y1="377" x2="66" y2="407" stroke="rgb(51,34,136)" stroke-width="1"/>
<line x1="66" y1="407" x2="81" y2="471" stroke="rgb(51,34,136)" stroke-width="1"/>
<line x1="81" y1="471" x2="96" y2="444" stroke="rgb(51,34,136)" stroke-width="1"/>
<line x1="96" y1="444" x2="111" y2="397" stroke="rgb(51,34,136)" stroke-width="1"/>
<line x1="111" y1="397" x2="126" y2="444" stroke="rgb(51,34,136)" stroke-width="1"/>
<line x1="126" y1="444" x2="141" y2="418" stroke="rgb(51,34,136)" stroke-width="1"/>
<line x1="141" y1="418" x2="156" y2="451" stroke="rgb(51,34,136)" stroke-width="1"/>
<line x1="156" y1="451" x2="171" y2="421" stroke="rgb(51,34,136)" stroke-width="1"/>
<line x1="171" y1="421" x2="186" y2="434" stroke="rgb(51,34,136)" stroke-width="1"/>
<line x1="186" y1="434" x2="201" y2="468" stroke="rgb(51,34,136)" stroke-width="1"/>
<line x1="201" y1="468" x2="216" y2="445" stroke="rgb(51,34,136)" stroke-width="1"/>
<line x1="216" y1="445" x2="231" y2="461" stroke="rgb(51,34,136)" stroke-width="1"/>
<line x1="231" y1="461" x2="246" y2="444" stroke="rgb(51,34,136)" stroke-width="1"/>
<line x1="246" y1="444" x2="261" y2="473" stroke="rgb(51,34,136)" stroke-width="1"/>
<line x1="261" y1="473" x2="276" y2="404" stroke="rgb(51,34,136)" stroke-width="1"/>
<line x1="276" y1="404" x2="291" y2="454" stroke="rgb(51,34,136)" stroke-width="1"/>
<line x1="291" y1="454" x2="306" y2="471" stroke="rgb(51,34,136)" stroke-width="1"/>
<line x1="306" y1="471" x2="321" y2="457" stroke="rgb(51,34,136)" stroke-width="1"/>
<line x1="321" y1="457" x2="336" y2="443" stroke="rgb(51,34,136)" stroke-width="1"/>
<line x1="336" y1="443" x2="351" y2="471" stroke="rgb(51,34,136)" stroke-width="1"/>
<line x1="351" y1="471" x2="366" y2="475" stroke="rgb(51,34,136)" stroke-width="1"/>
<line x1="366" y1="475" x2="381" y2="477" stroke="rgb(51,34,136)" stroke-width="1"/>
<line x1="381" y1="477" x2="396" y2="463" stroke="rgb(51,34,136)" stroke-width="1"/>
<line x1="396" y1="463" x2="411" y2="454" stroke="rgb(51,34,136)" stroke-width="1"/>
<line x1="411" y1="454" x2="426" y2="435" stroke="rgb(51,34,136)" stroke-width="1"/>
<line x1="426" y1="435" x2="441" y2="446" stroke="rgb(51,34,136)" stroke-width="1"/>
<line x1="441" y1="446" x2="456" y2="488" stroke="rgb(51,34,136)" stroke-width="1"/>
<line x1="456" y1="488" x2="471" y2="480" stroke="rgb(51,34,136)" stroke-width="1"/>
<line x1="471" y1="480" x2="486" y2="498" stroke="rgb(51,34,136)" stroke-width="1"/>
<line x1="486" y1="498" x2="501" y2="475" stroke="rgb(51,34,136)" stroke-width="1"/>
<line x1="501" y1="475" x2="516" y2="407" stroke="rgb(51,34,136)" stroke-width="1"/>
<line x1="516" y1="407" x2="531" y2="453" stroke="rgb(51,34,136)" stroke-width="1"/>
<line x1="531" y1="453" x2="546" y2="455" stroke="rgb(51,34,136)" stroke-width="1"/>
<line x1="546" y1="455" x2="561" y2="471" stroke="rgb(51,34,136)" stroke-width="1"/>
<line x1="561" y1="471" x2="576" y2="450" stroke="rgb(51,34,136)" stroke-width="1"/>
<line x1="576" y1="450" x2="591" y2="433" stroke="rgb(51,34,136)" stroke-width="1"/>
<line x1="591" y1="433" x2="606" y2="448" stroke="rgb(51,34,136)" stroke-width="1"/>
<line x1="606" y1="448" x2="621" y2="413" stroke="rgb(51,34,136)" stroke-width="1"/>
<line x1="621" y1="413" x2="636" y2="352" stroke="rgb(51,34,136)" stroke-width="1"/>
<line x1="636" y1="352" x2="651" y2="387" stroke="rgb(51,34,136)" stroke-width="1"/>
<line x1="651" y1="387" x2="666" y2="358" stroke="rgb(51,34,136)" stroke-width="1"/>
<line x1="666" y1="358" x2="681" y2="413" stroke="rgb(51,34,136)" stroke-width="1"/>
<line x1="681" y1="413" x2="696" y2="333" stroke="rgb(51,34,136)" stroke-width="1"/>
<line x1="696" y1="333" x2="711" y2="418" stroke="rgb(51,34,136)" stroke-width="1"/>
<line x1="711" y1="418" x2="726" y2="384" stroke="rgb(51,34,136)" stroke-width="1"/>
<line x1="726" y1="384" x2="741" y2="337" stroke="rgb(51,34,136)" stroke-width="1"/>
<line x1="741" y1="337" x2="756" y2="392" stroke="rgb(51,34,136)" stroke-width="1"/>
<line x1="756" y1="392" x2="771" y2="413" stroke="rgb(51,34,136)" stroke-width="1"/>
<line x1="36" y1="451" x2="51" y2="454" stroke="rgb(17,119,51)" stroke-width="1"/>
<line x1="51" y1="454" x2="66" y2="427" stroke="rgb(17,119,51)" stroke-width="1"/>
<line x1="66" y1="427" x2="81" y2="463" stroke="rgb(17,119,51)" stroke-width="1"/>
<line x1="81" y1="463" x2="96" y2="404" stroke="rgb(17,119,51)" stroke-width="1"/>
<line x1="96" y1="404" x2="111" y2="469" stroke="rgb(17,119,51)" stroke-width="1"/>
<line x1="111" y1="469" x2="126" y2="471" stroke="rgb(17,119,51)" stroke-width="1"/>
<line x1="126" y1="471" x2="141" y2="461" stroke="rgb(17,119,51)" stroke-width="1"/>
<line x1="141" y1="461" x2="156" y2="383" stroke="rgb(17,119,51)" stroke-width="1"/>
<line x1="156" y1="383" x2="171" y2="462" stroke="rgb(17,119,51)" stroke-width="1"/>
<line x1="171" y1="462" x2="186" y2="436" stroke="rgb(17,119,51)" stroke-width="1"/>
<line x1="186" y1="436" x2="201" y2="462" stroke="rgb(17,119,51)" stroke-width="1"/>
<line x1="201" y1="462" x2="216" y2="406" stroke="rgb(17,119,51)" stroke-width="1"/>
<line x1="216" y1="406" x2="231" y2="433" stroke="rgb(17,119,51)" stroke-width="1"/>
<line x1="231" y1="433" x2="246" y2="406" stroke="rgb(17,119,51)" stroke-width="1"/>
<line x1="246" y1="406" x2="261" y2="376" stroke="rgb(17,119,51)" stroke-width="1"/>
<line x1="261" y1="376" x2="276" y2="449" stroke="rgb(17,119,51)" stroke-width="1"/>
<line x1="276" y1="449" x2="291" y2="447" stroke="rgb(17,119,51)" stroke-width="1"/>
<line x1="291" y1="447" x2="306" y2="452" stroke="rgb(17,119,51)" stroke-width="1"/>
<line x1="306" y1="452" x2="321" y2="425" stroke="rgb(17,119,51)" stroke-width="1"/>
<line x1="321" y1="425" x2="336" y2="409" stroke="rgb(17,119,51)" stroke-width="1"/>
<line x1="336" y1="409" x2="351" y2="378" stroke="rgb(17,119,51)" stroke-width="1"/>
<line x1="351" y1="378" x2="366" y2="404" stroke="rgb(17,119,51)" stroke-width="1"/>
<line x1="366" y1="404" x2="381" y2="397" stroke="rgb(17,119,51)" stroke-width="1"/>
<line x1="381" y1="397" x2="396" y2="374" stroke="rgb(17,119,51)" stroke-width="1"/>
<line x1="396" y1="374" x2="411" y2="391" stroke="rgb(17,119,51)" stroke-width="1"/>
<line x1="411" y1="391" x2="426" y2="427" stroke="rgb(17,119,51)" stroke-width="1"/>
<line x1="426" y1="427" x2="441" y2="429" stroke="rgb(17,119,51)" stroke-width="1"/>
<line x1="441" y1="429" x2="456" y2="332" stroke="rgb(17,119,51)" stroke-width="1"/>
<line x1="456" y1="332" x2="471" y2="392" stroke="rgb(17,119,51)" stroke-width="1"/>
<line x1="471" y1="392" x2="486" y2="339" stroke="rgb(17,119,51)" stroke-width="1"/>
<line x1="486" y1="339" x2="501" y2="403" stroke="rgb(17,119,51)" stroke-width="1"/>
<line x1="501" y1="403" x2="516" y2="392" stroke="rgb(17,119,51)" stroke-width="1"/>
<line x1="516" y1="392" x2="531" y2="419" stroke="rgb(17,119,51)" stroke-width="1"/>
<line x1="531" y1="419" x2="546" y2="409" stroke="rgb(17,119,51)" stroke-width="1"/>
<line x1="546" y1="409" x2="561" y2="315" stroke="rgb(17,119,51)" stroke-width="1"/>
<line x1="561" y1="315" x2="576" y2="296" stroke="rgb(17,119,51)" stroke-width="1"/>
<line x1="576" y1="296" x2="591" y2="383" stroke="rgb(17,119,51)" stroke-width="1"/>
<line x1="591" y1="383" x2="606" y2="341" stroke="rgb(17,119,51)" stroke-width="1"/>
<line x1="606" y1="341" x2="621" y2="417" stroke="rgb(17,119,51)" stroke-width="1"/>
<line x1="621" y1="417" x2="636" y2="421" stroke="rgb(17,119,51)" stroke-width="1"/>
<line x1="636" y1="421" x2="651" y2="367" stroke="rgb(17,119,51)" stroke-width="1"/>
<line x1="651" y1="367" x2="666" y2="412" stroke="rgb(17,119,51)" stroke-width="1"/>
<line x1="666" y1="412" x2="681" y2="376" stroke="rgb(17,119,51)" stroke-width="1"/>
<line x1="681" y1="376" x2="696" y2="425" stroke="rgb(17,119,51)" stroke-width="1"/>
<line x1="696" y1="425" x2="711" y2="425" stroke="rgb(17,119,51)" stroke-width="1"/>
<line x1="711" y1="425" x2="726" y2="463" stroke="rgb(17,119,51)" stroke-width="1"/>
<line x1="726" y1="463" x2="741" y2="461" stroke="rgb(17,119,51)" stroke-width="1"/>
<line x1="741" y1="461" x2="756" y2="468" stroke="rgb(17,119,51)" stroke-width="1"/>
<line x1="756" y1="468" x2="771" y2="428" stroke="rgb(17,119,51)" stroke-width="1"/>
<line x1="36" y1="457" x2="51" y2="424" stroke="rgb(221,204,119)" stroke-width="1"/>
<line x1="51" y1="424" x2="66" y2="433" stroke="rgb(221,204,119)" stroke-width="1"/>
<line x1="66" y1="433" x2="81" y2="362" stroke="rgb(221,204,119)" stroke-width="1"/>
<line x1="81" y1="362" x2="96" y2="440" stroke="rgb(221,204,119)" stroke-width="1"/>
<line x1="96" y1="440" x2="111" y2="417" stroke="rgb(221,204,119)" stroke-width="1"/>
<line x1="111" y1="417" x2="126" y2="402" stroke="rgb(221,204,119)" stroke-width="1"/>
<line x1="126" y1="402" x2="141" y2="428" stroke="rgb(221,204,119)" stroke-width="1"/>
<line x1="141" y1="428" x2="156" y2="438" stroke="rgb(221,204,119)" stroke-width="1"/>
<line x1="156" y1="438" x2="171" y2="407" stroke="rgb(221,204,119)" stroke-width="1"/>
<line x1="171" y1="407" x2="186" y2="398" stroke="rgb(221,204,119)" stroke-width="1"/>
<line x1="186" y1="398" x2="201" y2="426" stroke="rgb(221,204,119)" stroke-width="1"/>
<line x1="201" y1="426" x2="216" y2="433" stroke="rgb(221,204,119)" stroke-width="1"/>
<line x1="216" y1="433" x2="231" y2="377" stroke="rgb(221,204,119)" stroke-width="1"/>
<line x1="231" y1="377" x2="246" y2="421" stroke="rgb(221,204,119)" stroke-width="1"/>
<line x1="246" y1="421" x2="261" y2="433" stroke="rgb(221,204,119)" stroke-width="1"/>
<line x1="261" y1="433" x2="276" y2="440" stroke="rgb(221,204,119)" stroke-width="1"/>
<line x1="276" y1="440" x2="291" y2="427" stroke="rgb(221,204,119)" stroke-width="1"/>
<line x1="291" y1="427" x2="306" y2="426" stroke="rgb(221,204,119)" stroke-width="1"/>
<line x1="306" y1="426" x2="321" y2="399" stroke="rgb(221,204,119)" stroke-width="1"/>
<line x1="321" y1="399" x2="336" y2="442" stroke="rgb(221,204,119)" stroke-width="1"/>
<line x1="336" y1="442" x2="351" y2="431" stroke="rgb(221,204,119)" stroke-width="1"/>
<line x1="351" y1="431" x2="366" y2="438" stroke="rgb(221,204,119)" stroke-width="1"/>
<line x1="366" y1="438" x2="381" y2="439" stroke="rgb(221,204,119)" stroke-width="1"/>
<line x1="381" y1="439" x2="396" y2="418" stroke="rgb(221,204,119)" stroke-width="1"/>
<line x1="396" y1="418" x2="411" y2="436" stroke="rgb(221,204,119)" stroke-width="1"/>
<line x1="411" y1="436" x2="426" y2="431" stroke="rgb(221,204,119)" stroke-width="1"/>
<line x1="426" y1="431" x2="441" y2="374" stroke="rgb(221,204,119)" stroke-width="1"/>
<line x1="441" y1="374" x2="456" y2="404" stroke="rgb(221,204,119)" stroke-width="1"/>
<line x1="456" y1="404" x2="471" y2="344" stroke="rgb(221,204,119)" stroke-width="1"/>
<line x1="471" y1="344" x2="486" y2="398" stroke="rgb(221,204,119)" stroke-width="1"/>
<line x1="486" y1="398" x2="501" y2="418" stroke="rgb(221,204,119)" stroke-width="1"/>
<line x1="501" y1="418" x2="516" y2="421" stroke="rgb(221,204,119)" stroke-width="1"/>
<line x1="516" y1="421" x2="531" y2="335" stroke="rgb(221,204,119)" stroke-width="1"/>
<line x1="531" y1="335" x2="546" y2="327" stroke="rgb(221,204,119)" stroke-width="1"/>
<line x1="546" y1="327" x2="561" y2="408" stroke="rgb(221,204,119)" stroke-width="1"/>
<line x1="561" y1="408" x2="576" y2="442" stroke="rgb(221,204,119)" stroke-width="1"/>
<line x1="576" y1="442" x2="591" y2="373" stroke="rgb(221,204,119)" stroke-width="1"/>
<line x1="591" y1="373" x2="606" y2="423" stroke="rgb(221,204,119)" stroke-width="1"/>
<line x1="606" y1="423" x2="621" y2="380" stroke="rgb(221,204,119)" stroke-width="1"/>
<line x1="621" y1="380" x2="636" y2="453" stroke="rgb(221,204,119)" stroke-width="1"/>
<line x1="636" y1="453" x2="651" y2="470" stroke="rgb(221,204,119)" stroke-width="1"/>
<line x1="651" y1="470" x2="666" y2="466" stroke="rgb(221,204,119)" stroke-width="1"/>
<line x1="666" y1="466" x2="681" y2="469" stroke="rgb(221,204,119)" stroke-width="1"/>
<line x1="681" y1="469" x2="696" y2="475" stroke="rgb(221,204,119)" stroke-width="1"/>
<line x1="696" y1="475" x2="711" y2="415" stroke="rgb(221,204,119)" stroke-width="1"/>
<line x1="711" y1="415" x2="726" y2="473" stroke="rgb(221,204,119)" stroke-width="1"/>
<line x1="726" y1="473" x2="741" y2="483" stroke="rgb(221,204,119)" stroke-width="1"/>
<line x1="741" y1="483" x2="756" y2="478" stroke="rgb(221,204,119)" stroke-width="1"/>
<line x1="756" y1="478" x2="771" y2="416" stroke="rgb(221,204,119)" stroke-width="1"/>
<rect width="28" height="83" x="762" y="40" style="fill:rgb(255,255,255);stroke:none"/>
<rect width="28" height="83" x="762" y="40" rx="0" ry="0" style="fill:none;stroke-width:1;stroke:rgb(192,192,192)"/>
<text x="765" y="55" fill="rgb(136,34,85)" font-family="Arial" font-size="12" font-weight="bold">%T</text>
<text x="765" y="75" fill="rgb(51,34,136)" font-family="Arial" font-size="12" font-weight="bold">%C</text>
<text x="765" y="95" fill="rgb(17,119,51)" font-family="Arial" font-size="12" font-weight="bold">%A</text>
<text x="765" y="115" fill="rgb(221,204,119)" font-family="Arial" font-size="12" font-weight="bold">%G</text>
</svg>
