<?xml version="1.0" standalone="no"?>
<!DOCTYPE svg PUBLIC "-//W3C//DTD SVG 1.1//EN" "http://www.w3.org/Graphics/SVG/1.1/DTD/svg11.dtd">
<svg width="800" height="600" version="1.1" xmlns="http://www.w3.org/2000/svg">
<rect width="800" height="600" x="0" y="0" style="fill:rgb(238,238,238);stroke:none"/>
<rect width="800" height="600" x="0" y="0" style="fill:rgb(255,255,255);stroke:none"/>
<text x="2" y="566" fill="rgb(0,0,0)" font-family="Arial" font-size="12">0</text>
<text x="2" y="514" fill="rgb(0,0,0)" font-family="Arial" font-size="12">200000</text>
<text x="2" y="461" fill="rgb(0,0,0)" font-family="Arial" font-size="12">400000</text>
<text x="2" y="408" fill="rgb(0,0,0)" font-family="Arial" font-size="12">600000</text>
<text x="2" y="356" fill="rgb(0,0,0)" font-family="Arial" font-size="12">800000</text>
<text x="2" y="303" fill="rgb(0,0,0)" font-family="Arial" font-size="12">1000000</text>
<text x="2" y="250" fill="rgb(0,0,0)" font-family="Arial" font-size="12">1200000</text>
<text x="2" y="198" fill="rgb(0,0,0)" font-family="Arial" font-size="12">1400000</text>
<text x="2" y="145" fill="rgb(0,0,0)" font-family="Arial" font-size="12">1600000</text>
<text x="2" y="92" fill="rgb(0,0,0)" font-family="Arial" font-size="12">1800000</text>
<text x="262" y="30" fill="rgb(0,0,0)" font-family="Arial" font-size="12">Distribution of sequence lengths over all sequences</text>
<line x1="61" y1="560" x2="790" y2="560" stroke="rgb(0,0,0)" stroke-width="1"/>
<line x1="61" y1="560" x2="61" y2="40" stroke="rgb(0,0,0)" stroke-width="1"/>
<text x="330" y="595" fill="rgb(0,0,0)" font-family="Arial" font-size="12">Sequence Length (bp)</text>
<text x="174" y="575" fill="rgb(0,0,0)" font-family="Arial" font-size="12">49</text>
<rect width="243" height="520" x="304" y="40" style="fill:rgb(230,230,230);stroke:none"/>
<text x="417" y="575" fill="rgb(0,0,0)" font-family="Arial" font-size="12">50</text>
<text x="660" y="575" fill="rgb(0,0,0)" font-family="Arial" font-size="12">51</text>
<line x1="61" y1="560" x2="790" y2="560" stroke="rgb(180,180,180)" stroke-width="1"/>
<line x1="61" y1="508" x2="790" y2="508" stroke="rgb(180,180,180)" stroke-width="1"/>
<line x1="61" y1="455" x2="790" y2="455" stroke="rgb(180,180,180)" stroke-width="1"/>
<line x1="61" y1="402" x2="790" y2="402" stroke="rgb(180,180,180)" stroke-width="1"/>
<line x1="61" y1="350" x2="790" y2="350" stroke="rgb(180,180,180)" stroke-width="1"/>
<line x1="61" y1="297" x2="790" y2="297" stroke="rgb(180,180,180)" stroke-width="1"/>
<line x1="61" y1="244" x2="790" y2="244" stroke="rgb(180,180,180)" stroke-width="1"/>
<line x1="61" y1="192" x2="790" y2="192" stroke="rgb(180,180,180)" stroke-width="1"/>
<line x1="61" y1="139" x2="790" y2="139" stroke="rgb(180,180,180)" stroke-width="1"/>
<line x1="61" y1="86" x2="790" y2="86" stroke="rgb(180,180,180)" stroke-width="1"/>
<line x1="182" y1="560" x2="425" y2="40" stroke="rgb(136,34,85)" stroke-width="1"/>
<line x1="425" y1="40" x2="668" y2="560" stroke="rgb(136,34,85)" stroke-width="1"/>
<rect width="130" height="23" x="660" y="40" style="fill:rgb(255,255,255);stroke:none"/>
<rect width="130" height="23" x="660" y="40" rx="0" ry="0" style="fill:none;stroke-width:1;stroke:rgb(192,192,192)"/>
<text x="663" y="55" fill="rgb(136,34,85)" font-family="Arial" font-size="12" font-weight="bold">Sequence Length</text>
</svg>
