<?xml version="1.0" standalone="no"?>
<!DOCTYPE svg PUBLIC "-//W3C//DTD SVG 1.1//EN" "http://www.w3.org/Graphics/SVG/1.1/DTD/svg11.dtd">
<svg width="800" height="600" version="1.1" xmlns="http://www.w3.org/2000/svg">
<rect width="800" height="600" x="0" y="0" style="fill:rgb(238,238,238);stroke:none"/>
<rect width="800" height="600" x="0" y="0" style="fill:rgb(255,255,255);stroke:none"/>
<text x="2" y="566" fill="rgb(0,0,0)" font-family="Arial" font-size="12">0</text>
<text x="2" y="514" fill="rgb(0,0,0)" font-family="Arial" font-size="12">10</text>
<text x="2" y="462" fill="rgb(0,0,0)" font-family="Arial" font-size="12">20</text>
<text x="2" y="410" fill="rgb(0,0,0)" font-family="Arial" font-size="12">30</text>
<text x="2" y="358" fill="rgb(0,0,0)" font-family="Arial" font-size="12">40</text>
<text x="2" y="306" fill="rgb(0,0,0)" font-family="Arial" font-size="12">50</text>
<text x="2" y="254" fill="rgb(0,0,0)" font-family="Arial" font-size="12">60</text>
<text x="2" y="202" fill="rgb(0,0,0)" font-family="Arial" font-size="12">70</text>
<text x="2" y="150" fill="rgb(0,0,0)" font-family="Arial" font-size="12">80</text>
<text x="2" y="98" fill="rgb(0,0,0)" font-family="Arial" font-size="12">90</text>
<text x="2" y="46" fill="rgb(0,0,0)" font-family="Arial" font-size="12">100</text>
<text x="312" y="30" fill="rgb(0,0,0)" font-family="Arial" font-size="12">Sequence content across all bases</text>
<line x1="26" y1="560" x2="790" y2="560" stroke="rgb(0,0,0)" stroke-width="1"/>
<line x1="26" y1="560" x2="26" y2="40" stroke="rgb(0,0,0)" stroke-width="1"/>
<text x="345" y="595" fill="rgb(0,0,0)" font-family="Arial" font-size="12">Position in read (bp)</text>
<text x="31" y="575" fill="rgb(0,0,0)" font-family="Arial" font-size="12">1</text>
<rect width="17" height="520" x="43" y="40" style="fill:rgb(230,230,230);stroke:none"/>
<text x="48" y="575" fill="rgb(0,0,0)" font-family="Arial" font-size="12">2</text>
<text x="65" y="575" fill="rgb(0,0,0)" font-family="Arial" font-size="12">3</text>
<rect width="17" height="520" x="77" y="40" style="fill:rgb(230,230,230);stroke:none"/>
<text x="82" y="575" fill="rgb(0,0,0)" font-family="Arial" font-size="12">4</text>
<text x="99" y="575" fill="rgb(0,0,0)" font-family="Arial" font-size="12">5</text>
<rect width="17" height="520" x="111" y="40" style="fill:rgb(230,230,230);stroke:none"/>
<text x="116" y="575" fill="rgb(0,0,0)" font-family="Arial" font-size="12">6</text>
<text x="133" y="575" fill="rgb(0,0,0)" font-family="Arial" font-size="12">7</text>
<rect width="17" height="520" x="145" y="40" style="fill:rgb(230,230,230);stroke:none"/>
<text x="150" y="575" fill="rgb(0,0,0)" font-family="Arial" font-size="12">8</text>
<text x="167" y="575" fill="rgb(0,0,0)" font-family="Arial" font-size="12">9</text>
<rect width="17" height="520" x="179" y="40" style="fill:rgb(230,230,230);stroke:none"/>
<text x="180" y="575" fill="rgb(0,0,0)" font-family="Arial" font-size="12">10</text>
<rect width="17" height="520" x="213" y="40" style="fill:rgb(230,230,230);stroke:none"/>
<text x="214" y="575" fill="rgb(0,0,0)" font-family="Arial" font-size="12">12</text>
<rect width="17" height="520" x="247" y="40" style="fill:rgb(230,230,230);stroke:none"/>
<text x="248" y="575" fill="rgb(0,0,0)" font-family="Arial" font-size="12">14</text>
<rect width="17" height="520" x="281" y="40" style="fill:rgb(230,230,230);stroke:none"/>
<text x="282" y="575" fill="rgb(0,0,0)" font-family="Arial" font-size="12">16</text>
<rect width="17" height="520" x="315" y="40" style="fill:rgb(230,230,230);stroke:none"/>
<text x="316" y="575" fill="rgb(0,0,0)" font-family="Arial" font-size="12">18</text>
<rect width="17" height="520" x="349" y="40" style="fill:rgb(230,230,230);stroke:none"/>
<text x="350" y="575" fill="rgb(0,0,0)" font-family="Arial" font-size="12">20</text>
<rect width="17" height="520" x="383" y="40" style="fill:rgb(230,230,230);stroke:none"/>
<text x="384" y="575" fill="rgb(0,0,0)" font-family="Arial" font-size="12">22</text>
<rect width="17" height="520" x="417" y="40" style="fill:rgb(230,230,230);stroke:none"/>
<text x="418" y="575" fill="rgb(0,0,0)" font-family="Arial" font-size="12">24</text>
<rect width="17" height="520" x="451" y="40" style="fill:rgb(230,230,230);stroke:none"/>
<text x="452" y="575" fill="rgb(0,0,0)" font-family="Arial" font-size="12">26</text>
<rect width="17" height="520" x="485" y="40" style="fill:rgb(230,230,230);stroke:none"/>
<text x="486" y="575" fill="rgb(0,0,0)" font-family="Arial" font-size="12">28</text>
<rect width="17" height="520" x="519" y="40" style="fill:rgb(230,230,230);stroke:none"/>
<text x="520" y="575" fill="rgb(0,0,0)" font-family="Arial" font-size="12">30</text>
<rect width="17" height="520" x="553" y="40" style="fill:rgb(230,230,230);stroke:none"/>
<text x="554" y="575" fill="rgb(0,0,0)" font-family="Arial" font-size="12">32</text>
<rect width="17" height="520" x="587" y="40" style="fill:rgb(230,230,230);stroke:none"/>
<text x="588" y="575" fill="rgb(0,0,0)" font-family="Arial" font-size="12">34</text>
<rect width="17" height="520" x="621" y="40" style="fill:rgb(230,230,230);stroke:none"/>
<text x="622" y="575" fill="rgb(0,0,0)" font-family="Arial" font-size="12">36</text>
<rect width="17" height="520" x="655" y="40" style="fill:rgb(230,230,230);stroke:none"/>
<text x="656" y="575" fill="rgb(0,0,0)" font-family="Arial" font-size="12">38</text>
<rect width="17" height="520" x="689" y="40" style="fill:rgb(230,230,230);stroke:none"/>
<text x="690" y="575" fill="rgb(0,0,0)" font-family="Arial" font-size="12">40</text>
<rect width="17" height="520" x="723" y="40" style="fill:rgb(230,230,230);stroke:none"/>
<text x="724" y="575" fill="rgb(0,0,0)" font-family="Arial" font-size="12">42</text>
<rect width="17" height="520" x="757" y="40" style="fill:rgb(230,230,230);stroke:none"/>
<text x="758" y="575" fill="rgb(0,0,0)" font-family="Arial" font-size="12">44</text>
<line x1="26" y1="560" x2="790" y2="560" stroke="rgb(180,180,180)" stroke-width="1"/>
<line x1="26" y1="508" x2="790" y2="508" stroke="rgb(180,180,180)" stroke-width="1"/>
<line x1="26" y1="456" x2="790" y2="456" stroke="rgb(180,180,180)" stroke-width="1"/>
<line x1="26" y1="404" x2="790" y2="404" stroke="rgb(180,180,180)" stroke-width="1"/>
<line x1="26" y1="352" x2="790" y2="352" stroke="rgb(180,180,180)" stroke-width="1"/>
<line x1="26" y1="300" x2="790" y2="300" stroke="rgb(180,180,180)" stroke-width="1"/>
<line x1="26" y1="248" x2="790" y2="248" stroke="rgb(180,180,180)" stroke-width="1"/>
<line x1="26" y1="196" x2="790" y2="196" stroke="rgb(180,180,180)" stroke-width="1"/>
<line x1="26" y1="144" x2="790" y2="144" stroke="rgb(180,180,180)" stroke-width="1"/>
<line x1="26" y1="92" x2="790" y2="92" stroke="rgb(180,180,180)" stroke-width="1"/>
<line x1="26" y1="40" x2="790" y2="40" stroke="rgb(180,180,180)" stroke-width="1"/>
<line x1="34" y1="288" x2="51" y2="452" stroke="rgb(136,34,85)" stroke-width="1"/>
<line x1="51" y1="452" x2="68" y2="433" stroke="rgb(136,34,85)" stroke-width="1"/>
<line x1="68" y1="433" x2="85" y2="411" stroke="rgb(136,34,85)" stroke-width="1"/>
<line x1="85" y1="411" x2="102" y2="406" stroke="rgb(136,34,85)" stroke-width="1"/>
<line x1="102" y1="406" x2="119" y2="429" stroke="rgb(136,34,85)" stroke-width="1"/>
<line x1="119" y1="429" x2="136" y2="425" stroke="rgb(136,34,85)" stroke-width="1"/>
<line x1="136" y1="425" x2="153" y2="400" stroke="rgb(136,34,85)" stroke-width="1"/>
<line x1="153" y1="400" x2="170" y2="420" stroke="rgb(136,34,85)" stroke-width="1"/>
<line x1="170" y1="420" x2="187" y2="432" stroke="rgb(136,34,85)" stroke-width="1"/>
<line x1="187" y1="432" x2="204" y2="427" stroke="rgb(136,34,85)" stroke-width="1"/>
<line x1="204" y1="427" x2="221" y2="401" stroke="rgb(136,34,85)" stroke-width="1"/>
<line x1="221" y1="401" x2="238" y2="415" stroke="rgb(136,34,85)" stroke-width="1"/>
<line x1="238" y1="415" x2="255" y2="425" stroke="rgb(136,34,85)" stroke-width="1"/>
<line x1="255" y1="425" x2="272" y2="425" stroke="rgb(136,34,85)" stroke-width="1"/>
<line x1="272" y1="425" x2="289" y2="397" stroke="rgb(136,34,85)" stroke-width="1"/>
<line x1="289" y1="397" x2="306" y2="410" stroke="rgb(136,34,85)" stroke-width="1"/>
<line x1="306" y1="410" x2="323" y2="416" stroke="rgb(136,34,85)" stroke-width="1"/>
<line x1="323" y1="416" x2="340" y2="406" stroke="rgb(136,34,85)" stroke-width="1"/>
<line x1="340" y1="406" x2="357" y2="402" stroke="rgb(136,34,85)" stroke-width="1"/>
<line x1="357" y1="402" x2="374" y2="403" stroke="rgb(136,34,85)" stroke-width="1"/>
<line x1="374" y1="403" x2="391" y2="418" stroke="rgb(136,34,85)" stroke-width="1"/>
<line x1="391" y1="418" x2="408" y2="400" stroke="rgb(136,34,85)" stroke-width="1"/>
<line x1="408" y1="400" x2="425" y2="404" stroke="rgb(136,34,85)" stroke-width="1"/>
<line x1="425" y1="404" x2="442" y2="416" stroke="rgb(136,34,85)" stroke-width="1"/>
<line x1="442" y1="416" x2="459" y2="430" stroke="rgb(136,34,85)" stroke-width="1"/>
<line x1="459" y1="430" x2="476" y2="381" stroke="rgb(136,34,85)" stroke-width="1"/>
<line x1="476" y1="381" x2="493" y2="391" stroke="rgb(136,34,85)" stroke-width="1"/>
<line x1="493" y1="391" x2="510" y2="388" stroke="rgb(136,34,85)" stroke-width="1"/>
<line x1="510" y1="388" x2="527" y2="424" stroke="rgb(136,34,85)" stroke-width="1"/>
<line x1="527" y1="424" x2="544" y2="425" stroke="rgb(136,34,85)" stroke-width="1"/>
<line x1="544" y1="425" x2="561" y2="385" stroke="rgb(136,34,85)" stroke-width="1"/>
<line x1="561" y1="385" x2="578" y2="373" stroke="rgb(136,34,85)" stroke-width="1"/>
<line x1="578" y1="373" x2="595" y2="410" stroke="rgb(136,34,85)" stroke-width="1"/>
<line x1="595" y1="410" x2="612" y2="380" stroke="rgb(136,34,85)" stroke-width="1"/>
<line x1="612" y1="380" x2="629" y2="430" stroke="rgb(136,34,85)" stroke-width="1"/>
<line x1="629" y1="430" x2="646" y2="405" stroke="rgb(136,34,85)" stroke-width="1"/>
<line x1="646" y1="405" x2="663" y2="452" stroke="rgb(136,34,85)" stroke-width="1"/>
<line x1="663" y1="452" x2="680" y2="389" stroke="rgb(136,34,85)" stroke-width="1"/>
<line x1="680" y1="389" x2="697" y2="353" stroke="rgb(136,34,85)" stroke-width="1"/>
<line x1="697" y1="353" x2="714" y2="441" stroke="rgb(136,34,85)" stroke-width="1"/>
<line x1="714" y1="441" x2="731" y2="461" stroke="rgb(136,34,85)" stroke-width="1"/>
<line x1="731" y1="461" x2="748" y2="217" stroke="rgb(136,34,85)" stroke-width="1"/>
<line x1="748" y1="217" x2="765" y2="296" stroke="rgb(136,34,85)" stroke-width="1"/>
<line x1="34" y1="501" x2="51" y2="403" stroke="rgb(51,34,136)" stroke-width="1"/>
<line x1="51" y1="403" x2="68" y2="400" stroke="rgb(51,34,136)" stroke-width="1"/>
<line x1="68" y1="400" x2="85" y2="424" stroke="rgb(51,34,136)" stroke-width="1"/>
<line x1="85" y1="424" x2="102" y2="436" stroke="rgb(51,34,136)" stroke-width="1"/>
<line x1="102" y1="436" x2="119" y2="421" stroke="rgb(51,34,136)" stroke-width="1"/>
<line x1="119" y1="421" x2="136" y2="440" stroke="rgb(51,34,136)" stroke-width="1"/>
<line x1="136" y1="440" x2="153" y2="439" stroke="rgb(51,34,136)" stroke-width="1"/>
<line x1="153" y1="439" x2="170" y2="440" stroke="rgb(51,34,136)" stroke-width="1"/>
<line x1="170" y1="440" x2="187" y2="435" stroke="rgb(51,34,136)" stroke-width="1"/>
<line x1="187" y1="435" x2="204" y2="420" stroke="rgb(51,34,136)" stroke-width="1"/>
<line x1="204" y1="420" x2="221" y2="431" stroke="rgb(51,34,136)" stroke-width="1"/>
<line x1="221" y1="431" x2="238" y2="426" stroke="rgb(51,34,136)" stroke-width="1"/>
<line x1="238" y1="426" x2="255" y2="434" stroke="rgb(51,34,136)" stroke-width="1"/>
<line x1="255" y1="434" x2="272" y2="432" stroke="rgb(51,34,136)" stroke-width="1"/>
<line x1="272" y1="432" x2="289" y2="442" stroke="rgb(51,34,136)" stroke-width="1"/>
<line x1="289" y1="442" x2="306" y2="427" stroke="rgb(51,34,136)" stroke-width="1"/>
<line x1="306" y1="427" x2="323" y2="440" stroke="rgb(51,34,136)" stroke-width="1"/>
<line x1="323" y1="440" x2="340" y2="442" stroke="rgb(51,34,136)" stroke-width="1"/>
<line x1="340" y1="442" x2="357" y2="441" stroke="rgb(51,34,136)" stroke-width="1"/>
<line x1="357" y1="441" x2="374" y2="440" stroke="rgb(51,34,136)" stroke-width="1"/>
<line x1="374" y1="440" x2="391" y2="448" stroke="rgb(51,34,136)" stroke-width="1"/>
<line x1="391" y1="448" x2="408" y2="443" stroke="rgb(51,34,136)" stroke-width="1"/>
<line x1="408" y1="443" x2="425" y2="445" stroke="rgb(51,34,136)" stroke-width="1"/>
<line x1="425" y1="445" x2="442" y2="427" stroke="rgb(51,34,136)" stroke-width="1"/>
<line x1="442" y1="427" x2="459" y2="427" stroke="rgb(51,34,136)" stroke-width="1"/>
<line x1="459" y1="427" x2="476" y2="429" stroke="rgb(51,34,136)" stroke-width="1"/>
<line x1="476" y1="429" x2="493" y2="413" stroke="rgb(51,34,136)" stroke-width="1"/>
<line x1="493" y1="413" x2="510" y2="408" stroke="rgb(51,34,136)" stroke-width="1"/>
<line x1="510" y1="408" x2="527" y2="422" stroke="rgb(51,34,136)" stroke-width="1"/>
<line x1="527" y1="422" x2="544" y2="382" stroke="rgb(51,34,136)" stroke-width="1"/>
<line x1="544" y1="382" x2="561" y2="406" stroke="rgb(51,34,136)" stroke-width="1"/>
<line x1="561" y1="406" x2="578" y2="437" stroke="rgb(51,34,136)" stroke-width="1"/>
<line x1="578" y1="437" x2="595" y2="450" stroke="rgb(51,34,136)" stroke-width="1"/>
<line x1="595" y1="450" x2="612" y2="430" stroke="rgb(51,34,136)" stroke-width="1"/>
<line x1="612" y1="430" x2="629" y2="389" stroke="rgb(51,34,136)" stroke-width="1"/>
<line x1="629" y1="389" x2="646" y2="435" stroke="rgb(51,34,136)" stroke-width="1"/>
<line x1="646" y1="435" x2="663" y2="368" stroke="rgb(51,34,136)" stroke-width="1"/>
<line x1="663" y1="368" x2="680" y2="429" stroke="rgb(51,34,136)" stroke-width="1"/>
<line x1="680" y1="429" x2="697" y2="439" stroke="rgb(51,34,136)" stroke-width="1"/>
<line x1="697" y1="439" x2="714" y2="300" stroke="rgb(51,34,136)" stroke-width="1"/>
<line x1="714" y1="300" x2="731" y2="441" stroke="rgb(51,34,136)" stroke-width="1"/>
<line x1="731" y1="441" x2="748" y2="481" stroke="rgb(51,34,136)" stroke-width="1"/>
<line x1="748" y1="481" x2="765" y2="436" stroke="rgb(51,34,136)" stroke-width="1"/>
<line x1="34" y1="471" x2="51" y2="430" stroke="rgb(17,119,51)" stroke-width="1"/>
<line x1="51" y1="430" x2="68" y2="446" stroke="rgb(17,119,51)" stroke-width="1"/>
<line x1="68" y1="446" x2="85" y2="452" stroke="rgb(17,119,51)" stroke-width="1"/>
<line x1="85" y1="452" x2="102" y2="430" stroke="rgb(17,119,51)" stroke-width="1"/>
<line x1="102" y1="430" x2="119" y2="449" stroke="rgb(17,119,51)" stroke-width="1"/>
<line x1="119" y1="449" x2="136" y2="450" stroke="rgb(17,119,51)" stroke-width="1"/>
<line x1="136" y1="450" x2="153" y2="455" stroke="rgb(17,119,51)" stroke-width="1"/>
<line x1="153" y1="455" x2="170" y2="434" stroke="rgb(17,119,51)" stroke-width="1"/>
<line x1="170" y1="434" x2="187" y2="449" stroke="rgb(17,119,51)" stroke-width="1"/>
<line x1="187" y1="449" x2="204" y2="445" stroke="rgb(17,119,51)" stroke-width="1"/>
<line x1="204" y1="445" x2="221" y2="453" stroke="rgb(17,119,51)" stroke-width="1"/>
<line x1="221" y1="453" x2="238" y2="451" stroke="rgb(17,119,51)" stroke-width="1"/>
<line x1="238" y1="451" x2="255" y2="432" stroke="rgb(17,119,51)" stroke-width="1"/>
<line x1="255" y1="432" x2="272" y2="457" stroke="rgb(17,119,51)" stroke-width="1"/>
<line x1="272" y1="457" x2="289" y2="449" stroke="rgb(17,119,51)" stroke-width="1"/>
<line x1="289" y1="449" x2="306" y2="454" stroke="rgb(17,119,51)" stroke-width="1"/>
<line x1="306" y1="454" x2="323" y2="456" stroke="rgb(17,119,51)" stroke-width="1"/>
<line x1="323" y1="456" x2="340" y2="447" stroke="rgb(17,119,51)" stroke-width="1"/>
<line x1="340" y1="447" x2="357" y2="447" stroke="rgb(17,119,51)" stroke-width="1"/>
<line x1="357" y1="447" x2="374" y2="440" stroke="rgb(17,119,51)" stroke-width="1"/>
<line x1="374" y1="440" x2="391" y2="439" stroke="rgb(17,119,51)" stroke-width="1"/>
<line x1="391" y1="439" x2="408" y2="445" stroke="rgb(17,119,51)" stroke-width="1"/>
<line x1="408" y1="445" x2="425" y2="443" stroke="rgb(17,119,51)" stroke-width="1"/>
<line x1="425" y1="443" x2="442" y2="452" stroke="rgb(17,119,51)" stroke-width="1"/>
<line x1="442" y1="452" x2="459" y2="438" stroke="rgb(17,119,51)" stroke-width="1"/>
<line x1="459" y1="438" x2="476" y2="474" stroke="rgb(17,119,51)" stroke-width="1"/>
<line x1="476" y1="474" x2="493" y2="495" stroke="rgb(17,119,51)" stroke-width="1"/>
<line x1="493" y1="495" x2="510" y2="509" stroke="rgb(17,119,51)" stroke-width="1"/>
<line x1="510" y1="509" x2="527" y2="501" stroke="rgb(17,119,51)" stroke-width="1"/>
<line x1="527" y1="501" x2="544" y2="502" stroke="rgb(17,119,51)" stroke-width="1"/>
<line x1="544" y1="502" x2="561" y2="499" stroke="rgb(17,119,51)" stroke-width="1"/>
<line x1="561" y1="499" x2="578" y2="504" stroke="rgb(17,119,51)" stroke-width="1"/>
<line x1="578" y1="504" x2="595" y2="503" stroke="rgb(17,119,51)" stroke-width="1"/>
<line x1="595" y1="503" x2="612" y2="487" stroke="rgb(17,119,51)" stroke-width="1"/>
<line x1="612" y1="487" x2="629" y2="511" stroke="rgb(17,119,51)" stroke-width="1"/>
<line x1="629" y1="511" x2="646" y2="508" stroke="rgb(17,119,51)" stroke-width="1"/>
<line x1="646" y1="508" x2="663" y2="475" stroke="rgb(17,119,51)" stroke-width="1"/>
<line x1="663" y1="475" x2="680" y2="497" stroke="rgb(17,119,51)" stroke-width="1"/>
<line x1="680" y1="497" x2="697" y2="504" stroke="rgb(17,119,51)" stroke-width="1"/>
<line x1="697" y1="504" x2="714" y2="528" stroke="rgb(17,119,51)" stroke-width="1"/>
<line x1="714" y1="528" x2="731" y2="542" stroke="rgb(17,119,51)" stroke-width="1"/>
<line x1="731" y1="542" x2="748" y2="555" stroke="rgb(17,119,51)" stroke-width="1"/>
<line x1="748" y1="555" x2="765" y2="560" stroke="rgb(17,119,51)" stroke-width="1"/>
<line x1="34" y1="462" x2="51" y2="436" stroke="rgb(221,204,119)" stroke-width="1"/>
<line x1="51" y1="436" x2="68" y2="442" stroke="rgb(221,204,119)" stroke-width="1"/>
<line x1="68" y1="442" x2="85" y2="434" stroke="rgb(221,204,119)" stroke-width="1"/>
<line x1="85" y1="434" x2="102" y2="450" stroke="rgb(221,204,119)" stroke-width="1"/>
<line x1="102" y1="450" x2="119" y2="423" stroke="rgb(221,204,119)" stroke-width="1"/>
<line x1="119" y1="423" x2="136" y2="407" stroke="rgb(221,204,119)" stroke-width="1"/>
<line x1="136" y1="407" x2="153" y2="427" stroke="rgb(221,204,119)" stroke-width="1"/>
<line x1="153" y1="427" x2="170" y2="429" stroke="rgb(221,204,119)" stroke-width="1"/>
<line x1="170" y1="429" x2="187" y2="405" stroke="rgb(221,204,119)" stroke-width="1"/>
<line x1="187" y1="405" x2="204" y2="430" stroke="rgb(221,204,119)" stroke-width="1"/>
<line x1="204" y1="430" x2="221" y2="437" stroke="rgb(221,204,119)" stroke-width="1"/>
<line x1="221" y1="437" x2="238" y2="431" stroke="rgb(221,204,119)" stroke-width="1"/>
<line x1="238" y1="431" x2="255" y2="431" stroke="rgb(221,204,119)" stroke-width="1"/>
<line x1="255" y1="431" x2="272" y2="409" stroke="rgb(221,204,119)" stroke-width="1"/>
<line x1="272" y1="409" x2="289" y2="434" stroke="rgb(221,204,119)" stroke-width="1"/>
<line x1="289" y1="434" x2="306" y2="432" stroke="rgb(221,204,119)" stroke-width="1"/>
<line x1="306" y1="432" x2="323" y2="410" stroke="rgb(221,204,119)" stroke-width="1"/>
<line x1="323" y1="410" x2="340" y2="427" stroke="rgb(221,204,119)" stroke-width="1"/>
<line x1="340" y1="427" x2="357" y2="433" stroke="rgb(221,204,119)" stroke-width="1"/>
<line x1="357" y1="433" x2="374" y2="438" stroke="rgb(221,204,119)" stroke-width="1"/>
<line x1="374" y1="438" x2="391" y2="416" stroke="rgb(221,204,119)" stroke-width="1"/>
<line x1="391" y1="416" x2="408" y2="434" stroke="rgb(221,204,119)" stroke-width="1"/>
<line x1="408" y1="434" x2="425" y2="430" stroke="rgb(221,204,119)" stroke-width="1"/>
<line x1="425" y1="430" x2="442" y2="428" stroke="rgb(221,204,119)" stroke-width="1"/>
<line x1="442" y1="428" x2="459" y2="427" stroke="rgb(221,204,119)" stroke-width="1"/>
<line x1="459" y1="427" x2="476" y2="438" stroke="rgb(221,204,119)" stroke-width="1"/>
<line x1="476" y1="438" x2="493" y2="424" stroke="rgb(221,204,119)" stroke-width="1"/>
<line x1="493" y1="424" x2="510" y2="418" stroke="rgb(221,204,119)" stroke-width="1"/>
<line x1="510" y1="418" x2="527" y2="375" stroke="rgb(221,204,119)" stroke-width="1"/>
<line x1="527" y1="375" x2="544" y2="414" stroke="rgb(221,204,119)" stroke-width="1"/>
<line x1="544" y1="414" x2="561" y2="432" stroke="rgb(221,204,119)" stroke-width="1"/>
<line x1="561" y1="432" x2="578" y2="408" stroke="rgb(221,204,119)" stroke-width="1"/>
<line x1="578" y1="408" x2="595" y2="359" stroke="rgb(221,204,119)" stroke-width="1"/>
<line x1="595" y1="359" x2="612" y2="425" stroke="rgb(221,204,119)" stroke-width="1"/>
<line x1="612" y1="425" x2="629" y2="392" stroke="rgb(221,204,119)" stroke-width="1"/>
<line x1="629" y1="392" x2="646" y2="374" stroke="rgb(221,204,119)" stroke-width="1"/>
<line x1="646" y1="374" x2="663" y2="427" stroke="rgb(221,204,119)" stroke-width="1"/>
<line x1="663" y1="427" x2="680" y2="407" stroke="rgb(221,204,119)" stroke-width="1"/>
<line x1="680" y1="407" x2="697" y2="426" stroke="rgb(221,204,119)" stroke-width="1"/>
<line x1="697" y1="426" x2="714" y2="453" stroke="rgb(221,204,119)" stroke-width="1"/>
<line x1="714" y1="453" x2="731" y2="278" stroke="rgb(221,204,119)" stroke-width="1"/>
<line x1="731" y1="278" x2="748" y2="469" stroke="rgb(221,204,119)" stroke-width="1"/>
<line x1="748" y1="469" x2="765" y2="430" stroke="rgb(221,204,119)" stroke-width="1"/>
<rect width="26" height="83" x="764" y="40" style="fill:rgb(255,255,255);stroke:none"/>
<rect width="26" height="83" x="764" y="40" rx="0" ry="0" style="fill:none;stroke-width:1;stroke:rgb(192,192,192)"/>
<text x="767" y="55" fill="rgb(136,34,85)" font-family="Arial" font-size="12" font-weight="bold">%T</text>
<text x="767" y="75" fill="rgb(51,34,136)" font-family="Arial" font-size="12" font-weight="bold">%C</text>
<text x="767" y="95" fill="rgb(17,119,51)" font-family="Arial" font-size="12" font-weight="bold">%A</text>
<text x="767" y="115" fill="rgb(221,204,119)" font-family="Arial" font-size="12" font-weight="bold">%G</text>
</svg>
