<?xml version="1.0" standalone="no"?>
<!DOCTYPE svg PUBLIC "-//W3C//DTD SVG 1.1//EN" "http://www.w3.org/Graphics/SVG/1.1/DTD/svg11.dtd">
<svg width="800" height="600" version="1.1" xmlns="http://www.w3.org/2000/svg">
<rect width="800" height="600" x="0" y="0" style="fill:rgb(238,238,238);stroke:none"/>
<rect width="800" height="600" x="0" y="0" style="fill:rgb(255,255,255);stroke:none"/>
<text x="2" y="566" fill="rgb(0,0,0)" font-family="Arial" font-size="12">0</text>
<text x="2" y="507" fill="rgb(0,0,0)" font-family="Arial" font-size="12">500000</text>
<text x="2" y="448" fill="rgb(0,0,0)" font-family="Arial" font-size="12">1000000</text>
<text x="2" y="389" fill="rgb(0,0,0)" font-family="Arial" font-size="12">1500000</text>
<text x="2" y="329" fill="rgb(0,0,0)" font-family="Arial" font-size="12">2000000</text>
<text x="2" y="270" fill="rgb(0,0,0)" font-family="Arial" font-size="12">2500000</text>
<text x="2" y="211" fill="rgb(0,0,0)" font-family="Arial" font-size="12">3000000</text>
<text x="2" y="151" fill="rgb(0,0,0)" font-family="Arial" font-size="12">3500000</text>
<text x="2" y="92" fill="rgb(0,0,0)" font-family="Arial" font-size="12">4000000</text>
<text x="279" y="30" fill="rgb(0,0,0)" font-family="Arial" font-size="12">Distribution of sequence lengths over all sequences</text>
<line x1="54" y1="560" x2="790" y2="560" stroke="rgb(0,0,0)" stroke-width="1"/>
<line x1="54" y1="560" x2="54" y2="40" stroke="rgb(0,0,0)" stroke-width="1"/>
<text x="340" y="595" fill="rgb(0,0,0)" font-family="Arial" font-size="12">Sequence Length (bp)</text>
<text x="60" y="575" fill="rgb(0,0,0)" font-family="Arial" font-size="12">19</text>
<rect width="27" height="520" x="81" y="40" style="fill:rgb(230,230,230);stroke:none"/>
<text x="87" y="575" fill="rgb(0,0,0)" font-family="Arial" font-size="12">20</text>
<text x="114" y="575" fill="rgb(0,0,0)" font-family="Arial" font-size="12">21</text>
<rect width="27" height="520" x="135" y="40" style="fill:rgb(230,230,230);stroke:none"/>
<text x="141" y="575" fill="rgb(0,0,0)" font-family="Arial" font-size="12">22</text>
<text x="168" y="575" fill="rgb(0,0,0)" font-family="Arial" font-size="12">23</text>
<rect width="27" height="520" x="189" y="40" style="fill:rgb(230,230,230);stroke:none"/>
<text x="195" y="575" fill="rgb(0,0,0)" font-family="Arial" font-size="12">24</text>
<text x="222" y="575" fill="rgb(0,0,0)" font-family="Arial" font-size="12">25</text>
<rect width="27" height="520" x="243" y="40" style="fill:rgb(230,230,230);stroke:none"/>
<text x="249" y="575" fill="rgb(0,0,0)" font-family="Arial" font-size="12">26</text>
<text x="276" y="575" fill="rgb(0,0,0)" font-family="Arial" font-size="12">27</text>
<rect width="27" height="520" x="297" y="40" style="fill:rgb(230,230,230);stroke:none"/>
<text x="303" y="575" fill="rgb(0,0,0)" font-family="Arial" font-size="12">28</text>
<text x="330" y="575" fill="rgb(0,0,0)" font-family="Arial" font-size="12">29</text>
<rect width="27" height="520" x="351" y="40" style="fill:rgb(230,230,230);stroke:none"/>
<text x="357" y="575" fill="rgb(0,0,0)" font-family="Arial" font-size="12">30</text>
<text x="384" y="575" fill="rgb(0,0,0)" font-family="Arial" font-size="12">31</text>
<rect width="27" height="520" x="405" y="40" style="fill:rgb(230,230,230);stroke:none"/>
<text x="411" y="575" fill="rgb(0,0,0)" font-family="Arial" font-size="12">32</text>
<text x="438" y="575" fill="rgb(0,0,0)" font-family="Arial" font-size="12">33</text>
<rect width="27" height="520" x="459" y="40" style="fill:rgb(230,230,230);stroke:none"/>
<text x="465" y="575" fill="rgb(0,0,0)" font-family="Arial" font-size="12">34</text>
<text x="492" y="575" fill="rgb(0,0,0)" font-family="Arial" font-size="12">35</text>
<rect width="27" height="520" x="513" y="40" style="fill:rgb(230,230,230);stroke:none"/>
<text x="519" y="575" fill="rgb(0,0,0)" font-family="Arial" font-size="12">36</text>
<text x="546" y="575" fill="rgb(0,0,0)" font-family="Arial" font-size="12">37</text>
<rect width="27" height="520" x="567" y="40" style="fill:rgb(230,230,230);stroke:none"/>
<text x="573" y="575" fill="rgb(0,0,0)" font-family="Arial" font-size="12">38</text>
<text x="600" y="575" fill="rgb(0,0,0)" font-family="Arial" font-size="12">39</text>
<rect width="27" height="520" x="621" y="40" style="fill:rgb(230,230,230);stroke:none"/>
<text x="627" y="575" fill="rgb(0,0,0)" font-family="Arial" font-size="12">40</text>
<text x="654" y="575" fill="rgb(0,0,0)" font-family="Arial" font-size="12">41</text>
<rect width="27" height="520" x="675" y="40" style="fill:rgb(230,230,230);stroke:none"/>
<text x="681" y="575" fill="rgb(0,0,0)" font-family="Arial" font-size="12">42</text>
<text x="708" y="575" fill="rgb(0,0,0)" font-family="Arial" font-size="12">43</text>
<rect width="27" height="520" x="729" y="40" style="fill:rgb(230,230,230);stroke:none"/>
<text x="735" y="575" fill="rgb(0,0,0)" font-family="Arial" font-size="12">44</text>
<text x="762" y="575" fill="rgb(0,0,0)" font-family="Arial" font-size="12">45</text>
<line x1="54" y1="560" x2="790" y2="560" stroke="rgb(180,180,180)" stroke-width="1"/>
<line x1="54" y1="501" x2="790" y2="501" stroke="rgb(180,180,180)" stroke-width="1"/>
<line x1="54" y1="442" x2="790" y2="442" stroke="rgb(180,180,180)" stroke-width="1"/>
<line x1="54" y1="383" x2="790" y2="383" stroke="rgb(180,180,180)" stroke-width="1"/>
<line x1="54" y1="323" x2="790" y2="323" stroke="rgb(180,180,180)" stroke-width="1"/>
<line x1="54" y1="264" x2="790" y2="264" stroke="rgb(180,180,180)" stroke-width="1"/>
<line x1="54" y1="205" x2="790" y2="205" stroke="rgb(180,180,180)" stroke-width="1"/>
<line x1="54" y1="145" x2="790" y2="145" stroke="rgb(180,180,180)" stroke-width="1"/>
<line x1="54" y1="86" x2="790" y2="86" stroke="rgb(180,180,180)" stroke-width="1"/>
<line x1="67" y1="560" x2="94" y2="491" stroke="rgb(136,34,85)" stroke-width="1"/>
<line x1="94" y1="491" x2="121" y2="461" stroke="rgb(136,34,85)" stroke-width="1"/>
<line x1="121" y1="461" x2="148" y2="428" stroke="rgb(136,34,85)" stroke-width="1"/>
<line x1="148" y1="428" x2="175" y2="417" stroke="rgb(136,34,85)" stroke-width="1"/>
<line x1="175" y1="417" x2="202" y2="428" stroke="rgb(136,34,85)" stroke-width="1"/>
<line x1="202" y1="428" x2="229" y2="403" stroke="rgb(136,34,85)" stroke-width="1"/>
<line x1="229" y1="403" x2="256" y2="374" stroke="rgb(136,34,85)" stroke-width="1"/>
<line x1="256" y1="374" x2="283" y2="245" stroke="rgb(136,34,85)" stroke-width="1"/>
<line x1="283" y1="245" x2="310" y2="40" stroke="rgb(136,34,85)" stroke-width="1"/>
<line x1="310" y1="40" x2="337" y2="167" stroke="rgb(136,34,85)" stroke-width="1"/>
<line x1="337" y1="167" x2="364" y2="384" stroke="rgb(136,34,85)" stroke-width="1"/>
<line x1="364" y1="384" x2="391" y2="441" stroke="rgb(136,34,85)" stroke-width="1"/>
<line x1="391" y1="441" x2="418" y2="463" stroke="rgb(136,34,85)" stroke-width="1"/>
<line x1="418" y1="463" x2="445" y2="486" stroke="rgb(136,34,85)" stroke-width="1"/>
<line x1="445" y1="486" x2="472" y2="491" stroke="rgb(136,34,85)" stroke-width="1"/>
<line x1="472" y1="491" x2="499" y2="515" stroke="rgb(136,34,85)" stroke-width="1"/>
<line x1="499" y1="515" x2="526" y2="511" stroke="rgb(136,34,85)" stroke-width="1"/>
<line x1="526" y1="511" x2="553" y2="524" stroke="rgb(136,34,85)" stroke-width="1"/>
<line x1="553" y1="524" x2="580" y2="529" stroke="rgb(136,34,85)" stroke-width="1"/>
<line x1="580" y1="529" x2="607" y2="541" stroke="rgb(136,34,85)" stroke-width="1"/>
<line x1="607" y1="541" x2="634" y2="546" stroke="rgb(136,34,85)" stroke-width="1"/>
<line x1="634" y1="546" x2="661" y2="552" stroke="rgb(136,34,85)" stroke-width="1"/>
<line x1="661" y1="552" x2="688" y2="554" stroke="rgb(136,34,85)" stroke-width="1"/>
<line x1="688" y1="554" x2="715" y2="551" stroke="rgb(136,34,85)" stroke-width="1"/>
<line x1="715" y1="551" x2="742" y2="558" stroke="rgb(136,34,85)" stroke-width="1"/>
<line x1="742" y1="558" x2="769" y2="560" stroke="rgb(136,34,85)" stroke-width="1"/>
<rect width="110" height="23" x="680" y="40" style="fill:rgb(255,255,255);stroke:none"/>
<rect width="110" height="23" x="680" y="40" rx="0" ry="0" style="fill:none;stroke-width:1;stroke:rgb(192,192,192)"/>
<text x="683" y="55" fill="rgb(136,34,85)" font-family="Arial" font-size="12" font-weight="bold">Sequence Length</text>
</svg>
