<?xml version="1.0" standalone="no"?>
<!DOCTYPE svg PUBLIC "-//W3C//DTD SVG 1.1//EN" "http://www.w3.org/Graphics/SVG/1.1/DTD/svg11.dtd">
<svg width="800" height="600" version="1.1" xmlns="http://www.w3.org/2000/svg">
<rect width="800" height="600" x="0" y="0" style="fill:rgb(238,238,238);stroke:none"/>
<rect width="800" height="600" x="0" y="0" style="fill:rgb(255,255,255);stroke:none"/>
<text x="2" y="566" fill="rgb(0,0,0)" font-family="Arial" font-size="12">0</text>
<text x="2" y="514" fill="rgb(0,0,0)" font-family="Arial" font-size="12">25000</text>
<text x="2" y="462" fill="rgb(0,0,0)" font-family="Arial" font-size="12">50000</text>
<text x="2" y="410" fill="rgb(0,0,0)" font-family="Arial" font-size="12">75000</text>
<text x="2" y="357" fill="rgb(0,0,0)" font-family="Arial" font-size="12">100000</text>
<text x="2" y="305" fill="rgb(0,0,0)" font-family="Arial" font-size="12">125000</text>
<text x="2" y="253" fill="rgb(0,0,0)" font-family="Arial" font-size="12">150000</text>
<text x="2" y="201" fill="rgb(0,0,0)" font-family="Arial" font-size="12">175000</text>
<text x="2" y="148" fill="rgb(0,0,0)" font-family="Arial" font-size="12">200000</text>
<text x="2" y="96" fill="rgb(0,0,0)" font-family="Arial" font-size="12">225000</text>
<text x="314" y="30" fill="rgb(0,0,0)" font-family="Arial" font-size="12">GC distribution over all sequences</text>
<line x1="53" y1="560" x2="790" y2="560" stroke="rgb(0,0,0)" stroke-width="1"/>
<line x1="53" y1="560" x2="53" y2="40" stroke="rgb(0,0,0)" stroke-width="1"/>
<text x="334" y="595" fill="rgb(0,0,0)" font-family="Arial" font-size="12">Mean GC content (%)</text>
<text x="52" y="575" fill="rgb(0,0,0)" font-family="Arial" font-size="12">0</text>
<rect width="7" height="520" x="60" y="40" style="fill:rgb(230,230,230);stroke:none"/>
<text x="66" y="575" fill="rgb(0,0,0)" font-family="Arial" font-size="12">2</text>
<rect width="7" height="520" x="74" y="40" style="fill:rgb(230,230,230);stroke:none"/>
<text x="80" y="575" fill="rgb(0,0,0)" font-family="Arial" font-size="12">4</text>
<rect width="7" height="520" x="88" y="40" style="fill:rgb(230,230,230);stroke:none"/>
<text x="94" y="575" fill="rgb(0,0,0)" font-family="Arial" font-size="12">6</text>
<rect width="7" height="520" x="102" y="40" style="fill:rgb(230,230,230);stroke:none"/>
<text x="108" y="575" fill="rgb(0,0,0)" font-family="Arial" font-size="12">8</text>
<rect width="7" height="520" x="116" y="40" style="fill:rgb(230,230,230);stroke:none"/>
<rect width="7" height="520" x="130" y="40" style="fill:rgb(230,230,230);stroke:none"/>
<text x="125" y="575" fill="rgb(0,0,0)" font-family="Arial" font-size="12">11</text>
<rect width="7" height="520" x="144" y="40" style="fill:rgb(230,230,230);stroke:none"/>
<rect width="7" height="520" x="158" y="40" style="fill:rgb(230,230,230);stroke:none"/>
<text x="153" y="575" fill="rgb(0,0,0)" font-family="Arial" font-size="12">15</text>
<rect width="7" height="520" x="172" y="40" style="fill:rgb(230,230,230);stroke:none"/>
<rect width="7" height="520" x="186" y="40" style="fill:rgb(230,230,230);stroke:none"/>
<text x="181" y="575" fill="rgb(0,0,0)" font-family="Arial" font-size="12">19</text>
<rect width="7" height="520" x="200" y="40" style="fill:rgb(230,230,230);stroke:none"/>
<rect width="7" height="520" x="214" y="40" style="fill:rgb(230,230,230);stroke:none"/>
<text x="209" y="575" fill="rgb(0,0,0)" font-family="Arial" font-size="12">23</text>
<rect width="7" height="520" x="228" y="40" style="fill:rgb(230,230,230);stroke:none"/>
<rect width="7" height="520" x="242" y="40" style="fill:rgb(230,230,230);stroke:none"/>
<text x="237" y="575" fill="rgb(0,0,0)" font-family="Arial" font-size="12">27</text>
<rect width="7" height="520" x="256" y="40" style="fill:rgb(230,230,230);stroke:none"/>
<rect width="7" height="520" x="270" y="40" style="fill:rgb(230,230,230);stroke:none"/>
<text x="265" y="575" fill="rgb(0,0,0)" font-family="Arial" font-size="12">31</text>
<rect width="7" height="520" x="284" y="40" style="fill:rgb(230,230,230);stroke:none"/>
<rect width="7" height="520" x="298" y="40" style="fill:rgb(230,230,230);stroke:none"/>
<text x="293" y="575" fill="rgb(0,0,0)" font-family="Arial" font-size="12">35</text>
<rect width="7" height="520" x="312" y="40" style="fill:rgb(230,230,230);stroke:none"/>
<rect width="7" height="520" x="326" y="40" style="fill:rgb(230,230,230);stroke:none"/>
<text x="321" y="575" fill="rgb(0,0,0)" font-family="Arial" font-size="12">39</text>
<rect width="7" height="520" x="340" y="40" style="fill:rgb(230,230,230);stroke:none"/>
<rect width="7" height="520" x="354" y="40" style="fill:rgb(230,230,230);stroke:none"/>
<text x="349" y="575" fill="rgb(0,0,0)" font-family="Arial" font-size="12">43</text>
<rect width="7" height="520" x="368" y="40" style="fill:rgb(230,230,230);stroke:none"/>
<rect width="7" height="520" x="382" y="40" style="fill:rgb(230,230,230);stroke:none"/>
<text x="377" y="575" fill="rgb(0,0,0)" font-family="Arial" font-size="12">47</text>
<rect width="7" height="520" x="396" y="40" style="fill:rgb(230,230,230);stroke:none"/>
<rect width="7" height="520" x="410" y="40" style="fill:rgb(230,230,230);stroke:none"/>
<text x="405" y="575" fill="rgb(0,0,0)" font-family="Arial" font-size="12">51</text>
<rect width="7" height="520" x="424" y="40" style="fill:rgb(230,230,230);stroke:none"/>
<rect width="7" height="520" x="438" y="40" style="fill:rgb(230,230,230);stroke:none"/>
<text x="433" y="575" fill="rgb(0,0,0)" font-family="Arial" font-size="12">55</text>
<rect width="7" height="520" x="452" y="40" style="fill:rgb(230,230,230);stroke:none"/>
<rect width="7" height="520" x="466" y="40" style="fill:rgb(230,230,230);stroke:none"/>
<text x="461" y="575" fill="rgb(0,0,0)" font-family="Arial" font-size="12">59</text>
<rect width="7" height="520" x="480" y="40" style="fill:rgb(230,230,230);stroke:none"/>
<rect width="7" height="520" x="494" y="40" style="fill:rgb(230,230,230);stroke:none"/>
<text x="489" y="575" fill="rgb(0,0,0)" font-family="Arial" font-size="12">63</text>
<rect width="7" height="520" x="508" y="40" style="fill:rgb(230,230,230);stroke:none"/>
<rect width="7" height="520" x="522" y="40" style="fill:rgb(230,230,230);stroke:none"/>
<text x="517" y="575" fill="rgb(0,0,0)" font-family="Arial" font-size="12">67</text>
<rect width="7" height="520" x="536" y="40" style="fill:rgb(230,230,230);stroke:none"/>
<rect width="7" height="520" x="550" y="40" style="fill:rgb(230,230,230);stroke:none"/>
<text x="545" y="575" fill="rgb(0,0,0)" font-family="Arial" font-size="12">71</text>
<rect width="7" height="520" x="564" y="40" style="fill:rgb(230,230,230);stroke:none"/>
<rect width="7" height="520" x="578" y="40" style="fill:rgb(230,230,230);stroke:none"/>
<text x="573" y="575" fill="rgb(0,0,0)" font-family="Arial" font-size="12">75</text>
<rect width="7" height="520" x="592" y="40" style="fill:rgb(230,230,230);stroke:none"/>
<rect width="7" height="520" x="606" y="40" style="fill:rgb(230,230,230);stroke:none"/>
<text x="601" y="575" fill="rgb(0,0,0)" font-family="Arial" font-size="12">79</text>
<rect width="7" height="520" x="620" y="40" style="fill:rgb(230,230,230);stroke:none"/>
<rect width="7" height="520" x="634" y="40" style="fill:rgb(230,230,230);stroke:none"/>
<text x="629" y="575" fill="rgb(0,0,0)" font-family="Arial" font-size="12">83</text>
<rect width="7" height="520" x="648" y="40" style="fill:rgb(230,230,230);stroke:none"/>
<rect width="7" height="520" x="662" y="40" style="fill:rgb(230,230,230);stroke:none"/>
<text x="657" y="575" fill="rgb(0,0,0)" font-family="Arial" font-size="12">87</text>
<rect width="7" height="520" x="676" y="40" style="fill:rgb(230,230,230);stroke:none"/>
<rect width="7" height="520" x="690" y="40" style="fill:rgb(230,230,230);stroke:none"/>
<text x="685" y="575" fill="rgb(0,0,0)" font-family="Arial" font-size="12">91</text>
<rect width="7" height="520" x="704" y="40" style="fill:rgb(230,230,230);stroke:none"/>
<rect width="7" height="520" x="718" y="40" style="fill:rgb(230,230,230);stroke:none"/>
<text x="713" y="575" fill="rgb(0,0,0)" font-family="Arial" font-size="12">95</text>
<rect width="7" height="520" x="732" y="40" style="fill:rgb(230,230,230);stroke:none"/>
<rect width="7" height="520" x="746" y="40" style="fill:rgb(230,230,230);stroke:none"/>
<text x="741" y="575" fill="rgb(0,0,0)" font-family="Arial" font-size="12">99</text>
<line x1="53" y1="560" x2="790" y2="560" stroke="rgb(180,180,180)" stroke-width="1"/>
<line x1="53" y1="508" x2="790" y2="508" stroke="rgb(180,180,180)" stroke-width="1"/>
<line x1="53" y1="456" x2="790" y2="456" stroke="rgb(180,180,180)" stroke-width="1"/>
<line x1="53" y1="404" x2="790" y2="404" stroke="rgb(180,180,180)" stroke-width="1"/>
<line x1="53" y1="351" x2="790" y2="351" stroke="rgb(180,180,180)" stroke-width="1"/>
<line x1="53" y1="299" x2="790" y2="299" stroke="rgb(180,180,180)" stroke-width="1"/>
<line x1="53" y1="247" x2="790" y2="247" stroke="rgb(180,180,180)" stroke-width="1"/>
<line x1="53" y1="195" x2="790" y2="195" stroke="rgb(180,180,180)" stroke-width="1"/>
<line x1="53" y1="142" x2="790" y2="142" stroke="rgb(180,180,180)" stroke-width="1"/>
<line x1="53" y1="90" x2="790" y2="90" stroke="rgb(180,180,180)" stroke-width="1"/>
<line x1="56" y1="551" x2="63" y2="550" stroke="rgb(136,34,85)" stroke-width="1"/>
<line x1="63" y1="550" x2="70" y2="550" stroke="rgb(136,34,85)" stroke-width="1"/>
<line x1="70" y1="550" x2="77" y2="550" stroke="rgb(136,34,85)" stroke-width="1"/>
<line x1="77" y1="550" x2="84" y2="550" stroke="rgb(136,34,85)" stroke-width="1"/>
<line x1="84" y1="550" x2="91" y2="552" stroke="rgb(136,34,85)" stroke-width="1"/>
<line x1="91" y1="552" x2="98" y2="556" stroke="rgb(136,34,85)" stroke-width="1"/>
<line x1="98" y1="556" x2="105" y2="558" stroke="rgb(136,34,85)" stroke-width="1"/>
<line x1="105" y1="558" x2="112" y2="559" stroke="rgb(136,34,85)" stroke-width="1"/>
<line x1="112" y1="559" x2="119" y2="559" stroke="rgb(136,34,85)" stroke-width="1"/>
<line x1="119" y1="559" x2="126" y2="559" stroke="rgb(136,34,85)" stroke-width="1"/>
<line x1="126" y1="559" x2="133" y2="559" stroke="rgb(136,34,85)" stroke-width="1"/>
<line x1="133" y1="559" x2="140" y2="560" stroke="rgb(136,34,85)" stroke-width="1"/>
<line x1="140" y1="560" x2="147" y2="560" stroke="rgb(136,34,85)" stroke-width="1"/>
<line x1="147" y1="560" x2="154" y2="560" stroke="rgb(136,34,85)" stroke-width="1"/>
<line x1="154" y1="560" x2="161" y2="559" stroke="rgb(136,34,85)" stroke-width="1"/>
<line x1="161" y1="559" x2="168" y2="559" stroke="rgb(136,34,85)" stroke-width="1"/>
<line x1="168" y1="559" x2="175" y2="558" stroke="rgb(136,34,85)" stroke-width="1"/>
<line x1="175" y1="558" x2="182" y2="557" stroke="rgb(136,34,85)" stroke-width="1"/>
<line x1="182" y1="557" x2="189" y2="555" stroke="rgb(136,34,85)" stroke-width="1"/>
<line x1="189" y1="555" x2="196" y2="554" stroke="rgb(136,34,85)" stroke-width="1"/>
<line x1="196" y1="554" x2="203" y2="551" stroke="rgb(136,34,85)" stroke-width="1"/>
<line x1="203" y1="551" x2="210" y2="548" stroke="rgb(136,34,85)" stroke-width="1"/>
<line x1="210" y1="548" x2="217" y2="543" stroke="rgb(136,34,85)" stroke-width="1"/>
<line x1="217" y1="543" x2="224" y2="539" stroke="rgb(136,34,85)" stroke-width="1"/>
<line x1="224" y1="539" x2="231" y2="534" stroke="rgb(136,34,85)" stroke-width="1"/>
<line x1="231" y1="534" x2="238" y2="528" stroke="rgb(136,34,85)" stroke-width="1"/>
<line x1="238" y1="528" x2="245" y2="521" stroke="rgb(136,34,85)" stroke-width="1"/>
<line x1="245" y1="521" x2="252" y2="514" stroke="rgb(136,34,85)" stroke-width="1"/>
<line x1="252" y1="514" x2="259" y2="506" stroke="rgb(136,34,85)" stroke-width="1"/>
<line x1="259" y1="506" x2="266" y2="497" stroke="rgb(136,34,85)" stroke-width="1"/>
<line x1="266" y1="497" x2="273" y2="488" stroke="rgb(136,34,85)" stroke-width="1"/>
<line x1="273" y1="488" x2="280" y2="480" stroke="rgb(136,34,85)" stroke-width="1"/>
<line x1="280" y1="480" x2="287" y2="473" stroke="rgb(136,34,85)" stroke-width="1"/>
<line x1="287" y1="473" x2="294" y2="463" stroke="rgb(136,34,85)" stroke-width="1"/>
<line x1="294" y1="463" x2="301" y2="451" stroke="rgb(136,34,85)" stroke-width="1"/>
<line x1="301" y1="451" x2="308" y2="445" stroke="rgb(136,34,85)" stroke-width="1"/>
<line x1="308" y1="445" x2="315" y2="444" stroke="rgb(136,34,85)" stroke-width="1"/>
<line x1="315" y1="444" x2="322" y2="441" stroke="rgb(136,34,85)" stroke-width="1"/>
<line x1="322" y1="441" x2="329" y2="439" stroke="rgb(136,34,85)" stroke-width="1"/>
<line x1="329" y1="439" x2="336" y2="437" stroke="rgb(136,34,85)" stroke-width="1"/>
<line x1="336" y1="437" x2="343" y2="433" stroke="rgb(136,34,85)" stroke-width="1"/>
<line x1="343" y1="433" x2="350" y2="432" stroke="rgb(136,34,85)" stroke-width="1"/>
<line x1="350" y1="432" x2="357" y2="437" stroke="rgb(136,34,85)" stroke-width="1"/>
<line x1="357" y1="437" x2="364" y2="443" stroke="rgb(136,34,85)" stroke-width="1"/>
<line x1="364" y1="443" x2="371" y2="447" stroke="rgb(136,34,85)" stroke-width="1"/>
<line x1="371" y1="447" x2="378" y2="448" stroke="rgb(136,34,85)" stroke-width="1"/>
<line x1="378" y1="448" x2="385" y2="446" stroke="rgb(136,34,85)" stroke-width="1"/>
<line x1="385" y1="446" x2="392" y2="436" stroke="rgb(136,34,85)" stroke-width="1"/>
<line x1="392" y1="436" x2="399" y2="431" stroke="rgb(136,34,85)" stroke-width="1"/>
<line x1="399" y1="431" x2="406" y2="438" stroke="rgb(136,34,85)" stroke-width="1"/>
<line x1="406" y1="438" x2="413" y2="440" stroke="rgb(136,34,85)" stroke-width="1"/>
<line x1="413" y1="440" x2="420" y2="426" stroke="rgb(136,34,85)" stroke-width="1"/>
<line x1="420" y1="426" x2="427" y2="402" stroke="rgb(136,34,85)" stroke-width="1"/>
<line x1="427" y1="402" x2="434" y2="360" stroke="rgb(136,34,85)" stroke-width="1"/>
<line x1="434" y1="360" x2="441" y2="333" stroke="rgb(136,34,85)" stroke-width="1"/>
<line x1="441" y1="333" x2="448" y2="153" stroke="rgb(136,34,85)" stroke-width="1"/>
<line x1="448" y1="153" x2="455" y2="40" stroke="rgb(136,34,85)" stroke-width="1"/>
<line x1="455" y1="40" x2="462" y2="235" stroke="rgb(136,34,85)" stroke-width="1"/>
<line x1="462" y1="235" x2="469" y2="356" stroke="rgb(136,34,85)" stroke-width="1"/>
<line x1="469" y1="356" x2="476" y2="356" stroke="rgb(136,34,85)" stroke-width="1"/>
<line x1="476" y1="356" x2="483" y2="307" stroke="rgb(136,34,85)" stroke-width="1"/>
<line x1="483" y1="307" x2="490" y2="253" stroke="rgb(136,34,85)" stroke-width="1"/>
<line x1="490" y1="253" x2="497" y2="228" stroke="rgb(136,34,85)" stroke-width="1"/>
<line x1="497" y1="228" x2="504" y2="208" stroke="rgb(136,34,85)" stroke-width="1"/>
<line x1="504" y1="208" x2="511" y2="266" stroke="rgb(136,34,85)" stroke-width="1"/>
<line x1="511" y1="266" x2="518" y2="320" stroke="rgb(136,34,85)" stroke-width="1"/>
<line x1="518" y1="320" x2="525" y2="309" stroke="rgb(136,34,85)" stroke-width="1"/>
<line x1="525" y1="309" x2="532" y2="294" stroke="rgb(136,34,85)" stroke-width="1"/>
<line x1="532" y1="294" x2="539" y2="264" stroke="rgb(136,34,85)" stroke-width="1"/>
<line x1="539" y1="264" x2="546" y2="297" stroke="rgb(136,34,85)" stroke-width="1"/>
<line x1="546" y1="297" x2="553" y2="352" stroke="rgb(136,34,85)" stroke-width="1"/>
<line x1="553" y1="352" x2="560" y2="411" stroke="rgb(136,34,85)" stroke-width="1"/>
<line x1="560" y1="411" x2="567" y2="478" stroke="rgb(136,34,85)" stroke-width="1"/>
<line x1="567" y1="478" x2="574" y2="488" stroke="rgb(136,34,85)" stroke-width="1"/>
<line x1="574" y1="488" x2="581" y2="497" stroke="rgb(136,34,85)" stroke-width="1"/>
<line x1="581" y1="497" x2="588" y2="510" stroke="rgb(136,34,85)" stroke-width="1"/>
<line x1="588" y1="510" x2="595" y2="526" stroke="rgb(136,34,85)" stroke-width="1"/>
<line x1="595" y1="526" x2="602" y2="536" stroke="rgb(136,34,85)" stroke-width="1"/>
<line x1="602" y1="536" x2="609" y2="542" stroke="rgb(136,34,85)" stroke-width="1"/>
<line x1="609" y1="542" x2="616" y2="545" stroke="rgb(136,34,85)" stroke-width="1"/>
<line x1="616" y1="545" x2="623" y2="546" stroke="rgb(136,34,85)" stroke-width="1"/>
<line x1="623" y1="546" x2="630" y2="548" stroke="rgb(136,34,85)" stroke-width="1"/>
<line x1="630" y1="548" x2="637" y2="551" stroke="rgb(136,34,85)" stroke-width="1"/>
<line x1="637" y1="551" x2="644" y2="552" stroke="rgb(136,34,85)" stroke-width="1"/>
<line x1="644" y1="552" x2="651" y2="552" stroke="rgb(136,34,85)" stroke-width="1"/>
<line x1="651" y1="552" x2="658" y2="546" stroke="rgb(136,34,85)" stroke-width="1"/>
<line x1="658" y1="546" x2="665" y2="547" stroke="rgb(136,34,85)" stroke-width="1"/>
<line x1="665" y1="547" x2="672" y2="551" stroke="rgb(136,34,85)" stroke-width="1"/>
<line x1="672" y1="551" x2="679" y2="551" stroke="rgb(136,34,85)" stroke-width="1"/>
<line x1="679" y1="551" x2="686" y2="552" stroke="rgb(136,34,85)" stroke-width="1"/>
<line x1="686" y1="552" x2="693" y2="555" stroke="rgb(136,34,85)" stroke-width="1"/>
<line x1="693" y1="555" x2="700" y2="557" stroke="rgb(136,34,85)" stroke-width="1"/>
<line x1="700" y1="557" x2="707" y2="558" stroke="rgb(136,34,85)" stroke-width="1"/>
<line x1="707" y1="558" x2="714" y2="558" stroke="rgb(136,34,85)" stroke-width="1"/>
<line x1="714" y1="558" x2="721" y2="558" stroke="rgb(136,34,85)" stroke-width="1"/>
<line x1="721" y1="558" x2="728" y2="559" stroke="rgb(136,34,85)" stroke-width="1"/>
<line x1="728" y1="559" x2="735" y2="560" stroke="rgb(136,34,85)" stroke-width="1"/>
<line x1="735" y1="560" x2="742" y2="560" stroke="rgb(136,34,85)" stroke-width="1"/>
<line x1="742" y1="560" x2="749" y2="560" stroke="rgb(136,34,85)" stroke-width="1"/>
<line x1="749" y1="560" x2="756" y2="560" stroke="rgb(136,34,85)" stroke-width="1"/>
<line x1="56" y1="560" x2="63" y2="560" stroke="rgb(51,34,136)" stroke-width="1"/>
<line x1="63" y1="560" x2="70" y2="560" stroke="rgb(51,34,136)" stroke-width="1"/>
<line x1="70" y1="560" x2="77" y2="560" stroke="rgb(51,34,136)" stroke-width="1"/>
<line x1="77" y1="560" x2="84" y2="560" stroke="rgb(51,34,136)" stroke-width="1"/>
<line x1="84" y1="560" x2="91" y2="560" stroke="rgb(51,34,136)" stroke-width="1"/>
<line x1="91" y1="560" x2="98" y2="560" stroke="rgb(51,34,136)" stroke-width="1"/>
<line x1="98" y1="560" x2="105" y2="560" stroke="rgb(51,34,136)" stroke-width="1"/>
<line x1="105" y1="560" x2="112" y2="560" stroke="rgb(51,34,136)" stroke-width="1"/>
<line x1="112" y1="560" x2="119" y2="560" stroke="rgb(51,34,136)" stroke-width="1"/>
<line x1="119" y1="560" x2="126" y2="560" stroke="rgb(51,34,136)" stroke-width="1"/>
<line x1="126" y1="560" x2="133" y2="559" stroke="rgb(51,34,136)" stroke-width="1"/>
<line x1="133" y1="559" x2="140" y2="559" stroke="rgb(51,34,136)" stroke-width="1"/>
<line x1="140" y1="559" x2="147" y2="559" stroke="rgb(51,34,136)" stroke-width="1"/>
<line x1="147" y1="559" x2="154" y2="558" stroke="rgb(51,34,136)" stroke-width="1"/>
<line x1="154" y1="558" x2="161" y2="558" stroke="rgb(51,34,136)" stroke-width="1"/>
<line x1="161" y1="558" x2="168" y2="557" stroke="rgb(51,34,136)" stroke-width="1"/>
<line x1="168" y1="557" x2="175" y2="556" stroke="rgb(51,34,136)" stroke-width="1"/>
<line x1="175" y1="556" x2="182" y2="555" stroke="rgb(51,34,136)" stroke-width="1"/>
<line x1="182" y1="555" x2="189" y2="554" stroke="rgb(51,34,136)" stroke-width="1"/>
<line x1="189" y1="554" x2="196" y2="553" stroke="rgb(51,34,136)" stroke-width="1"/>
<line x1="196" y1="553" x2="203" y2="551" stroke="rgb(51,34,136)" stroke-width="1"/>
<line x1="203" y1="551" x2="210" y2="550" stroke="rgb(51,34,136)" stroke-width="1"/>
<line x1="210" y1="550" x2="217" y2="547" stroke="rgb(51,34,136)" stroke-width="1"/>
<line x1="217" y1="547" x2="224" y2="545" stroke="rgb(51,34,136)" stroke-width="1"/>
<line x1="224" y1="545" x2="231" y2="542" stroke="rgb(51,34,136)" stroke-width="1"/>
<line x1="231" y1="542" x2="238" y2="539" stroke="rgb(51,34,136)" stroke-width="1"/>
<line x1="238" y1="539" x2="245" y2="535" stroke="rgb(51,34,136)" stroke-width="1"/>
<line x1="245" y1="535" x2="252" y2="531" stroke="rgb(51,34,136)" stroke-width="1"/>
<line x1="252" y1="531" x2="259" y2="527" stroke="rgb(51,34,136)" stroke-width="1"/>
<line x1="259" y1="527" x2="266" y2="521" stroke="rgb(51,34,136)" stroke-width="1"/>
<line x1="266" y1="521" x2="273" y2="516" stroke="rgb(51,34,136)" stroke-width="1"/>
<line x1="273" y1="516" x2="280" y2="509" stroke="rgb(51,34,136)" stroke-width="1"/>
<line x1="280" y1="509" x2="287" y2="503" stroke="rgb(51,34,136)" stroke-width="1"/>
<line x1="287" y1="503" x2="294" y2="495" stroke="rgb(51,34,136)" stroke-width="1"/>
<line x1="294" y1="495" x2="301" y2="487" stroke="rgb(51,34,136)" stroke-width="1"/>
<line x1="301" y1="487" x2="308" y2="479" stroke="rgb(51,34,136)" stroke-width="1"/>
<line x1="308" y1="479" x2="315" y2="470" stroke="rgb(51,34,136)" stroke-width="1"/>
<line x1="315" y1="470" x2="322" y2="460" stroke="rgb(51,34,136)" stroke-width="1"/>
<line x1="322" y1="460" x2="329" y2="450" stroke="rgb(51,34,136)" stroke-width="1"/>
<line x1="329" y1="450" x2="336" y2="440" stroke="rgb(51,34,136)" stroke-width="1"/>
<line x1="336" y1="440" x2="343" y2="429" stroke="rgb(51,34,136)" stroke-width="1"/>
<line x1="343" y1="429" x2="350" y2="418" stroke="rgb(51,34,136)" stroke-width="1"/>
<line x1="350" y1="418" x2="357" y2="407" stroke="rgb(51,34,136)" stroke-width="1"/>
<line x1="357" y1="407" x2="364" y2="396" stroke="rgb(51,34,136)" stroke-width="1"/>
<line x1="364" y1="396" x2="371" y2="385" stroke="rgb(51,34,136)" stroke-width="1"/>
<line x1="371" y1="385" x2="378" y2="374" stroke="rgb(51,34,136)" stroke-width="1"/>
<line x1="378" y1="374" x2="385" y2="364" stroke="rgb(51,34,136)" stroke-width="1"/>
<line x1="385" y1="364" x2="392" y2="354" stroke="rgb(51,34,136)" stroke-width="1"/>
<line x1="392" y1="354" x2="399" y2="345" stroke="rgb(51,34,136)" stroke-width="1"/>
<line x1="399" y1="345" x2="406" y2="336" stroke="rgb(51,34,136)" stroke-width="1"/>
<line x1="406" y1="336" x2="413" y2="329" stroke="rgb(51,34,136)" stroke-width="1"/>
<line x1="413" y1="329" x2="420" y2="322" stroke="rgb(51,34,136)" stroke-width="1"/>
<line x1="420" y1="322" x2="427" y2="317" stroke="rgb(51,34,136)" stroke-width="1"/>
<line x1="427" y1="317" x2="434" y2="312" stroke="rgb(51,34,136)" stroke-width="1"/>
<line x1="434" y1="312" x2="441" y2="309" stroke="rgb(51,34,136)" stroke-width="1"/>
<line x1="441" y1="309" x2="448" y2="307" stroke="rgb(51,34,136)" stroke-width="1"/>
<line x1="448" y1="307" x2="455" y2="306" stroke="rgb(51,34,136)" stroke-width="1"/>
<line x1="455" y1="306" x2="462" y2="307" stroke="rgb(51,34,136)" stroke-width="1"/>
<line x1="462" y1="307" x2="469" y2="309" stroke="rgb(51,34,136)" stroke-width="1"/>
<line x1="469" y1="309" x2="476" y2="312" stroke="rgb(51,34,136)" stroke-width="1"/>
<line x1="476" y1="312" x2="483" y2="317" stroke="rgb(51,34,136)" stroke-width="1"/>
<line x1="483" y1="317" x2="490" y2="322" stroke="rgb(51,34,136)" stroke-width="1"/>
<line x1="490" y1="322" x2="497" y2="329" stroke="rgb(51,34,136)" stroke-width="1"/>
<line x1="497" y1="329" x2="504" y2="336" stroke="rgb(51,34,136)" stroke-width="1"/>
<line x1="504" y1="336" x2="511" y2="345" stroke="rgb(51,34,136)" stroke-width="1"/>
<line x1="511" y1="345" x2="518" y2="354" stroke="rgb(51,34,136)" stroke-width="1"/>
<line x1="518" y1="354" x2="525" y2="364" stroke="rgb(51,34,136)" stroke-width="1"/>
<line x1="525" y1="364" x2="532" y2="374" stroke="rgb(51,34,136)" stroke-width="1"/>
<line x1="532" y1="374" x2="539" y2="385" stroke="rgb(51,34,136)" stroke-width="1"/>
<line x1="539" y1="385" x2="546" y2="396" stroke="rgb(51,34,136)" stroke-width="1"/>
<line x1="546" y1="396" x2="553" y2="407" stroke="rgb(51,34,136)" stroke-width="1"/>
<line x1="553" y1="407" x2="560" y2="418" stroke="rgb(51,34,136)" stroke-width="1"/>
<line x1="560" y1="418" x2="567" y2="429" stroke="rgb(51,34,136)" stroke-width="1"/>
<line x1="567" y1="429" x2="574" y2="440" stroke="rgb(51,34,136)" stroke-width="1"/>
<line x1="574" y1="440" x2="581" y2="450" stroke="rgb(51,34,136)" stroke-width="1"/>
<line x1="581" y1="450" x2="588" y2="460" stroke="rgb(51,34,136)" stroke-width="1"/>
<line x1="588" y1="460" x2="595" y2="470" stroke="rgb(51,34,136)" stroke-width="1"/>
<line x1="595" y1="470" x2="602" y2="479" stroke="rgb(51,34,136)" stroke-width="1"/>
<line x1="602" y1="479" x2="609" y2="487" stroke="rgb(51,34,136)" stroke-width="1"/>
<line x1="609" y1="487" x2="616" y2="495" stroke="rgb(51,34,136)" stroke-width="1"/>
<line x1="616" y1="495" x2="623" y2="503" stroke="rgb(51,34,136)" stroke-width="1"/>
<line x1="623" y1="503" x2="630" y2="509" stroke="rgb(51,34,136)" stroke-width="1"/>
<line x1="630" y1="509" x2="637" y2="516" stroke="rgb(51,34,136)" stroke-width="1"/>
<line x1="637" y1="516" x2="644" y2="521" stroke="rgb(51,34,136)" stroke-width="1"/>
<line x1="644" y1="521" x2="651" y2="527" stroke="rgb(51,34,136)" stroke-width="1"/>
<line x1="651" y1="527" x2="658" y2="531" stroke="rgb(51,34,136)" stroke-width="1"/>
<line x1="658" y1="531" x2="665" y2="535" stroke="rgb(51,34,136)" stroke-width="1"/>
<line x1="665" y1="535" x2="672" y2="539" stroke="rgb(51,34,136)" stroke-width="1"/>
<line x1="672" y1="539" x2="679" y2="542" stroke="rgb(51,34,136)" stroke-width="1"/>
<line x1="679" y1="542" x2="686" y2="545" stroke="rgb(51,34,136)" stroke-width="1"/>
<line x1="686" y1="545" x2="693" y2="547" stroke="rgb(51,34,136)" stroke-width="1"/>
<line x1="693" y1="547" x2="700" y2="550" stroke="rgb(51,34,136)" stroke-width="1"/>
<line x1="700" y1="550" x2="707" y2="551" stroke="rgb(51,34,136)" stroke-width="1"/>
<line x1="707" y1="551" x2="714" y2="553" stroke="rgb(51,34,136)" stroke-width="1"/>
<line x1="714" y1="553" x2="721" y2="554" stroke="rgb(51,34,136)" stroke-width="1"/>
<line x1="721" y1="554" x2="728" y2="555" stroke="rgb(51,34,136)" stroke-width="1"/>
<line x1="728" y1="555" x2="735" y2="556" stroke="rgb(51,34,136)" stroke-width="1"/>
<line x1="735" y1="556" x2="742" y2="557" stroke="rgb(51,34,136)" stroke-width="1"/>
<line x1="742" y1="557" x2="749" y2="558" stroke="rgb(51,34,136)" stroke-width="1"/>
<line x1="749" y1="558" x2="756" y2="558" stroke="rgb(51,34,136)" stroke-width="1"/>
<rect width="174" height="43" x="616" y="40" style="fill:rgb(255,255,255);stroke:none"/>
<rect width="174" height="43" x="616" y="40" rx="0" ry="0" style="fill:none;stroke-width:1;stroke:rgb(192,192,192)"/>
<text x="619" y="55" fill="rgb(136,34,85)" font-family="Arial" font-size="12" font-weight="bold">GC count per read</text>
<text x="619" y="75" fill="rgb(51,34,136)" font-family="Arial" font-size="12" font-weight="bold">Theoretical Distribution</text>
</svg>
