<?xml version="1.0" standalone="no"?>
<!DOCTYPE svg PUBLIC "-//W3C//DTD SVG 1.1//EN" "http://www.w3.org/Graphics/SVG/1.1/DTD/svg11.dtd">
<svg width="800" height="600" version="1.1" xmlns="http://www.w3.org/2000/svg">
<rect width="800" height="600" x="0" y="0" style="fill:rgb(238,238,238);stroke:none"/>
<rect width="800" height="600" x="0" y="0" style="fill:rgb(255,255,255);stroke:none"/>
<text x="2" y="566" fill="rgb(0,0,0)" font-family="Arial" font-size="12">0</text>
<text x="2" y="492" fill="rgb(0,0,0)" font-family="Arial" font-size="12">500000</text>
<text x="2" y="418" fill="rgb(0,0,0)" font-family="Arial" font-size="12">1000000</text>
<text x="2" y="344" fill="rgb(0,0,0)" font-family="Arial" font-size="12">1500000</text>
<text x="2" y="270" fill="rgb(0,0,0)" font-family="Arial" font-size="12">2000000</text>
<text x="2" y="196" fill="rgb(0,0,0)" font-family="Arial" font-size="12">2500000</text>
<text x="2" y="122" fill="rgb(0,0,0)" font-family="Arial" font-size="12">3000000</text>
<text x="2" y="47" fill="rgb(0,0,0)" font-family="Arial" font-size="12">3500000</text>
<text x="262" y="30" fill="rgb(0,0,0)" font-family="Arial" font-size="12">Distribution of sequence lengths over all sequences</text>
<line x1="61" y1="560" x2="790" y2="560" stroke="rgb(0,0,0)" stroke-width="1"/>
<line x1="61" y1="560" x2="61" y2="40" stroke="rgb(0,0,0)" stroke-width="1"/>
<text x="330" y="595" fill="rgb(0,0,0)" font-family="Arial" font-size="12">Sequence Length (bp)</text>
<text x="62" y="575" fill="rgb(0,0,0)" font-family="Arial" font-size="12">0-4</text>
<rect width="23" height="520" x="84" y="40" style="fill:rgb(230,230,230);stroke:none"/>
<text x="100" y="575" fill="rgb(0,0,0)" font-family="Arial" font-size="12">10-14</text>
<rect width="23" height="520" x="130" y="40" style="fill:rgb(230,230,230);stroke:none"/>
<text x="146" y="575" fill="rgb(0,0,0)" font-family="Arial" font-size="12">20-24</text>
<rect width="23" height="520" x="176" y="40" style="fill:rgb(230,230,230);stroke:none"/>
<text x="192" y="575" fill="rgb(0,0,0)" font-family="Arial" font-size="12">30-34</text>
<rect width="23" height="520" x="222" y="40" style="fill:rgb(230,230,230);stroke:none"/>
<text x="238" y="575" fill="rgb(0,0,0)" font-family="Arial" font-size="12">40-44</text>
<rect width="23" height="520" x="268" y="40" style="fill:rgb(230,230,230);stroke:none"/>
<text x="284" y="575" fill="rgb(0,0,0)" font-family="Arial" font-size="12">50-54</text>
<rect width="23" height="520" x="314" y="40" style="fill:rgb(230,230,230);stroke:none"/>
<text x="330" y="575" fill="rgb(0,0,0)" font-family="Arial" font-size="12">60-64</text>
<rect width="23" height="520" x="360" y="40" style="fill:rgb(230,230,230);stroke:none"/>
<text x="376" y="575" fill="rgb(0,0,0)" font-family="Arial" font-size="12">70-74</text>
<rect width="23" height="520" x="406" y="40" style="fill:rgb(230,230,230);stroke:none"/>
<text x="422" y="575" fill="rgb(0,0,0)" font-family="Arial" font-size="12">80-84</text>
<rect width="23" height="520" x="452" y="40" style="fill:rgb(230,230,230);stroke:none"/>
<text x="468" y="575" fill="rgb(0,0,0)" font-family="Arial" font-size="12">90-94</text>
<rect width="23" height="520" x="498" y="40" style="fill:rgb(230,230,230);stroke:none"/>
<rect width="23" height="520" x="544" y="40" style="fill:rgb(230,230,230);stroke:none"/>
<text x="529" y="575" fill="rgb(0,0,0)" font-family="Arial" font-size="12">105-109</text>
<rect width="23" height="520" x="590" y="40" style="fill:rgb(230,230,230);stroke:none"/>
<text x="598" y="575" fill="rgb(0,0,0)" font-family="Arial" font-size="12">120-124</text>
<rect width="23" height="520" x="636" y="40" style="fill:rgb(230,230,230);stroke:none"/>
<rect width="23" height="520" x="682" y="40" style="fill:rgb(230,230,230);stroke:none"/>
<text x="667" y="575" fill="rgb(0,0,0)" font-family="Arial" font-size="12">135-139</text>
<rect width="23" height="520" x="728" y="40" style="fill:rgb(230,230,230);stroke:none"/>
<text x="736" y="575" fill="rgb(0,0,0)" font-family="Arial" font-size="12">150-151</text>
<line x1="61" y1="560" x2="790" y2="560" stroke="rgb(180,180,180)" stroke-width="1"/>
<line x1="61" y1="486" x2="790" y2="486" stroke="rgb(180,180,180)" stroke-width="1"/>
<line x1="61" y1="412" x2="790" y2="412" stroke="rgb(180,180,180)" stroke-width="1"/>
<line x1="61" y1="338" x2="790" y2="338" stroke="rgb(180,180,180)" stroke-width="1"/>
<line x1="61" y1="264" x2="790" y2="264" stroke="rgb(180,180,180)" stroke-width="1"/>
<line x1="61" y1="190" x2="790" y2="190" stroke="rgb(180,180,180)" stroke-width="1"/>
<line x1="61" y1="116" x2="790" y2="116" stroke="rgb(180,180,180)" stroke-width="1"/>
<line x1="61" y1="41" x2="790" y2="41" stroke="rgb(180,180,180)" stroke-width="1"/>
<line x1="72" y1="560" x2="95" y2="559" stroke="rgb(136,34,85)" stroke-width="1"/>
<line x1="95" y1="559" x2="118" y2="559" stroke="rgb(136,34,85)" stroke-width="1"/>
<line x1="118" y1="559" x2="141" y2="560" stroke="rgb(136,34,85)" stroke-width="1"/>
<line x1="141" y1="560" x2="164" y2="560" stroke="rgb(136,34,85)" stroke-width="1"/>
<line x1="164" y1="560" x2="187" y2="560" stroke="rgb(136,34,85)" stroke-width="1"/>
<line x1="187" y1="560" x2="210" y2="560" stroke="rgb(136,34,85)" stroke-width="1"/>
<line x1="210" y1="560" x2="233" y2="560" stroke="rgb(136,34,85)" stroke-width="1"/>
<line x1="233" y1="560" x2="256" y2="560" stroke="rgb(136,34,85)" stroke-width="1"/>
<line x1="256" y1="560" x2="279" y2="560" stroke="rgb(136,34,85)" stroke-width="1"/>
<line x1="279" y1="560" x2="302" y2="560" stroke="rgb(136,34,85)" stroke-width="1"/>
<line x1="302" y1="560" x2="325" y2="560" stroke="rgb(136,34,85)" stroke-width="1"/>
<line x1="325" y1="560" x2="348" y2="560" stroke="rgb(136,34,85)" stroke-width="1"/>
<line x1="348" y1="560" x2="371" y2="560" stroke="rgb(136,34,85)" stroke-width="1"/>
<line x1="371" y1="560" x2="394" y2="559" stroke="rgb(136,34,85)" stroke-width="1"/>
<line x1="394" y1="559" x2="417" y2="559" stroke="rgb(136,34,85)" stroke-width="1"/>
<line x1="417" y1="559" x2="440" y2="559" stroke="rgb(136,34,85)" stroke-width="1"/>
<line x1="440" y1="559" x2="463" y2="559" stroke="rgb(136,34,85)" stroke-width="1"/>
<line x1="463" y1="559" x2="486" y2="559" stroke="rgb(136,34,85)" stroke-width="1"/>
<line x1="486" y1="559" x2="509" y2="558" stroke="rgb(136,34,85)" stroke-width="1"/>
<line x1="509" y1="558" x2="532" y2="558" stroke="rgb(136,34,85)" stroke-width="1"/>
<line x1="532" y1="558" x2="555" y2="558" stroke="rgb(136,34,85)" stroke-width="1"/>
<line x1="555" y1="558" x2="578" y2="558" stroke="rgb(136,34,85)" stroke-width="1"/>
<line x1="578" y1="558" x2="601" y2="559" stroke="rgb(136,34,85)" stroke-width="1"/>
<line x1="601" y1="559" x2="624" y2="559" stroke="rgb(136,34,85)" stroke-width="1"/>
<line x1="624" y1="559" x2="647" y2="559" stroke="rgb(136,34,85)" stroke-width="1"/>
<line x1="647" y1="559" x2="670" y2="558" stroke="rgb(136,34,85)" stroke-width="1"/>
<line x1="670" y1="558" x2="693" y2="558" stroke="rgb(136,34,85)" stroke-width="1"/>
<line x1="693" y1="558" x2="716" y2="558" stroke="rgb(136,34,85)" stroke-width="1"/>
<line x1="716" y1="558" x2="739" y2="512" stroke="rgb(136,34,85)" stroke-width="1"/>
<line x1="739" y1="512" x2="762" y2="40" stroke="rgb(136,34,85)" stroke-width="1"/>
<rect width="130" height="23" x="660" y="40" style="fill:rgb(255,255,255);stroke:none"/>
<rect width="130" height="23" x="660" y="40" rx="0" ry="0" style="fill:none;stroke-width:1;stroke:rgb(192,192,192)"/>
<text x="663" y="55" fill="rgb(136,34,85)" font-family="Arial" font-size="12" font-weight="bold">Sequence Length</text>
</svg>
