<?xml version="1.0" standalone="no"?>
<!DOCTYPE svg PUBLIC "-//W3C//DTD SVG 1.1//EN" "http://www.w3.org/Graphics/SVG/1.1/DTD/svg11.dtd">
<svg width="800" height="600" version="1.1" xmlns="http://www.w3.org/2000/svg">
<rect width="800" height="600" x="0" y="0" style="fill:rgb(238,238,238);stroke:none"/>
<rect width="800" height="600" x="0" y="0" style="fill:rgb(255,255,255);stroke:none"/>
<text x="2" y="566" fill="rgb(0,0,0)" font-family="Arial" font-size="12">0</text>
<text x="2" y="514" fill="rgb(0,0,0)" font-family="Arial" font-size="12">10</text>
<text x="2" y="462" fill="rgb(0,0,0)" font-family="Arial" font-size="12">20</text>
<text x="2" y="410" fill="rgb(0,0,0)" font-family="Arial" font-size="12">30</text>
<text x="2" y="358" fill="rgb(0,0,0)" font-family="Arial" font-size="12">40</text>
<text x="2" y="306" fill="rgb(0,0,0)" font-family="Arial" font-size="12">50</text>
<text x="2" y="254" fill="rgb(0,0,0)" font-family="Arial" font-size="12">60</text>
<text x="2" y="202" fill="rgb(0,0,0)" font-family="Arial" font-size="12">70</text>
<text x="2" y="150" fill="rgb(0,0,0)" font-family="Arial" font-size="12">80</text>
<text x="2" y="98" fill="rgb(0,0,0)" font-family="Arial" font-size="12">90</text>
<text x="2" y="46" fill="rgb(0,0,0)" font-family="Arial" font-size="12">100</text>
<text x="335" y="30" fill="rgb(0,0,0)" font-family="Arial" font-size="12">N content across all bases</text>
<line x1="26" y1="560" x2="790" y2="560" stroke="rgb(0,0,0)" stroke-width="1"/>
<line x1="26" y1="560" x2="26" y2="40" stroke="rgb(0,0,0)" stroke-width="1"/>
<text x="345" y="595" fill="rgb(0,0,0)" font-family="Arial" font-size="12">Position in read (bp)</text>
<text x="31" y="575" fill="rgb(0,0,0)" font-family="Arial" font-size="12">1</text>
<rect width="17" height="520" x="43" y="40" style="fill:rgb(230,230,230);stroke:none"/>
<text x="48" y="575" fill="rgb(0,0,0)" font-family="Arial" font-size="12">2</text>
<text x="65" y="575" fill="rgb(0,0,0)" font-family="Arial" font-size="12">3</text>
<rect width="17" height="520" x="77" y="40" style="fill:rgb(230,230,230);stroke:none"/>
<text x="82" y="575" fill="rgb(0,0,0)" font-family="Arial" font-size="12">4</text>
<text x="99" y="575" fill="rgb(0,0,0)" font-family="Arial" font-size="12">5</text>
<rect width="17" height="520" x="111" y="40" style="fill:rgb(230,230,230);stroke:none"/>
<text x="116" y="575" fill="rgb(0,0,0)" font-family="Arial" font-size="12">6</text>
<text x="133" y="575" fill="rgb(0,0,0)" font-family="Arial" font-size="12">7</text>
<rect width="17" height="520" x="145" y="40" style="fill:rgb(230,230,230);stroke:none"/>
<text x="150" y="575" fill="rgb(0,0,0)" font-family="Arial" font-size="12">8</text>
<text x="167" y="575" fill="rgb(0,0,0)" font-family="Arial" font-size="12">9</text>
<rect width="17" height="520" x="179" y="40" style="fill:rgb(230,230,230);stroke:none"/>
<text x="180" y="575" fill="rgb(0,0,0)" font-family="Arial" font-size="12">10</text>
<rect width="17" height="520" x="213" y="40" style="fill:rgb(230,230,230);stroke:none"/>
<text x="214" y="575" fill="rgb(0,0,0)" font-family="Arial" font-size="12">12</text>
<rect width="17" height="520" x="247" y="40" style="fill:rgb(230,230,230);stroke:none"/>
<text x="248" y="575" fill="rgb(0,0,0)" font-family="Arial" font-size="12">14</text>
<rect width="17" height="520" x="281" y="40" style="fill:rgb(230,230,230);stroke:none"/>
<text x="282" y="575" fill="rgb(0,0,0)" font-family="Arial" font-size="12">16</text>
<rect width="17" height="520" x="315" y="40" style="fill:rgb(230,230,230);stroke:none"/>
<text x="316" y="575" fill="rgb(0,0,0)" font-family="Arial" font-size="12">18</text>
<rect width="17" height="520" x="349" y="40" style="fill:rgb(230,230,230);stroke:none"/>
<text x="350" y="575" fill="rgb(0,0,0)" font-family="Arial" font-size="12">20</text>
<rect width="17" height="520" x="383" y="40" style="fill:rgb(230,230,230);stroke:none"/>
<text x="384" y="575" fill="rgb(0,0,0)" font-family="Arial" font-size="12">22</text>
<rect width="17" height="520" x="417" y="40" style="fill:rgb(230,230,230);stroke:none"/>
<text x="418" y="575" fill="rgb(0,0,0)" font-family="Arial" font-size="12">24</text>
<rect width="17" height="520" x="451" y="40" style="fill:rgb(230,230,230);stroke:none"/>
<text x="452" y="575" fill="rgb(0,0,0)" font-family="Arial" font-size="12">26</text>
<rect width="17" height="520" x="485" y="40" style="fill:rgb(230,230,230);stroke:none"/>
<text x="486" y="575" fill="rgb(0,0,0)" font-family="Arial" font-size="12">28</text>
<rect width="17" height="520" x="519" y="40" style="fill:rgb(230,230,230);stroke:none"/>
<text x="520" y="575" fill="rgb(0,0,0)" font-family="Arial" font-size="12">30</text>
<rect width="17" height="520" x="553" y="40" style="fill:rgb(230,230,230);stroke:none"/>
<text x="554" y="575" fill="rgb(0,0,0)" font-family="Arial" font-size="12">32</text>
<rect width="17" height="520" x="587" y="40" style="fill:rgb(230,230,230);stroke:none"/>
<text x="588" y="575" fill="rgb(0,0,0)" font-family="Arial" font-size="12">34</text>
<rect width="17" height="520" x="621" y="40" style="fill:rgb(230,230,230);stroke:none"/>
<text x="622" y="575" fill="rgb(0,0,0)" font-family="Arial" font-size="12">36</text>
<rect width="17" height="520" x="655" y="40" style="fill:rgb(230,230,230);stroke:none"/>
<text x="656" y="575" fill="rgb(0,0,0)" font-family="Arial" font-size="12">38</text>
<rect width="17" height="520" x="689" y="40" style="fill:rgb(230,230,230);stroke:none"/>
<text x="690" y="575" fill="rgb(0,0,0)" font-family="Arial" font-size="12">40</text>
<rect width="17" height="520" x="723" y="40" style="fill:rgb(230,230,230);stroke:none"/>
<text x="724" y="575" fill="rgb(0,0,0)" font-family="Arial" font-size="12">42</text>
<rect width="17" height="520" x="757" y="40" style="fill:rgb(230,230,230);stroke:none"/>
<text x="758" y="575" fill="rgb(0,0,0)" font-family="Arial" font-size="12">44</text>
<line x1="26" y1="560" x2="790" y2="560" stroke="rgb(180,180,180)" stroke-width="1"/>
<line x1="26" y1="508" x2="790" y2="508" stroke="rgb(180,180,180)" stroke-width="1"/>
<line x1="26" y1="456" x2="790" y2="456" stroke="rgb(180,180,180)" stroke-width="1"/>
<line x1="26" y1="404" x2="790" y2="404" stroke="rgb(180,180,180)" stroke-width="1"/>
<line x1="26" y1="352" x2="790" y2="352" stroke="rgb(180,180,180)" stroke-width="1"/>
<line x1="26" y1="300" x2="790" y2="300" stroke="rgb(180,180,180)" stroke-width="1"/>
<line x1="26" y1="248" x2="790" y2="248" stroke="rgb(180,180,180)" stroke-width="1"/>
<line x1="26" y1="196" x2="790" y2="196" stroke="rgb(180,180,180)" stroke-width="1"/>
<line x1="26" y1="144" x2="790" y2="144" stroke="rgb(180,180,180)" stroke-width="1"/>
<line x1="26" y1="92" x2="790" y2="92" stroke="rgb(180,180,180)" stroke-width="1"/>
<line x1="26" y1="40" x2="790" y2="40" stroke="rgb(180,180,180)" stroke-width="1"/>
<line x1="34" y1="560" x2="51" y2="560" stroke="rgb(136,34,85)" stroke-width="1"/>
<line x1="51" y1="560" x2="68" y2="560" stroke="rgb(136,34,85)" stroke-width="1"/>
<line x1="68" y1="560" x2="85" y2="560" stroke="rgb(136,34,85)" stroke-width="1"/>
<line x1="85" y1="560" x2="102" y2="560" stroke="rgb(136,34,85)" stroke-width="1"/>
<line x1="102" y1="560" x2="119" y2="560" stroke="rgb(136,34,85)" stroke-width="1"/>
<line x1="119" y1="560" x2="136" y2="560" stroke="rgb(136,34,85)" stroke-width="1"/>
<line x1="136" y1="560" x2="153" y2="560" stroke="rgb(136,34,85)" stroke-width="1"/>
<line x1="153" y1="560" x2="170" y2="560" stroke="rgb(136,34,85)" stroke-width="1"/>
<line x1="170" y1="560" x2="187" y2="560" stroke="rgb(136,34,85)" stroke-width="1"/>
<line x1="187" y1="560" x2="204" y2="560" stroke="rgb(136,34,85)" stroke-width="1"/>
<line x1="204" y1="560" x2="221" y2="560" stroke="rgb(136,34,85)" stroke-width="1"/>
<line x1="221" y1="560" x2="238" y2="560" stroke="rgb(136,34,85)" stroke-width="1"/>
<line x1="238" y1="560" x2="255" y2="560" stroke="rgb(136,34,85)" stroke-width="1"/>
<line x1="255" y1="560" x2="272" y2="560" stroke="rgb(136,34,85)" stroke-width="1"/>
<line x1="272" y1="560" x2="289" y2="560" stroke="rgb(136,34,85)" stroke-width="1"/>
<line x1="289" y1="560" x2="306" y2="560" stroke="rgb(136,34,85)" stroke-width="1"/>
<line x1="306" y1="560" x2="323" y2="560" stroke="rgb(136,34,85)" stroke-width="1"/>
<line x1="323" y1="560" x2="340" y2="560" stroke="rgb(136,34,85)" stroke-width="1"/>
<line x1="340" y1="560" x2="357" y2="560" stroke="rgb(136,34,85)" stroke-width="1"/>
<line x1="357" y1="560" x2="374" y2="560" stroke="rgb(136,34,85)" stroke-width="1"/>
<line x1="374" y1="560" x2="391" y2="560" stroke="rgb(136,34,85)" stroke-width="1"/>
<line x1="391" y1="560" x2="408" y2="560" stroke="rgb(136,34,85)" stroke-width="1"/>
<line x1="408" y1="560" x2="425" y2="560" stroke="rgb(136,34,85)" stroke-width="1"/>
<line x1="425" y1="560" x2="442" y2="560" stroke="rgb(136,34,85)" stroke-width="1"/>
<line x1="442" y1="560" x2="459" y2="560" stroke="rgb(136,34,85)" stroke-width="1"/>
<line x1="459" y1="560" x2="476" y2="560" stroke="rgb(136,34,85)" stroke-width="1"/>
<line x1="476" y1="560" x2="493" y2="560" stroke="rgb(136,34,85)" stroke-width="1"/>
<line x1="493" y1="560" x2="510" y2="560" stroke="rgb(136,34,85)" stroke-width="1"/>
<line x1="510" y1="560" x2="527" y2="560" stroke="rgb(136,34,85)" stroke-width="1"/>
<line x1="527" y1="560" x2="544" y2="560" stroke="rgb(136,34,85)" stroke-width="1"/>
<line x1="544" y1="560" x2="561" y2="560" stroke="rgb(136,34,85)" stroke-width="1"/>
<line x1="561" y1="560" x2="578" y2="560" stroke="rgb(136,34,85)" stroke-width="1"/>
<line x1="578" y1="560" x2="595" y2="560" stroke="rgb(136,34,85)" stroke-width="1"/>
<line x1="595" y1="560" x2="612" y2="560" stroke="rgb(136,34,85)" stroke-width="1"/>
<line x1="612" y1="560" x2="629" y2="560" stroke="rgb(136,34,85)" stroke-width="1"/>
<line x1="629" y1="560" x2="646" y2="560" stroke="rgb(136,34,85)" stroke-width="1"/>
<line x1="646" y1="560" x2="663" y2="560" stroke="rgb(136,34,85)" stroke-width="1"/>
<line x1="663" y1="560" x2="680" y2="560" stroke="rgb(136,34,85)" stroke-width="1"/>
<line x1="680" y1="560" x2="697" y2="560" stroke="rgb(136,34,85)" stroke-width="1"/>
<line x1="697" y1="560" x2="714" y2="560" stroke="rgb(136,34,85)" stroke-width="1"/>
<line x1="714" y1="560" x2="731" y2="560" stroke="rgb(136,34,85)" stroke-width="1"/>
<line x1="731" y1="560" x2="748" y2="560" stroke="rgb(136,34,85)" stroke-width="1"/>
<line x1="748" y1="560" x2="765" y2="560" stroke="rgb(136,34,85)" stroke-width="1"/>
<rect width="27" height="23" x="763" y="40" style="fill:rgb(255,255,255);stroke:none"/>
<rect width="27" height="23" x="763" y="40" rx="0" ry="0" style="fill:none;stroke-width:1;stroke:rgb(192,192,192)"/>
<text x="766" y="55" fill="rgb(136,34,85)" font-family="Arial" font-size="12" font-weight="bold">%N</text>
</svg>
