<?xml version="1.0" standalone="no"?>
<!DOCTYPE svg PUBLIC "-//W3C//DTD SVG 1.1//EN" "http://www.w3.org/Graphics/SVG/1.1/DTD/svg11.dtd">
<svg width="800" height="600" version="1.1" xmlns="http://www.w3.org/2000/svg">
<rect width="800" height="600" x="0" y="0" style="fill:rgb(238,238,238);stroke:none"/>
<rect width="800" height="600" x="0" y="0" style="fill:rgb(255,255,255);stroke:none"/>
<text x="2" y="566" fill="rgb(0,0,0)" font-family="Arial" font-size="12">0</text>
<text x="2" y="512" fill="rgb(0,0,0)" font-family="Arial" font-size="12">500000</text>
<text x="2" y="458" fill="rgb(0,0,0)" font-family="Arial" font-size="12">1000000</text>
<text x="2" y="404" fill="rgb(0,0,0)" font-family="Arial" font-size="12">1500000</text>
<text x="2" y="350" fill="rgb(0,0,0)" font-family="Arial" font-size="12">2000000</text>
<text x="2" y="296" fill="rgb(0,0,0)" font-family="Arial" font-size="12">2500000</text>
<text x="2" y="241" fill="rgb(0,0,0)" font-family="Arial" font-size="12">3000000</text>
<text x="2" y="187" fill="rgb(0,0,0)" font-family="Arial" font-size="12">3500000</text>
<text x="2" y="133" fill="rgb(0,0,0)" font-family="Arial" font-size="12">4000000</text>
<text x="2" y="79" fill="rgb(0,0,0)" font-family="Arial" font-size="12">4500000</text>
<text x="279" y="30" fill="rgb(0,0,0)" font-family="Arial" font-size="12">Distribution of sequence lengths over all sequences</text>
<line x1="54" y1="560" x2="790" y2="560" stroke="rgb(0,0,0)" stroke-width="1"/>
<line x1="54" y1="560" x2="54" y2="40" stroke="rgb(0,0,0)" stroke-width="1"/>
<text x="340" y="595" fill="rgb(0,0,0)" font-family="Arial" font-size="12">Sequence Length (bp)</text>
<text x="59" y="575" fill="rgb(0,0,0)" font-family="Arial" font-size="12">17</text>
<rect width="25" height="520" x="79" y="40" style="fill:rgb(230,230,230);stroke:none"/>
<text x="84" y="575" fill="rgb(0,0,0)" font-family="Arial" font-size="12">18</text>
<text x="109" y="575" fill="rgb(0,0,0)" font-family="Arial" font-size="12">19</text>
<rect width="25" height="520" x="129" y="40" style="fill:rgb(230,230,230);stroke:none"/>
<text x="134" y="575" fill="rgb(0,0,0)" font-family="Arial" font-size="12">20</text>
<text x="159" y="575" fill="rgb(0,0,0)" font-family="Arial" font-size="12">21</text>
<rect width="25" height="520" x="179" y="40" style="fill:rgb(230,230,230);stroke:none"/>
<text x="184" y="575" fill="rgb(0,0,0)" font-family="Arial" font-size="12">22</text>
<text x="209" y="575" fill="rgb(0,0,0)" font-family="Arial" font-size="12">23</text>
<rect width="25" height="520" x="229" y="40" style="fill:rgb(230,230,230);stroke:none"/>
<text x="234" y="575" fill="rgb(0,0,0)" font-family="Arial" font-size="12">24</text>
<text x="259" y="575" fill="rgb(0,0,0)" font-family="Arial" font-size="12">25</text>
<rect width="25" height="520" x="279" y="40" style="fill:rgb(230,230,230);stroke:none"/>
<text x="284" y="575" fill="rgb(0,0,0)" font-family="Arial" font-size="12">26</text>
<text x="309" y="575" fill="rgb(0,0,0)" font-family="Arial" font-size="12">27</text>
<rect width="25" height="520" x="329" y="40" style="fill:rgb(230,230,230);stroke:none"/>
<text x="334" y="575" fill="rgb(0,0,0)" font-family="Arial" font-size="12">28</text>
<text x="359" y="575" fill="rgb(0,0,0)" font-family="Arial" font-size="12">29</text>
<rect width="25" height="520" x="379" y="40" style="fill:rgb(230,230,230);stroke:none"/>
<text x="384" y="575" fill="rgb(0,0,0)" font-family="Arial" font-size="12">30</text>
<text x="409" y="575" fill="rgb(0,0,0)" font-family="Arial" font-size="12">31</text>
<rect width="25" height="520" x="429" y="40" style="fill:rgb(230,230,230);stroke:none"/>
<text x="434" y="575" fill="rgb(0,0,0)" font-family="Arial" font-size="12">32</text>
<text x="459" y="575" fill="rgb(0,0,0)" font-family="Arial" font-size="12">33</text>
<rect width="25" height="520" x="479" y="40" style="fill:rgb(230,230,230);stroke:none"/>
<text x="484" y="575" fill="rgb(0,0,0)" font-family="Arial" font-size="12">34</text>
<text x="509" y="575" fill="rgb(0,0,0)" font-family="Arial" font-size="12">35</text>
<rect width="25" height="520" x="529" y="40" style="fill:rgb(230,230,230);stroke:none"/>
<text x="534" y="575" fill="rgb(0,0,0)" font-family="Arial" font-size="12">36</text>
<text x="559" y="575" fill="rgb(0,0,0)" font-family="Arial" font-size="12">37</text>
<rect width="25" height="520" x="579" y="40" style="fill:rgb(230,230,230);stroke:none"/>
<text x="584" y="575" fill="rgb(0,0,0)" font-family="Arial" font-size="12">38</text>
<text x="609" y="575" fill="rgb(0,0,0)" font-family="Arial" font-size="12">39</text>
<rect width="25" height="520" x="629" y="40" style="fill:rgb(230,230,230);stroke:none"/>
<text x="634" y="575" fill="rgb(0,0,0)" font-family="Arial" font-size="12">40</text>
<text x="659" y="575" fill="rgb(0,0,0)" font-family="Arial" font-size="12">41</text>
<rect width="25" height="520" x="679" y="40" style="fill:rgb(230,230,230);stroke:none"/>
<text x="684" y="575" fill="rgb(0,0,0)" font-family="Arial" font-size="12">42</text>
<text x="709" y="575" fill="rgb(0,0,0)" font-family="Arial" font-size="12">43</text>
<rect width="25" height="520" x="729" y="40" style="fill:rgb(230,230,230);stroke:none"/>
<text x="734" y="575" fill="rgb(0,0,0)" font-family="Arial" font-size="12">44</text>
<text x="759" y="575" fill="rgb(0,0,0)" font-family="Arial" font-size="12">45</text>
<line x1="54" y1="560" x2="790" y2="560" stroke="rgb(180,180,180)" stroke-width="1"/>
<line x1="54" y1="506" x2="790" y2="506" stroke="rgb(180,180,180)" stroke-width="1"/>
<line x1="54" y1="452" x2="790" y2="452" stroke="rgb(180,180,180)" stroke-width="1"/>
<line x1="54" y1="398" x2="790" y2="398" stroke="rgb(180,180,180)" stroke-width="1"/>
<line x1="54" y1="344" x2="790" y2="344" stroke="rgb(180,180,180)" stroke-width="1"/>
<line x1="54" y1="290" x2="790" y2="290" stroke="rgb(180,180,180)" stroke-width="1"/>
<line x1="54" y1="235" x2="790" y2="235" stroke="rgb(180,180,180)" stroke-width="1"/>
<line x1="54" y1="181" x2="790" y2="181" stroke="rgb(180,180,180)" stroke-width="1"/>
<line x1="54" y1="127" x2="790" y2="127" stroke="rgb(180,180,180)" stroke-width="1"/>
<line x1="54" y1="73" x2="790" y2="73" stroke="rgb(180,180,180)" stroke-width="1"/>
<line x1="66" y1="560" x2="91" y2="532" stroke="rgb(136,34,85)" stroke-width="1"/>
<line x1="91" y1="532" x2="116" y2="527" stroke="rgb(136,34,85)" stroke-width="1"/>
<line x1="116" y1="527" x2="141" y2="507" stroke="rgb(136,34,85)" stroke-width="1"/>
<line x1="141" y1="507" x2="166" y2="488" stroke="rgb(136,34,85)" stroke-width="1"/>
<line x1="166" y1="488" x2="191" y2="427" stroke="rgb(136,34,85)" stroke-width="1"/>
<line x1="191" y1="427" x2="216" y2="432" stroke="rgb(136,34,85)" stroke-width="1"/>
<line x1="216" y1="432" x2="241" y2="444" stroke="rgb(136,34,85)" stroke-width="1"/>
<line x1="241" y1="444" x2="266" y2="432" stroke="rgb(136,34,85)" stroke-width="1"/>
<line x1="266" y1="432" x2="291" y2="424" stroke="rgb(136,34,85)" stroke-width="1"/>
<line x1="291" y1="424" x2="316" y2="322" stroke="rgb(136,34,85)" stroke-width="1"/>
<line x1="316" y1="322" x2="341" y2="40" stroke="rgb(136,34,85)" stroke-width="1"/>
<line x1="341" y1="40" x2="366" y2="141" stroke="rgb(136,34,85)" stroke-width="1"/>
<line x1="366" y1="141" x2="391" y2="383" stroke="rgb(136,34,85)" stroke-width="1"/>
<line x1="391" y1="383" x2="416" y2="447" stroke="rgb(136,34,85)" stroke-width="1"/>
<line x1="416" y1="447" x2="441" y2="469" stroke="rgb(136,34,85)" stroke-width="1"/>
<line x1="441" y1="469" x2="466" y2="492" stroke="rgb(136,34,85)" stroke-width="1"/>
<line x1="466" y1="492" x2="491" y2="495" stroke="rgb(136,34,85)" stroke-width="1"/>
<line x1="491" y1="495" x2="516" y2="517" stroke="rgb(136,34,85)" stroke-width="1"/>
<line x1="516" y1="517" x2="541" y2="514" stroke="rgb(136,34,85)" stroke-width="1"/>
<line x1="541" y1="514" x2="566" y2="526" stroke="rgb(136,34,85)" stroke-width="1"/>
<line x1="566" y1="526" x2="591" y2="531" stroke="rgb(136,34,85)" stroke-width="1"/>
<line x1="591" y1="531" x2="616" y2="542" stroke="rgb(136,34,85)" stroke-width="1"/>
<line x1="616" y1="542" x2="641" y2="547" stroke="rgb(136,34,85)" stroke-width="1"/>
<line x1="641" y1="547" x2="666" y2="552" stroke="rgb(136,34,85)" stroke-width="1"/>
<line x1="666" y1="552" x2="691" y2="554" stroke="rgb(136,34,85)" stroke-width="1"/>
<line x1="691" y1="554" x2="716" y2="551" stroke="rgb(136,34,85)" stroke-width="1"/>
<line x1="716" y1="551" x2="741" y2="558" stroke="rgb(136,34,85)" stroke-width="1"/>
<line x1="741" y1="558" x2="766" y2="560" stroke="rgb(136,34,85)" stroke-width="1"/>
<rect width="110" height="23" x="680" y="40" style="fill:rgb(255,255,255);stroke:none"/>
<rect width="110" height="23" x="680" y="40" rx="0" ry="0" style="fill:none;stroke-width:1;stroke:rgb(192,192,192)"/>
<text x="683" y="55" fill="rgb(136,34,85)" font-family="Arial" font-size="12" font-weight="bold">Sequence Length</text>
</svg>
