<?xml version="1.0" standalone="no"?>
<!DOCTYPE svg PUBLIC "-//W3C//DTD SVG 1.1//EN" "http://www.w3.org/Graphics/SVG/1.1/DTD/svg11.dtd">
<svg width="800" height="600" version="1.1" xmlns="http://www.w3.org/2000/svg">
<rect width="800" height="600" x="0" y="0" style="fill:rgb(238,238,238);stroke:none"/>
<rect width="800" height="600" x="0" y="0" style="fill:rgb(255,255,255);stroke:none"/>
<text x="2" y="566" fill="rgb(0,0,0)" font-family="Arial" font-size="12">0</text>
<text x="2" y="511" fill="rgb(0,0,0)" font-family="Arial" font-size="12">200000</text>
<text x="2" y="456" fill="rgb(0,0,0)" font-family="Arial" font-size="12">400000</text>
<text x="2" y="401" fill="rgb(0,0,0)" font-family="Arial" font-size="12">600000</text>
<text x="2" y="346" fill="rgb(0,0,0)" font-family="Arial" font-size="12">800000</text>
<text x="2" y="291" fill="rgb(0,0,0)" font-family="Arial" font-size="12">1000000</text>
<text x="2" y="236" fill="rgb(0,0,0)" font-family="Arial" font-size="12">1200000</text>
<text x="2" y="181" fill="rgb(0,0,0)" font-family="Arial" font-size="12">1400000</text>
<text x="2" y="126" fill="rgb(0,0,0)" font-family="Arial" font-size="12">1600000</text>
<text x="2" y="71" fill="rgb(0,0,0)" font-family="Arial" font-size="12">1800000</text>
<text x="299" y="30" fill="rgb(0,0,0)" font-family="Arial" font-size="12">Quality score distribution over all sequences</text>
<line x1="54" y1="560" x2="790" y2="560" stroke="rgb(0,0,0)" stroke-width="1"/>
<line x1="54" y1="560" x2="54" y2="40" stroke="rgb(0,0,0)" stroke-width="1"/>
<text x="295" y="595" fill="rgb(0,0,0)" font-family="Arial" font-size="12">Mean Sequence Quality (Phred Score)</text>
<text x="63" y="575" fill="rgb(0,0,0)" font-family="Arial" font-size="12">16</text>
<rect width="33" height="520" x="87" y="40" style="fill:rgb(230,230,230);stroke:none"/>
<text x="96" y="575" fill="rgb(0,0,0)" font-family="Arial" font-size="12">17</text>
<text x="129" y="575" fill="rgb(0,0,0)" font-family="Arial" font-size="12">18</text>
<rect width="33" height="520" x="153" y="40" style="fill:rgb(230,230,230);stroke:none"/>
<text x="162" y="575" fill="rgb(0,0,0)" font-family="Arial" font-size="12">19</text>
<text x="195" y="575" fill="rgb(0,0,0)" font-family="Arial" font-size="12">20</text>
<rect width="33" height="520" x="219" y="40" style="fill:rgb(230,230,230);stroke:none"/>
<text x="228" y="575" fill="rgb(0,0,0)" font-family="Arial" font-size="12">21</text>
<text x="261" y="575" fill="rgb(0,0,0)" font-family="Arial" font-size="12">22</text>
<rect width="33" height="520" x="285" y="40" style="fill:rgb(230,230,230);stroke:none"/>
<text x="294" y="575" fill="rgb(0,0,0)" font-family="Arial" font-size="12">23</text>
<text x="327" y="575" fill="rgb(0,0,0)" font-family="Arial" font-size="12">24</text>
<rect width="33" height="520" x="351" y="40" style="fill:rgb(230,230,230);stroke:none"/>
<text x="360" y="575" fill="rgb(0,0,0)" font-family="Arial" font-size="12">25</text>
<text x="393" y="575" fill="rgb(0,0,0)" font-family="Arial" font-size="12">26</text>
<rect width="33" height="520" x="417" y="40" style="fill:rgb(230,230,230);stroke:none"/>
<text x="426" y="575" fill="rgb(0,0,0)" font-family="Arial" font-size="12">27</text>
<text x="459" y="575" fill="rgb(0,0,0)" font-family="Arial" font-size="12">28</text>
<rect width="33" height="520" x="483" y="40" style="fill:rgb(230,230,230);stroke:none"/>
<text x="492" y="575" fill="rgb(0,0,0)" font-family="Arial" font-size="12">29</text>
<text x="525" y="575" fill="rgb(0,0,0)" font-family="Arial" font-size="12">30</text>
<rect width="33" height="520" x="549" y="40" style="fill:rgb(230,230,230);stroke:none"/>
<text x="558" y="575" fill="rgb(0,0,0)" font-family="Arial" font-size="12">31</text>
<text x="591" y="575" fill="rgb(0,0,0)" font-family="Arial" font-size="12">32</text>
<rect width="33" height="520" x="615" y="40" style="fill:rgb(230,230,230);stroke:none"/>
<text x="624" y="575" fill="rgb(0,0,0)" font-family="Arial" font-size="12">33</text>
<text x="657" y="575" fill="rgb(0,0,0)" font-family="Arial" font-size="12">34</text>
<rect width="33" height="520" x="681" y="40" style="fill:rgb(230,230,230);stroke:none"/>
<text x="690" y="575" fill="rgb(0,0,0)" font-family="Arial" font-size="12">35</text>
<text x="723" y="575" fill="rgb(0,0,0)" font-family="Arial" font-size="12">36</text>
<rect width="33" height="520" x="747" y="40" style="fill:rgb(230,230,230);stroke:none"/>
<text x="756" y="575" fill="rgb(0,0,0)" font-family="Arial" font-size="12">37</text>
<line x1="54" y1="560" x2="790" y2="560" stroke="rgb(180,180,180)" stroke-width="1"/>
<line x1="54" y1="505" x2="790" y2="505" stroke="rgb(180,180,180)" stroke-width="1"/>
<line x1="54" y1="450" x2="790" y2="450" stroke="rgb(180,180,180)" stroke-width="1"/>
<line x1="54" y1="395" x2="790" y2="395" stroke="rgb(180,180,180)" stroke-width="1"/>
<line x1="54" y1="340" x2="790" y2="340" stroke="rgb(180,180,180)" stroke-width="1"/>
<line x1="54" y1="285" x2="790" y2="285" stroke="rgb(180,180,180)" stroke-width="1"/>
<line x1="54" y1="230" x2="790" y2="230" stroke="rgb(180,180,180)" stroke-width="1"/>
<line x1="54" y1="175" x2="790" y2="175" stroke="rgb(180,180,180)" stroke-width="1"/>
<line x1="54" y1="120" x2="790" y2="120" stroke="rgb(180,180,180)" stroke-width="1"/>
<line x1="54" y1="65" x2="790" y2="65" stroke="rgb(180,180,180)" stroke-width="1"/>
<line x1="70" y1="560" x2="103" y2="560" stroke="rgb(136,34,85)" stroke-width="1"/>
<line x1="103" y1="560" x2="136" y2="560" stroke="rgb(136,34,85)" stroke-width="1"/>
<line x1="136" y1="560" x2="169" y2="560" stroke="rgb(136,34,85)" stroke-width="1"/>
<line x1="169" y1="560" x2="202" y2="560" stroke="rgb(136,34,85)" stroke-width="1"/>
<line x1="202" y1="560" x2="235" y2="560" stroke="rgb(136,34,85)" stroke-width="1"/>
<line x1="235" y1="560" x2="268" y2="560" stroke="rgb(136,34,85)" stroke-width="1"/>
<line x1="268" y1="560" x2="301" y2="560" stroke="rgb(136,34,85)" stroke-width="1"/>
<line x1="301" y1="560" x2="334" y2="560" stroke="rgb(136,34,85)" stroke-width="1"/>
<line x1="334" y1="560" x2="367" y2="560" stroke="rgb(136,34,85)" stroke-width="1"/>
<line x1="367" y1="560" x2="400" y2="559" stroke="rgb(136,34,85)" stroke-width="1"/>
<line x1="400" y1="559" x2="433" y2="558" stroke="rgb(136,34,85)" stroke-width="1"/>
<line x1="433" y1="558" x2="466" y2="557" stroke="rgb(136,34,85)" stroke-width="1"/>
<line x1="466" y1="557" x2="499" y2="555" stroke="rgb(136,34,85)" stroke-width="1"/>
<line x1="499" y1="555" x2="532" y2="551" stroke="rgb(136,34,85)" stroke-width="1"/>
<line x1="532" y1="551" x2="565" y2="545" stroke="rgb(136,34,85)" stroke-width="1"/>
<line x1="565" y1="545" x2="598" y2="534" stroke="rgb(136,34,85)" stroke-width="1"/>
<line x1="598" y1="534" x2="631" y2="505" stroke="rgb(136,34,85)" stroke-width="1"/>
<line x1="631" y1="505" x2="664" y2="424" stroke="rgb(136,34,85)" stroke-width="1"/>
<line x1="664" y1="424" x2="697" y2="178" stroke="rgb(136,34,85)" stroke-width="1"/>
<line x1="697" y1="178" x2="730" y2="40" stroke="rgb(136,34,85)" stroke-width="1"/>
<line x1="730" y1="40" x2="763" y2="552" stroke="rgb(136,34,85)" stroke-width="1"/>
<rect width="156" height="23" x="634" y="40" style="fill:rgb(255,255,255);stroke:none"/>
<rect width="156" height="23" x="634" y="40" rx="0" ry="0" style="fill:none;stroke-width:1;stroke:rgb(192,192,192)"/>
<text x="637" y="55" fill="rgb(136,34,85)" font-family="Arial" font-size="12" font-weight="bold">Average Quality per read</text>
</svg>
