<?xml version="1.0" standalone="no"?>
<!DOCTYPE svg PUBLIC "-//W3C//DTD SVG 1.1//EN" "http://www.w3.org/Graphics/SVG/1.1/DTD/svg11.dtd">
<svg width="800" height="600" version="1.1" xmlns="http://www.w3.org/2000/svg">
<rect width="800" height="600" x="0" y="0" style="fill:rgb(238,238,238);stroke:none"/>
<rect width="800" height="600" x="0" y="0" style="fill:rgb(255,255,255);stroke:none"/>
<text x="2" y="566" fill="rgb(0,0,0)" font-family="Arial" font-size="12">0</text>
<text x="2" y="479" fill="rgb(0,0,0)" font-family="Arial" font-size="12">500000</text>
<text x="2" y="391" fill="rgb(0,0,0)" font-family="Arial" font-size="12">1000000</text>
<text x="2" y="303" fill="rgb(0,0,0)" font-family="Arial" font-size="12">1500000</text>
<text x="2" y="215" fill="rgb(0,0,0)" font-family="Arial" font-size="12">2000000</text>
<text x="2" y="127" fill="rgb(0,0,0)" font-family="Arial" font-size="12">2500000</text>
<text x="299" y="30" fill="rgb(0,0,0)" font-family="Arial" font-size="12">Quality score distribution over all sequences</text>
<line x1="54" y1="560" x2="790" y2="560" stroke="rgb(0,0,0)" stroke-width="1"/>
<line x1="54" y1="560" x2="54" y2="40" stroke="rgb(0,0,0)" stroke-width="1"/>
<text x="295" y="595" fill="rgb(0,0,0)" font-family="Arial" font-size="12">Mean Sequence Quality (Phred Score)</text>
<text x="62" y="575" fill="rgb(0,0,0)" font-family="Arial" font-size="12">14</text>
<rect width="30" height="520" x="84" y="40" style="fill:rgb(230,230,230);stroke:none"/>
<text x="92" y="575" fill="rgb(0,0,0)" font-family="Arial" font-size="12">15</text>
<text x="122" y="575" fill="rgb(0,0,0)" font-family="Arial" font-size="12">16</text>
<rect width="30" height="520" x="144" y="40" style="fill:rgb(230,230,230);stroke:none"/>
<text x="152" y="575" fill="rgb(0,0,0)" font-family="Arial" font-size="12">17</text>
<text x="182" y="575" fill="rgb(0,0,0)" font-family="Arial" font-size="12">18</text>
<rect width="30" height="520" x="204" y="40" style="fill:rgb(230,230,230);stroke:none"/>
<text x="212" y="575" fill="rgb(0,0,0)" font-family="Arial" font-size="12">19</text>
<text x="242" y="575" fill="rgb(0,0,0)" font-family="Arial" font-size="12">20</text>
<rect width="30" height="520" x="264" y="40" style="fill:rgb(230,230,230);stroke:none"/>
<text x="272" y="575" fill="rgb(0,0,0)" font-family="Arial" font-size="12">21</text>
<text x="302" y="575" fill="rgb(0,0,0)" font-family="Arial" font-size="12">22</text>
<rect width="30" height="520" x="324" y="40" style="fill:rgb(230,230,230);stroke:none"/>
<text x="332" y="575" fill="rgb(0,0,0)" font-family="Arial" font-size="12">23</text>
<text x="362" y="575" fill="rgb(0,0,0)" font-family="Arial" font-size="12">24</text>
<rect width="30" height="520" x="384" y="40" style="fill:rgb(230,230,230);stroke:none"/>
<text x="392" y="575" fill="rgb(0,0,0)" font-family="Arial" font-size="12">25</text>
<text x="422" y="575" fill="rgb(0,0,0)" font-family="Arial" font-size="12">26</text>
<rect width="30" height="520" x="444" y="40" style="fill:rgb(230,230,230);stroke:none"/>
<text x="452" y="575" fill="rgb(0,0,0)" font-family="Arial" font-size="12">27</text>
<text x="482" y="575" fill="rgb(0,0,0)" font-family="Arial" font-size="12">28</text>
<rect width="30" height="520" x="504" y="40" style="fill:rgb(230,230,230);stroke:none"/>
<text x="512" y="575" fill="rgb(0,0,0)" font-family="Arial" font-size="12">29</text>
<text x="542" y="575" fill="rgb(0,0,0)" font-family="Arial" font-size="12">30</text>
<rect width="30" height="520" x="564" y="40" style="fill:rgb(230,230,230);stroke:none"/>
<text x="572" y="575" fill="rgb(0,0,0)" font-family="Arial" font-size="12">31</text>
<text x="602" y="575" fill="rgb(0,0,0)" font-family="Arial" font-size="12">32</text>
<rect width="30" height="520" x="624" y="40" style="fill:rgb(230,230,230);stroke:none"/>
<text x="632" y="575" fill="rgb(0,0,0)" font-family="Arial" font-size="12">33</text>
<text x="662" y="575" fill="rgb(0,0,0)" font-family="Arial" font-size="12">34</text>
<rect width="30" height="520" x="684" y="40" style="fill:rgb(230,230,230);stroke:none"/>
<text x="692" y="575" fill="rgb(0,0,0)" font-family="Arial" font-size="12">35</text>
<text x="722" y="575" fill="rgb(0,0,0)" font-family="Arial" font-size="12">36</text>
<rect width="30" height="520" x="744" y="40" style="fill:rgb(230,230,230);stroke:none"/>
<text x="752" y="575" fill="rgb(0,0,0)" font-family="Arial" font-size="12">37</text>
<line x1="54" y1="560" x2="790" y2="560" stroke="rgb(180,180,180)" stroke-width="1"/>
<line x1="54" y1="473" x2="790" y2="473" stroke="rgb(180,180,180)" stroke-width="1"/>
<line x1="54" y1="385" x2="790" y2="385" stroke="rgb(180,180,180)" stroke-width="1"/>
<line x1="54" y1="297" x2="790" y2="297" stroke="rgb(180,180,180)" stroke-width="1"/>
<line x1="54" y1="209" x2="790" y2="209" stroke="rgb(180,180,180)" stroke-width="1"/>
<line x1="54" y1="121" x2="790" y2="121" stroke="rgb(180,180,180)" stroke-width="1"/>
<line x1="69" y1="560" x2="99" y2="560" stroke="rgb(136,34,85)" stroke-width="1"/>
<line x1="99" y1="560" x2="129" y2="560" stroke="rgb(136,34,85)" stroke-width="1"/>
<line x1="129" y1="560" x2="159" y2="560" stroke="rgb(136,34,85)" stroke-width="1"/>
<line x1="159" y1="560" x2="189" y2="560" stroke="rgb(136,34,85)" stroke-width="1"/>
<line x1="189" y1="560" x2="219" y2="560" stroke="rgb(136,34,85)" stroke-width="1"/>
<line x1="219" y1="560" x2="249" y2="560" stroke="rgb(136,34,85)" stroke-width="1"/>
<line x1="249" y1="560" x2="279" y2="560" stroke="rgb(136,34,85)" stroke-width="1"/>
<line x1="279" y1="560" x2="309" y2="560" stroke="rgb(136,34,85)" stroke-width="1"/>
<line x1="309" y1="560" x2="339" y2="560" stroke="rgb(136,34,85)" stroke-width="1"/>
<line x1="339" y1="560" x2="369" y2="560" stroke="rgb(136,34,85)" stroke-width="1"/>
<line x1="369" y1="560" x2="399" y2="559" stroke="rgb(136,34,85)" stroke-width="1"/>
<line x1="399" y1="559" x2="429" y2="559" stroke="rgb(136,34,85)" stroke-width="1"/>
<line x1="429" y1="559" x2="459" y2="558" stroke="rgb(136,34,85)" stroke-width="1"/>
<line x1="459" y1="558" x2="489" y2="556" stroke="rgb(136,34,85)" stroke-width="1"/>
<line x1="489" y1="556" x2="519" y2="554" stroke="rgb(136,34,85)" stroke-width="1"/>
<line x1="519" y1="554" x2="549" y2="552" stroke="rgb(136,34,85)" stroke-width="1"/>
<line x1="549" y1="552" x2="579" y2="549" stroke="rgb(136,34,85)" stroke-width="1"/>
<line x1="579" y1="549" x2="609" y2="543" stroke="rgb(136,34,85)" stroke-width="1"/>
<line x1="609" y1="543" x2="639" y2="536" stroke="rgb(136,34,85)" stroke-width="1"/>
<line x1="639" y1="536" x2="669" y2="526" stroke="rgb(136,34,85)" stroke-width="1"/>
<line x1="669" y1="526" x2="699" y2="471" stroke="rgb(136,34,85)" stroke-width="1"/>
<line x1="699" y1="471" x2="729" y2="40" stroke="rgb(136,34,85)" stroke-width="1"/>
<line x1="729" y1="40" x2="759" y2="537" stroke="rgb(136,34,85)" stroke-width="1"/>
<rect width="156" height="23" x="634" y="40" style="fill:rgb(255,255,255);stroke:none"/>
<rect width="156" height="23" x="634" y="40" rx="0" ry="0" style="fill:none;stroke-width:1;stroke:rgb(192,192,192)"/>
<text x="637" y="55" fill="rgb(136,34,85)" font-family="Arial" font-size="12" font-weight="bold">Average Quality per read</text>
</svg>
