<?xml version="1.0" standalone="no"?>
<!DOCTYPE svg PUBLIC "-//W3C//DTD SVG 1.1//EN" "http://www.w3.org/Graphics/SVG/1.1/DTD/svg11.dtd">
<svg width="800" height="600" version="1.1" xmlns="http://www.w3.org/2000/svg">
<rect width="800" height="600" x="0" y="0" style="fill:rgb(238,238,238);stroke:none"/>
<rect width="800" height="600" x="0" y="0" style="fill:rgb(255,255,255);stroke:none"/>
<text x="2" y="566" fill="rgb(0,0,0)" font-family="Arial" font-size="12">0</text>
<text x="2" y="511" fill="rgb(0,0,0)" font-family="Arial" font-size="12">200000</text>
<text x="2" y="456" fill="rgb(0,0,0)" font-family="Arial" font-size="12">400000</text>
<text x="2" y="400" fill="rgb(0,0,0)" font-family="Arial" font-size="12">600000</text>
<text x="2" y="345" fill="rgb(0,0,0)" font-family="Arial" font-size="12">800000</text>
<text x="2" y="290" fill="rgb(0,0,0)" font-family="Arial" font-size="12">1000000</text>
<text x="2" y="234" fill="rgb(0,0,0)" font-family="Arial" font-size="12">1200000</text>
<text x="2" y="179" fill="rgb(0,0,0)" font-family="Arial" font-size="12">1400000</text>
<text x="2" y="124" fill="rgb(0,0,0)" font-family="Arial" font-size="12">1600000</text>
<text x="2" y="68" fill="rgb(0,0,0)" font-family="Arial" font-size="12">1800000</text>
<text x="299" y="30" fill="rgb(0,0,0)" font-family="Arial" font-size="12">Quality score distribution over all sequences</text>
<line x1="54" y1="560" x2="790" y2="560" stroke="rgb(0,0,0)" stroke-width="1"/>
<line x1="54" y1="560" x2="54" y2="40" stroke="rgb(0,0,0)" stroke-width="1"/>
<text x="295" y="595" fill="rgb(0,0,0)" font-family="Arial" font-size="12">Mean Sequence Quality (Phred Score)</text>
<text x="61" y="575" fill="rgb(0,0,0)" font-family="Arial" font-size="12">12</text>
<rect width="28" height="520" x="82" y="40" style="fill:rgb(230,230,230);stroke:none"/>
<text x="89" y="575" fill="rgb(0,0,0)" font-family="Arial" font-size="12">13</text>
<text x="117" y="575" fill="rgb(0,0,0)" font-family="Arial" font-size="12">14</text>
<rect width="28" height="520" x="138" y="40" style="fill:rgb(230,230,230);stroke:none"/>
<text x="145" y="575" fill="rgb(0,0,0)" font-family="Arial" font-size="12">15</text>
<text x="173" y="575" fill="rgb(0,0,0)" font-family="Arial" font-size="12">16</text>
<rect width="28" height="520" x="194" y="40" style="fill:rgb(230,230,230);stroke:none"/>
<text x="201" y="575" fill="rgb(0,0,0)" font-family="Arial" font-size="12">17</text>
<text x="229" y="575" fill="rgb(0,0,0)" font-family="Arial" font-size="12">18</text>
<rect width="28" height="520" x="250" y="40" style="fill:rgb(230,230,230);stroke:none"/>
<text x="257" y="575" fill="rgb(0,0,0)" font-family="Arial" font-size="12">19</text>
<text x="285" y="575" fill="rgb(0,0,0)" font-family="Arial" font-size="12">20</text>
<rect width="28" height="520" x="306" y="40" style="fill:rgb(230,230,230);stroke:none"/>
<text x="313" y="575" fill="rgb(0,0,0)" font-family="Arial" font-size="12">21</text>
<text x="341" y="575" fill="rgb(0,0,0)" font-family="Arial" font-size="12">22</text>
<rect width="28" height="520" x="362" y="40" style="fill:rgb(230,230,230);stroke:none"/>
<text x="369" y="575" fill="rgb(0,0,0)" font-family="Arial" font-size="12">23</text>
<text x="397" y="575" fill="rgb(0,0,0)" font-family="Arial" font-size="12">24</text>
<rect width="28" height="520" x="418" y="40" style="fill:rgb(230,230,230);stroke:none"/>
<text x="425" y="575" fill="rgb(0,0,0)" font-family="Arial" font-size="12">25</text>
<text x="453" y="575" fill="rgb(0,0,0)" font-family="Arial" font-size="12">26</text>
<rect width="28" height="520" x="474" y="40" style="fill:rgb(230,230,230);stroke:none"/>
<text x="481" y="575" fill="rgb(0,0,0)" font-family="Arial" font-size="12">27</text>
<text x="509" y="575" fill="rgb(0,0,0)" font-family="Arial" font-size="12">28</text>
<rect width="28" height="520" x="530" y="40" style="fill:rgb(230,230,230);stroke:none"/>
<text x="537" y="575" fill="rgb(0,0,0)" font-family="Arial" font-size="12">29</text>
<text x="565" y="575" fill="rgb(0,0,0)" font-family="Arial" font-size="12">30</text>
<rect width="28" height="520" x="586" y="40" style="fill:rgb(230,230,230);stroke:none"/>
<text x="593" y="575" fill="rgb(0,0,0)" font-family="Arial" font-size="12">31</text>
<text x="621" y="575" fill="rgb(0,0,0)" font-family="Arial" font-size="12">32</text>
<rect width="28" height="520" x="642" y="40" style="fill:rgb(230,230,230);stroke:none"/>
<text x="649" y="575" fill="rgb(0,0,0)" font-family="Arial" font-size="12">33</text>
<text x="677" y="575" fill="rgb(0,0,0)" font-family="Arial" font-size="12">34</text>
<rect width="28" height="520" x="698" y="40" style="fill:rgb(230,230,230);stroke:none"/>
<text x="705" y="575" fill="rgb(0,0,0)" font-family="Arial" font-size="12">35</text>
<text x="733" y="575" fill="rgb(0,0,0)" font-family="Arial" font-size="12">36</text>
<rect width="28" height="520" x="754" y="40" style="fill:rgb(230,230,230);stroke:none"/>
<text x="761" y="575" fill="rgb(0,0,0)" font-family="Arial" font-size="12">37</text>
<line x1="54" y1="560" x2="790" y2="560" stroke="rgb(180,180,180)" stroke-width="1"/>
<line x1="54" y1="505" x2="790" y2="505" stroke="rgb(180,180,180)" stroke-width="1"/>
<line x1="54" y1="450" x2="790" y2="450" stroke="rgb(180,180,180)" stroke-width="1"/>
<line x1="54" y1="394" x2="790" y2="394" stroke="rgb(180,180,180)" stroke-width="1"/>
<line x1="54" y1="339" x2="790" y2="339" stroke="rgb(180,180,180)" stroke-width="1"/>
<line x1="54" y1="284" x2="790" y2="284" stroke="rgb(180,180,180)" stroke-width="1"/>
<line x1="54" y1="228" x2="790" y2="228" stroke="rgb(180,180,180)" stroke-width="1"/>
<line x1="54" y1="173" x2="790" y2="173" stroke="rgb(180,180,180)" stroke-width="1"/>
<line x1="54" y1="118" x2="790" y2="118" stroke="rgb(180,180,180)" stroke-width="1"/>
<line x1="54" y1="62" x2="790" y2="62" stroke="rgb(180,180,180)" stroke-width="1"/>
<line x1="68" y1="560" x2="96" y2="560" stroke="rgb(136,34,85)" stroke-width="1"/>
<line x1="96" y1="560" x2="124" y2="560" stroke="rgb(136,34,85)" stroke-width="1"/>
<line x1="124" y1="560" x2="152" y2="560" stroke="rgb(136,34,85)" stroke-width="1"/>
<line x1="152" y1="560" x2="180" y2="560" stroke="rgb(136,34,85)" stroke-width="1"/>
<line x1="180" y1="560" x2="208" y2="560" stroke="rgb(136,34,85)" stroke-width="1"/>
<line x1="208" y1="560" x2="236" y2="560" stroke="rgb(136,34,85)" stroke-width="1"/>
<line x1="236" y1="560" x2="264" y2="560" stroke="rgb(136,34,85)" stroke-width="1"/>
<line x1="264" y1="560" x2="292" y2="560" stroke="rgb(136,34,85)" stroke-width="1"/>
<line x1="292" y1="560" x2="320" y2="559" stroke="rgb(136,34,85)" stroke-width="1"/>
<line x1="320" y1="559" x2="348" y2="559" stroke="rgb(136,34,85)" stroke-width="1"/>
<line x1="348" y1="559" x2="376" y2="559" stroke="rgb(136,34,85)" stroke-width="1"/>
<line x1="376" y1="559" x2="404" y2="558" stroke="rgb(136,34,85)" stroke-width="1"/>
<line x1="404" y1="558" x2="432" y2="558" stroke="rgb(136,34,85)" stroke-width="1"/>
<line x1="432" y1="558" x2="460" y2="557" stroke="rgb(136,34,85)" stroke-width="1"/>
<line x1="460" y1="557" x2="488" y2="556" stroke="rgb(136,34,85)" stroke-width="1"/>
<line x1="488" y1="556" x2="516" y2="555" stroke="rgb(136,34,85)" stroke-width="1"/>
<line x1="516" y1="555" x2="544" y2="552" stroke="rgb(136,34,85)" stroke-width="1"/>
<line x1="544" y1="552" x2="572" y2="549" stroke="rgb(136,34,85)" stroke-width="1"/>
<line x1="572" y1="549" x2="600" y2="545" stroke="rgb(136,34,85)" stroke-width="1"/>
<line x1="600" y1="545" x2="628" y2="535" stroke="rgb(136,34,85)" stroke-width="1"/>
<line x1="628" y1="535" x2="656" y2="508" stroke="rgb(136,34,85)" stroke-width="1"/>
<line x1="656" y1="508" x2="684" y2="429" stroke="rgb(136,34,85)" stroke-width="1"/>
<line x1="684" y1="429" x2="712" y2="183" stroke="rgb(136,34,85)" stroke-width="1"/>
<line x1="712" y1="183" x2="740" y2="40" stroke="rgb(136,34,85)" stroke-width="1"/>
<line x1="740" y1="40" x2="768" y2="553" stroke="rgb(136,34,85)" stroke-width="1"/>
<rect width="156" height="23" x="634" y="40" style="fill:rgb(255,255,255);stroke:none"/>
<rect width="156" height="23" x="634" y="40" rx="0" ry="0" style="fill:none;stroke-width:1;stroke:rgb(192,192,192)"/>
<text x="637" y="55" fill="rgb(136,34,85)" font-family="Arial" font-size="12" font-weight="bold">Average Quality per read</text>
</svg>
