<?xml version="1.0" standalone="no"?>
<!DOCTYPE svg PUBLIC "-//W3C//DTD SVG 1.1//EN" "http://www.w3.org/Graphics/SVG/1.1/DTD/svg11.dtd">
<svg width="800" height="600" version="1.1" xmlns="http://www.w3.org/2000/svg">
<rect width="800" height="600" x="0" y="0" style="fill:rgb(238,238,238);stroke:none"/>
<rect width="800" height="600" x="0" y="0" style="fill:rgb(255,255,255);stroke:none"/>
<text x="2" y="566" fill="rgb(0,0,0)" font-family="Arial" font-size="12">0</text>
<text x="2" y="509" fill="rgb(0,0,0)" font-family="Arial" font-size="12">25000</text>
<text x="2" y="451" fill="rgb(0,0,0)" font-family="Arial" font-size="12">50000</text>
<text x="2" y="393" fill="rgb(0,0,0)" font-family="Arial" font-size="12">75000</text>
<text x="2" y="335" fill="rgb(0,0,0)" font-family="Arial" font-size="12">100000</text>
<text x="2" y="277" fill="rgb(0,0,0)" font-family="Arial" font-size="12">125000</text>
<text x="2" y="219" fill="rgb(0,0,0)" font-family="Arial" font-size="12">150000</text>
<text x="2" y="162" fill="rgb(0,0,0)" font-family="Arial" font-size="12">175000</text>
<text x="2" y="104" fill="rgb(0,0,0)" font-family="Arial" font-size="12">200000</text>
<text x="323" y="30" fill="rgb(0,0,0)" font-family="Arial" font-size="12">GC distribution over all sequences</text>
<line x1="47" y1="560" x2="790" y2="560" stroke="rgb(0,0,0)" stroke-width="1"/>
<line x1="47" y1="560" x2="47" y2="40" stroke="rgb(0,0,0)" stroke-width="1"/>
<text x="341" y="595" fill="rgb(0,0,0)" font-family="Arial" font-size="12">Mean GC content (%)</text>
<text x="47" y="575" fill="rgb(0,0,0)" font-family="Arial" font-size="12">0</text>
<rect width="7" height="520" x="54" y="40" style="fill:rgb(230,230,230);stroke:none"/>
<text x="61" y="575" fill="rgb(0,0,0)" font-family="Arial" font-size="12">2</text>
<rect width="7" height="520" x="68" y="40" style="fill:rgb(230,230,230);stroke:none"/>
<text x="75" y="575" fill="rgb(0,0,0)" font-family="Arial" font-size="12">4</text>
<rect width="7" height="520" x="82" y="40" style="fill:rgb(230,230,230);stroke:none"/>
<text x="89" y="575" fill="rgb(0,0,0)" font-family="Arial" font-size="12">6</text>
<rect width="7" height="520" x="96" y="40" style="fill:rgb(230,230,230);stroke:none"/>
<text x="103" y="575" fill="rgb(0,0,0)" font-family="Arial" font-size="12">8</text>
<rect width="7" height="520" x="110" y="40" style="fill:rgb(230,230,230);stroke:none"/>
<rect width="7" height="520" x="124" y="40" style="fill:rgb(230,230,230);stroke:none"/>
<text x="120" y="575" fill="rgb(0,0,0)" font-family="Arial" font-size="12">11</text>
<rect width="7" height="520" x="138" y="40" style="fill:rgb(230,230,230);stroke:none"/>
<text x="141" y="575" fill="rgb(0,0,0)" font-family="Arial" font-size="12">14</text>
<rect width="7" height="520" x="152" y="40" style="fill:rgb(230,230,230);stroke:none"/>
<rect width="7" height="520" x="166" y="40" style="fill:rgb(230,230,230);stroke:none"/>
<text x="162" y="575" fill="rgb(0,0,0)" font-family="Arial" font-size="12">17</text>
<rect width="7" height="520" x="180" y="40" style="fill:rgb(230,230,230);stroke:none"/>
<text x="183" y="575" fill="rgb(0,0,0)" font-family="Arial" font-size="12">20</text>
<rect width="7" height="520" x="194" y="40" style="fill:rgb(230,230,230);stroke:none"/>
<rect width="7" height="520" x="208" y="40" style="fill:rgb(230,230,230);stroke:none"/>
<text x="204" y="575" fill="rgb(0,0,0)" font-family="Arial" font-size="12">23</text>
<rect width="7" height="520" x="222" y="40" style="fill:rgb(230,230,230);stroke:none"/>
<text x="225" y="575" fill="rgb(0,0,0)" font-family="Arial" font-size="12">26</text>
<rect width="7" height="520" x="236" y="40" style="fill:rgb(230,230,230);stroke:none"/>
<rect width="7" height="520" x="250" y="40" style="fill:rgb(230,230,230);stroke:none"/>
<text x="246" y="575" fill="rgb(0,0,0)" font-family="Arial" font-size="12">29</text>
<rect width="7" height="520" x="264" y="40" style="fill:rgb(230,230,230);stroke:none"/>
<text x="267" y="575" fill="rgb(0,0,0)" font-family="Arial" font-size="12">32</text>
<rect width="7" height="520" x="278" y="40" style="fill:rgb(230,230,230);stroke:none"/>
<rect width="7" height="520" x="292" y="40" style="fill:rgb(230,230,230);stroke:none"/>
<text x="288" y="575" fill="rgb(0,0,0)" font-family="Arial" font-size="12">35</text>
<rect width="7" height="520" x="306" y="40" style="fill:rgb(230,230,230);stroke:none"/>
<text x="309" y="575" fill="rgb(0,0,0)" font-family="Arial" font-size="12">38</text>
<rect width="7" height="520" x="320" y="40" style="fill:rgb(230,230,230);stroke:none"/>
<rect width="7" height="520" x="334" y="40" style="fill:rgb(230,230,230);stroke:none"/>
<text x="330" y="575" fill="rgb(0,0,0)" font-family="Arial" font-size="12">41</text>
<rect width="7" height="520" x="348" y="40" style="fill:rgb(230,230,230);stroke:none"/>
<text x="351" y="575" fill="rgb(0,0,0)" font-family="Arial" font-size="12">44</text>
<rect width="7" height="520" x="362" y="40" style="fill:rgb(230,230,230);stroke:none"/>
<rect width="7" height="520" x="376" y="40" style="fill:rgb(230,230,230);stroke:none"/>
<text x="372" y="575" fill="rgb(0,0,0)" font-family="Arial" font-size="12">47</text>
<rect width="7" height="520" x="390" y="40" style="fill:rgb(230,230,230);stroke:none"/>
<text x="393" y="575" fill="rgb(0,0,0)" font-family="Arial" font-size="12">50</text>
<rect width="7" height="520" x="404" y="40" style="fill:rgb(230,230,230);stroke:none"/>
<rect width="7" height="520" x="418" y="40" style="fill:rgb(230,230,230);stroke:none"/>
<text x="414" y="575" fill="rgb(0,0,0)" font-family="Arial" font-size="12">53</text>
<rect width="7" height="520" x="432" y="40" style="fill:rgb(230,230,230);stroke:none"/>
<text x="435" y="575" fill="rgb(0,0,0)" font-family="Arial" font-size="12">56</text>
<rect width="7" height="520" x="446" y="40" style="fill:rgb(230,230,230);stroke:none"/>
<rect width="7" height="520" x="460" y="40" style="fill:rgb(230,230,230);stroke:none"/>
<text x="456" y="575" fill="rgb(0,0,0)" font-family="Arial" font-size="12">59</text>
<rect width="7" height="520" x="474" y="40" style="fill:rgb(230,230,230);stroke:none"/>
<text x="477" y="575" fill="rgb(0,0,0)" font-family="Arial" font-size="12">62</text>
<rect width="7" height="520" x="488" y="40" style="fill:rgb(230,230,230);stroke:none"/>
<rect width="7" height="520" x="502" y="40" style="fill:rgb(230,230,230);stroke:none"/>
<text x="498" y="575" fill="rgb(0,0,0)" font-family="Arial" font-size="12">65</text>
<rect width="7" height="520" x="516" y="40" style="fill:rgb(230,230,230);stroke:none"/>
<text x="519" y="575" fill="rgb(0,0,0)" font-family="Arial" font-size="12">68</text>
<rect width="7" height="520" x="530" y="40" style="fill:rgb(230,230,230);stroke:none"/>
<rect width="7" height="520" x="544" y="40" style="fill:rgb(230,230,230);stroke:none"/>
<text x="540" y="575" fill="rgb(0,0,0)" font-family="Arial" font-size="12">71</text>
<rect width="7" height="520" x="558" y="40" style="fill:rgb(230,230,230);stroke:none"/>
<text x="561" y="575" fill="rgb(0,0,0)" font-family="Arial" font-size="12">74</text>
<rect width="7" height="520" x="572" y="40" style="fill:rgb(230,230,230);stroke:none"/>
<rect width="7" height="520" x="586" y="40" style="fill:rgb(230,230,230);stroke:none"/>
<text x="582" y="575" fill="rgb(0,0,0)" font-family="Arial" font-size="12">77</text>
<rect width="7" height="520" x="600" y="40" style="fill:rgb(230,230,230);stroke:none"/>
<text x="603" y="575" fill="rgb(0,0,0)" font-family="Arial" font-size="12">80</text>
<rect width="7" height="520" x="614" y="40" style="fill:rgb(230,230,230);stroke:none"/>
<rect width="7" height="520" x="628" y="40" style="fill:rgb(230,230,230);stroke:none"/>
<text x="624" y="575" fill="rgb(0,0,0)" font-family="Arial" font-size="12">83</text>
<rect width="7" height="520" x="642" y="40" style="fill:rgb(230,230,230);stroke:none"/>
<text x="645" y="575" fill="rgb(0,0,0)" font-family="Arial" font-size="12">86</text>
<rect width="7" height="520" x="656" y="40" style="fill:rgb(230,230,230);stroke:none"/>
<rect width="7" height="520" x="670" y="40" style="fill:rgb(230,230,230);stroke:none"/>
<text x="666" y="575" fill="rgb(0,0,0)" font-family="Arial" font-size="12">89</text>
<rect width="7" height="520" x="684" y="40" style="fill:rgb(230,230,230);stroke:none"/>
<text x="687" y="575" fill="rgb(0,0,0)" font-family="Arial" font-size="12">92</text>
<rect width="7" height="520" x="698" y="40" style="fill:rgb(230,230,230);stroke:none"/>
<rect width="7" height="520" x="712" y="40" style="fill:rgb(230,230,230);stroke:none"/>
<text x="708" y="575" fill="rgb(0,0,0)" font-family="Arial" font-size="12">95</text>
<rect width="7" height="520" x="726" y="40" style="fill:rgb(230,230,230);stroke:none"/>
<text x="729" y="575" fill="rgb(0,0,0)" font-family="Arial" font-size="12">98</text>
<rect width="7" height="520" x="740" y="40" style="fill:rgb(230,230,230);stroke:none"/>
<line x1="47" y1="560" x2="790" y2="560" stroke="rgb(180,180,180)" stroke-width="1"/>
<line x1="47" y1="503" x2="790" y2="503" stroke="rgb(180,180,180)" stroke-width="1"/>
<line x1="47" y1="445" x2="790" y2="445" stroke="rgb(180,180,180)" stroke-width="1"/>
<line x1="47" y1="387" x2="790" y2="387" stroke="rgb(180,180,180)" stroke-width="1"/>
<line x1="47" y1="329" x2="790" y2="329" stroke="rgb(180,180,180)" stroke-width="1"/>
<line x1="47" y1="271" x2="790" y2="271" stroke="rgb(180,180,180)" stroke-width="1"/>
<line x1="47" y1="213" x2="790" y2="213" stroke="rgb(180,180,180)" stroke-width="1"/>
<line x1="47" y1="156" x2="790" y2="156" stroke="rgb(180,180,180)" stroke-width="1"/>
<line x1="47" y1="98" x2="790" y2="98" stroke="rgb(180,180,180)" stroke-width="1"/>
<line x1="50" y1="551" x2="57" y2="551" stroke="rgb(136,34,85)" stroke-width="1"/>
<line x1="57" y1="551" x2="64" y2="550" stroke="rgb(136,34,85)" stroke-width="1"/>
<line x1="64" y1="550" x2="71" y2="549" stroke="rgb(136,34,85)" stroke-width="1"/>
<line x1="71" y1="549" x2="78" y2="549" stroke="rgb(136,34,85)" stroke-width="1"/>
<line x1="78" y1="549" x2="85" y2="550" stroke="rgb(136,34,85)" stroke-width="1"/>
<line x1="85" y1="550" x2="92" y2="555" stroke="rgb(136,34,85)" stroke-width="1"/>
<line x1="92" y1="555" x2="99" y2="557" stroke="rgb(136,34,85)" stroke-width="1"/>
<line x1="99" y1="557" x2="106" y2="558" stroke="rgb(136,34,85)" stroke-width="1"/>
<line x1="106" y1="558" x2="113" y2="558" stroke="rgb(136,34,85)" stroke-width="1"/>
<line x1="113" y1="558" x2="120" y2="558" stroke="rgb(136,34,85)" stroke-width="1"/>
<line x1="120" y1="558" x2="127" y2="559" stroke="rgb(136,34,85)" stroke-width="1"/>
<line x1="127" y1="559" x2="134" y2="559" stroke="rgb(136,34,85)" stroke-width="1"/>
<line x1="134" y1="559" x2="141" y2="559" stroke="rgb(136,34,85)" stroke-width="1"/>
<line x1="141" y1="559" x2="148" y2="559" stroke="rgb(136,34,85)" stroke-width="1"/>
<line x1="148" y1="559" x2="155" y2="558" stroke="rgb(136,34,85)" stroke-width="1"/>
<line x1="155" y1="558" x2="162" y2="558" stroke="rgb(136,34,85)" stroke-width="1"/>
<line x1="162" y1="558" x2="169" y2="556" stroke="rgb(136,34,85)" stroke-width="1"/>
<line x1="169" y1="556" x2="176" y2="554" stroke="rgb(136,34,85)" stroke-width="1"/>
<line x1="176" y1="554" x2="183" y2="552" stroke="rgb(136,34,85)" stroke-width="1"/>
<line x1="183" y1="552" x2="190" y2="549" stroke="rgb(136,34,85)" stroke-width="1"/>
<line x1="190" y1="549" x2="197" y2="546" stroke="rgb(136,34,85)" stroke-width="1"/>
<line x1="197" y1="546" x2="204" y2="542" stroke="rgb(136,34,85)" stroke-width="1"/>
<line x1="204" y1="542" x2="211" y2="537" stroke="rgb(136,34,85)" stroke-width="1"/>
<line x1="211" y1="537" x2="218" y2="532" stroke="rgb(136,34,85)" stroke-width="1"/>
<line x1="218" y1="532" x2="225" y2="526" stroke="rgb(136,34,85)" stroke-width="1"/>
<line x1="225" y1="526" x2="232" y2="518" stroke="rgb(136,34,85)" stroke-width="1"/>
<line x1="232" y1="518" x2="239" y2="509" stroke="rgb(136,34,85)" stroke-width="1"/>
<line x1="239" y1="509" x2="246" y2="499" stroke="rgb(136,34,85)" stroke-width="1"/>
<line x1="246" y1="499" x2="253" y2="490" stroke="rgb(136,34,85)" stroke-width="1"/>
<line x1="253" y1="490" x2="260" y2="482" stroke="rgb(136,34,85)" stroke-width="1"/>
<line x1="260" y1="482" x2="267" y2="472" stroke="rgb(136,34,85)" stroke-width="1"/>
<line x1="267" y1="472" x2="274" y2="462" stroke="rgb(136,34,85)" stroke-width="1"/>
<line x1="274" y1="462" x2="281" y2="455" stroke="rgb(136,34,85)" stroke-width="1"/>
<line x1="281" y1="455" x2="288" y2="445" stroke="rgb(136,34,85)" stroke-width="1"/>
<line x1="288" y1="445" x2="295" y2="440" stroke="rgb(136,34,85)" stroke-width="1"/>
<line x1="295" y1="440" x2="302" y2="436" stroke="rgb(136,34,85)" stroke-width="1"/>
<line x1="302" y1="436" x2="309" y2="429" stroke="rgb(136,34,85)" stroke-width="1"/>
<line x1="309" y1="429" x2="316" y2="424" stroke="rgb(136,34,85)" stroke-width="1"/>
<line x1="316" y1="424" x2="323" y2="423" stroke="rgb(136,34,85)" stroke-width="1"/>
<line x1="323" y1="423" x2="330" y2="425" stroke="rgb(136,34,85)" stroke-width="1"/>
<line x1="330" y1="425" x2="337" y2="426" stroke="rgb(136,34,85)" stroke-width="1"/>
<line x1="337" y1="426" x2="344" y2="424" stroke="rgb(136,34,85)" stroke-width="1"/>
<line x1="344" y1="424" x2="351" y2="425" stroke="rgb(136,34,85)" stroke-width="1"/>
<line x1="351" y1="425" x2="358" y2="432" stroke="rgb(136,34,85)" stroke-width="1"/>
<line x1="358" y1="432" x2="365" y2="437" stroke="rgb(136,34,85)" stroke-width="1"/>
<line x1="365" y1="437" x2="372" y2="437" stroke="rgb(136,34,85)" stroke-width="1"/>
<line x1="372" y1="437" x2="379" y2="438" stroke="rgb(136,34,85)" stroke-width="1"/>
<line x1="379" y1="438" x2="386" y2="436" stroke="rgb(136,34,85)" stroke-width="1"/>
<line x1="386" y1="436" x2="393" y2="434" stroke="rgb(136,34,85)" stroke-width="1"/>
<line x1="393" y1="434" x2="400" y2="428" stroke="rgb(136,34,85)" stroke-width="1"/>
<line x1="400" y1="428" x2="407" y2="416" stroke="rgb(136,34,85)" stroke-width="1"/>
<line x1="407" y1="416" x2="414" y2="398" stroke="rgb(136,34,85)" stroke-width="1"/>
<line x1="414" y1="398" x2="421" y2="331" stroke="rgb(136,34,85)" stroke-width="1"/>
<line x1="421" y1="331" x2="428" y2="95" stroke="rgb(136,34,85)" stroke-width="1"/>
<line x1="428" y1="95" x2="435" y2="40" stroke="rgb(136,34,85)" stroke-width="1"/>
<line x1="435" y1="40" x2="442" y2="181" stroke="rgb(136,34,85)" stroke-width="1"/>
<line x1="442" y1="181" x2="449" y2="233" stroke="rgb(136,34,85)" stroke-width="1"/>
<line x1="449" y1="233" x2="456" y2="296" stroke="rgb(136,34,85)" stroke-width="1"/>
<line x1="456" y1="296" x2="463" y2="337" stroke="rgb(136,34,85)" stroke-width="1"/>
<line x1="463" y1="337" x2="470" y2="336" stroke="rgb(136,34,85)" stroke-width="1"/>
<line x1="470" y1="336" x2="477" y2="307" stroke="rgb(136,34,85)" stroke-width="1"/>
<line x1="477" y1="307" x2="484" y2="271" stroke="rgb(136,34,85)" stroke-width="1"/>
<line x1="484" y1="271" x2="491" y2="201" stroke="rgb(136,34,85)" stroke-width="1"/>
<line x1="491" y1="201" x2="498" y2="87" stroke="rgb(136,34,85)" stroke-width="1"/>
<line x1="498" y1="87" x2="505" y2="116" stroke="rgb(136,34,85)" stroke-width="1"/>
<line x1="505" y1="116" x2="512" y2="260" stroke="rgb(136,34,85)" stroke-width="1"/>
<line x1="512" y1="260" x2="519" y2="323" stroke="rgb(136,34,85)" stroke-width="1"/>
<line x1="519" y1="323" x2="526" y2="320" stroke="rgb(136,34,85)" stroke-width="1"/>
<line x1="526" y1="320" x2="533" y2="325" stroke="rgb(136,34,85)" stroke-width="1"/>
<line x1="533" y1="325" x2="540" y2="351" stroke="rgb(136,34,85)" stroke-width="1"/>
<line x1="540" y1="351" x2="547" y2="356" stroke="rgb(136,34,85)" stroke-width="1"/>
<line x1="547" y1="356" x2="554" y2="408" stroke="rgb(136,34,85)" stroke-width="1"/>
<line x1="554" y1="408" x2="561" y2="473" stroke="rgb(136,34,85)" stroke-width="1"/>
<line x1="561" y1="473" x2="568" y2="499" stroke="rgb(136,34,85)" stroke-width="1"/>
<line x1="568" y1="499" x2="575" y2="513" stroke="rgb(136,34,85)" stroke-width="1"/>
<line x1="575" y1="513" x2="582" y2="522" stroke="rgb(136,34,85)" stroke-width="1"/>
<line x1="582" y1="522" x2="589" y2="526" stroke="rgb(136,34,85)" stroke-width="1"/>
<line x1="589" y1="526" x2="596" y2="530" stroke="rgb(136,34,85)" stroke-width="1"/>
<line x1="596" y1="530" x2="603" y2="540" stroke="rgb(136,34,85)" stroke-width="1"/>
<line x1="603" y1="540" x2="610" y2="544" stroke="rgb(136,34,85)" stroke-width="1"/>
<line x1="610" y1="544" x2="617" y2="543" stroke="rgb(136,34,85)" stroke-width="1"/>
<line x1="617" y1="543" x2="624" y2="544" stroke="rgb(136,34,85)" stroke-width="1"/>
<line x1="624" y1="544" x2="631" y2="544" stroke="rgb(136,34,85)" stroke-width="1"/>
<line x1="631" y1="544" x2="638" y2="546" stroke="rgb(136,34,85)" stroke-width="1"/>
<line x1="638" y1="546" x2="645" y2="549" stroke="rgb(136,34,85)" stroke-width="1"/>
<line x1="645" y1="549" x2="652" y2="550" stroke="rgb(136,34,85)" stroke-width="1"/>
<line x1="652" y1="550" x2="659" y2="551" stroke="rgb(136,34,85)" stroke-width="1"/>
<line x1="659" y1="551" x2="666" y2="554" stroke="rgb(136,34,85)" stroke-width="1"/>
<line x1="666" y1="554" x2="673" y2="554" stroke="rgb(136,34,85)" stroke-width="1"/>
<line x1="673" y1="554" x2="680" y2="555" stroke="rgb(136,34,85)" stroke-width="1"/>
<line x1="680" y1="555" x2="687" y2="555" stroke="rgb(136,34,85)" stroke-width="1"/>
<line x1="687" y1="555" x2="694" y2="555" stroke="rgb(136,34,85)" stroke-width="1"/>
<line x1="694" y1="555" x2="701" y2="556" stroke="rgb(136,34,85)" stroke-width="1"/>
<line x1="701" y1="556" x2="708" y2="556" stroke="rgb(136,34,85)" stroke-width="1"/>
<line x1="708" y1="556" x2="715" y2="557" stroke="rgb(136,34,85)" stroke-width="1"/>
<line x1="715" y1="557" x2="722" y2="558" stroke="rgb(136,34,85)" stroke-width="1"/>
<line x1="722" y1="558" x2="729" y2="559" stroke="rgb(136,34,85)" stroke-width="1"/>
<line x1="729" y1="559" x2="736" y2="559" stroke="rgb(136,34,85)" stroke-width="1"/>
<line x1="736" y1="559" x2="743" y2="559" stroke="rgb(136,34,85)" stroke-width="1"/>
<line x1="743" y1="559" x2="750" y2="558" stroke="rgb(136,34,85)" stroke-width="1"/>
<line x1="50" y1="560" x2="57" y2="560" stroke="rgb(51,34,136)" stroke-width="1"/>
<line x1="57" y1="560" x2="64" y2="560" stroke="rgb(51,34,136)" stroke-width="1"/>
<line x1="64" y1="560" x2="71" y2="560" stroke="rgb(51,34,136)" stroke-width="1"/>
<line x1="71" y1="560" x2="78" y2="560" stroke="rgb(51,34,136)" stroke-width="1"/>
<line x1="78" y1="560" x2="85" y2="560" stroke="rgb(51,34,136)" stroke-width="1"/>
<line x1="85" y1="560" x2="92" y2="560" stroke="rgb(51,34,136)" stroke-width="1"/>
<line x1="92" y1="560" x2="99" y2="560" stroke="rgb(51,34,136)" stroke-width="1"/>
<line x1="99" y1="560" x2="106" y2="560" stroke="rgb(51,34,136)" stroke-width="1"/>
<line x1="106" y1="560" x2="113" y2="559" stroke="rgb(51,34,136)" stroke-width="1"/>
<line x1="113" y1="559" x2="120" y2="559" stroke="rgb(51,34,136)" stroke-width="1"/>
<line x1="120" y1="559" x2="127" y2="559" stroke="rgb(51,34,136)" stroke-width="1"/>
<line x1="127" y1="559" x2="134" y2="558" stroke="rgb(51,34,136)" stroke-width="1"/>
<line x1="134" y1="558" x2="141" y2="557" stroke="rgb(51,34,136)" stroke-width="1"/>
<line x1="141" y1="557" x2="148" y2="557" stroke="rgb(51,34,136)" stroke-width="1"/>
<line x1="148" y1="557" x2="155" y2="556" stroke="rgb(51,34,136)" stroke-width="1"/>
<line x1="155" y1="556" x2="162" y2="555" stroke="rgb(51,34,136)" stroke-width="1"/>
<line x1="162" y1="555" x2="169" y2="554" stroke="rgb(51,34,136)" stroke-width="1"/>
<line x1="169" y1="554" x2="176" y2="552" stroke="rgb(51,34,136)" stroke-width="1"/>
<line x1="176" y1="552" x2="183" y2="550" stroke="rgb(51,34,136)" stroke-width="1"/>
<line x1="183" y1="550" x2="190" y2="548" stroke="rgb(51,34,136)" stroke-width="1"/>
<line x1="190" y1="548" x2="197" y2="546" stroke="rgb(51,34,136)" stroke-width="1"/>
<line x1="197" y1="546" x2="204" y2="543" stroke="rgb(51,34,136)" stroke-width="1"/>
<line x1="204" y1="543" x2="211" y2="540" stroke="rgb(51,34,136)" stroke-width="1"/>
<line x1="211" y1="540" x2="218" y2="536" stroke="rgb(51,34,136)" stroke-width="1"/>
<line x1="218" y1="536" x2="225" y2="532" stroke="rgb(51,34,136)" stroke-width="1"/>
<line x1="225" y1="532" x2="232" y2="528" stroke="rgb(51,34,136)" stroke-width="1"/>
<line x1="232" y1="528" x2="239" y2="523" stroke="rgb(51,34,136)" stroke-width="1"/>
<line x1="239" y1="523" x2="246" y2="517" stroke="rgb(51,34,136)" stroke-width="1"/>
<line x1="246" y1="517" x2="253" y2="511" stroke="rgb(51,34,136)" stroke-width="1"/>
<line x1="253" y1="511" x2="260" y2="504" stroke="rgb(51,34,136)" stroke-width="1"/>
<line x1="260" y1="504" x2="267" y2="496" stroke="rgb(51,34,136)" stroke-width="1"/>
<line x1="267" y1="496" x2="274" y2="488" stroke="rgb(51,34,136)" stroke-width="1"/>
<line x1="274" y1="488" x2="281" y2="479" stroke="rgb(51,34,136)" stroke-width="1"/>
<line x1="281" y1="479" x2="288" y2="470" stroke="rgb(51,34,136)" stroke-width="1"/>
<line x1="288" y1="470" x2="295" y2="459" stroke="rgb(51,34,136)" stroke-width="1"/>
<line x1="295" y1="459" x2="302" y2="449" stroke="rgb(51,34,136)" stroke-width="1"/>
<line x1="302" y1="449" x2="309" y2="438" stroke="rgb(51,34,136)" stroke-width="1"/>
<line x1="309" y1="438" x2="316" y2="426" stroke="rgb(51,34,136)" stroke-width="1"/>
<line x1="316" y1="426" x2="323" y2="414" stroke="rgb(51,34,136)" stroke-width="1"/>
<line x1="323" y1="414" x2="330" y2="402" stroke="rgb(51,34,136)" stroke-width="1"/>
<line x1="330" y1="402" x2="337" y2="390" stroke="rgb(51,34,136)" stroke-width="1"/>
<line x1="337" y1="390" x2="344" y2="378" stroke="rgb(51,34,136)" stroke-width="1"/>
<line x1="344" y1="378" x2="351" y2="366" stroke="rgb(51,34,136)" stroke-width="1"/>
<line x1="351" y1="366" x2="358" y2="354" stroke="rgb(51,34,136)" stroke-width="1"/>
<line x1="358" y1="354" x2="365" y2="343" stroke="rgb(51,34,136)" stroke-width="1"/>
<line x1="365" y1="343" x2="372" y2="332" stroke="rgb(51,34,136)" stroke-width="1"/>
<line x1="372" y1="332" x2="379" y2="322" stroke="rgb(51,34,136)" stroke-width="1"/>
<line x1="379" y1="322" x2="386" y2="312" stroke="rgb(51,34,136)" stroke-width="1"/>
<line x1="386" y1="312" x2="393" y2="304" stroke="rgb(51,34,136)" stroke-width="1"/>
<line x1="393" y1="304" x2="400" y2="297" stroke="rgb(51,34,136)" stroke-width="1"/>
<line x1="400" y1="297" x2="407" y2="290" stroke="rgb(51,34,136)" stroke-width="1"/>
<line x1="407" y1="290" x2="414" y2="286" stroke="rgb(51,34,136)" stroke-width="1"/>
<line x1="414" y1="286" x2="421" y2="282" stroke="rgb(51,34,136)" stroke-width="1"/>
<line x1="421" y1="282" x2="428" y2="280" stroke="rgb(51,34,136)" stroke-width="1"/>
<line x1="428" y1="280" x2="435" y2="279" stroke="rgb(51,34,136)" stroke-width="1"/>
<line x1="435" y1="279" x2="442" y2="280" stroke="rgb(51,34,136)" stroke-width="1"/>
<line x1="442" y1="280" x2="449" y2="282" stroke="rgb(51,34,136)" stroke-width="1"/>
<line x1="449" y1="282" x2="456" y2="286" stroke="rgb(51,34,136)" stroke-width="1"/>
<line x1="456" y1="286" x2="463" y2="290" stroke="rgb(51,34,136)" stroke-width="1"/>
<line x1="463" y1="290" x2="470" y2="297" stroke="rgb(51,34,136)" stroke-width="1"/>
<line x1="470" y1="297" x2="477" y2="304" stroke="rgb(51,34,136)" stroke-width="1"/>
<line x1="477" y1="304" x2="484" y2="312" stroke="rgb(51,34,136)" stroke-width="1"/>
<line x1="484" y1="312" x2="491" y2="322" stroke="rgb(51,34,136)" stroke-width="1"/>
<line x1="491" y1="322" x2="498" y2="332" stroke="rgb(51,34,136)" stroke-width="1"/>
<line x1="498" y1="332" x2="505" y2="343" stroke="rgb(51,34,136)" stroke-width="1"/>
<line x1="505" y1="343" x2="512" y2="354" stroke="rgb(51,34,136)" stroke-width="1"/>
<line x1="512" y1="354" x2="519" y2="366" stroke="rgb(51,34,136)" stroke-width="1"/>
<line x1="519" y1="366" x2="526" y2="378" stroke="rgb(51,34,136)" stroke-width="1"/>
<line x1="526" y1="378" x2="533" y2="390" stroke="rgb(51,34,136)" stroke-width="1"/>
<line x1="533" y1="390" x2="540" y2="402" stroke="rgb(51,34,136)" stroke-width="1"/>
<line x1="540" y1="402" x2="547" y2="414" stroke="rgb(51,34,136)" stroke-width="1"/>
<line x1="547" y1="414" x2="554" y2="426" stroke="rgb(51,34,136)" stroke-width="1"/>
<line x1="554" y1="426" x2="561" y2="438" stroke="rgb(51,34,136)" stroke-width="1"/>
<line x1="561" y1="438" x2="568" y2="449" stroke="rgb(51,34,136)" stroke-width="1"/>
<line x1="568" y1="449" x2="575" y2="459" stroke="rgb(51,34,136)" stroke-width="1"/>
<line x1="575" y1="459" x2="582" y2="470" stroke="rgb(51,34,136)" stroke-width="1"/>
<line x1="582" y1="470" x2="589" y2="479" stroke="rgb(51,34,136)" stroke-width="1"/>
<line x1="589" y1="479" x2="596" y2="488" stroke="rgb(51,34,136)" stroke-width="1"/>
<line x1="596" y1="488" x2="603" y2="496" stroke="rgb(51,34,136)" stroke-width="1"/>
<line x1="603" y1="496" x2="610" y2="504" stroke="rgb(51,34,136)" stroke-width="1"/>
<line x1="610" y1="504" x2="617" y2="511" stroke="rgb(51,34,136)" stroke-width="1"/>
<line x1="617" y1="511" x2="624" y2="517" stroke="rgb(51,34,136)" stroke-width="1"/>
<line x1="624" y1="517" x2="631" y2="523" stroke="rgb(51,34,136)" stroke-width="1"/>
<line x1="631" y1="523" x2="638" y2="528" stroke="rgb(51,34,136)" stroke-width="1"/>
<line x1="638" y1="528" x2="645" y2="532" stroke="rgb(51,34,136)" stroke-width="1"/>
<line x1="645" y1="532" x2="652" y2="536" stroke="rgb(51,34,136)" stroke-width="1"/>
<line x1="652" y1="536" x2="659" y2="540" stroke="rgb(51,34,136)" stroke-width="1"/>
<line x1="659" y1="540" x2="666" y2="543" stroke="rgb(51,34,136)" stroke-width="1"/>
<line x1="666" y1="543" x2="673" y2="546" stroke="rgb(51,34,136)" stroke-width="1"/>
<line x1="673" y1="546" x2="680" y2="548" stroke="rgb(51,34,136)" stroke-width="1"/>
<line x1="680" y1="548" x2="687" y2="550" stroke="rgb(51,34,136)" stroke-width="1"/>
<line x1="687" y1="550" x2="694" y2="552" stroke="rgb(51,34,136)" stroke-width="1"/>
<line x1="694" y1="552" x2="701" y2="554" stroke="rgb(51,34,136)" stroke-width="1"/>
<line x1="701" y1="554" x2="708" y2="555" stroke="rgb(51,34,136)" stroke-width="1"/>
<line x1="708" y1="555" x2="715" y2="556" stroke="rgb(51,34,136)" stroke-width="1"/>
<line x1="715" y1="556" x2="722" y2="557" stroke="rgb(51,34,136)" stroke-width="1"/>
<line x1="722" y1="557" x2="729" y2="557" stroke="rgb(51,34,136)" stroke-width="1"/>
<line x1="729" y1="557" x2="736" y2="558" stroke="rgb(51,34,136)" stroke-width="1"/>
<line x1="736" y1="558" x2="743" y2="559" stroke="rgb(51,34,136)" stroke-width="1"/>
<line x1="743" y1="559" x2="750" y2="559" stroke="rgb(51,34,136)" stroke-width="1"/>
<rect width="149" height="43" x="641" y="40" style="fill:rgb(255,255,255);stroke:none"/>
<rect width="149" height="43" x="641" y="40" rx="0" ry="0" style="fill:none;stroke-width:1;stroke:rgb(192,192,192)"/>
<text x="644" y="55" fill="rgb(136,34,85)" font-family="Arial" font-size="12" font-weight="bold">GC count per read</text>
<text x="644" y="75" fill="rgb(51,34,136)" font-family="Arial" font-size="12" font-weight="bold">Theoretical Distribution</text>
</svg>
