<?xml version="1.0" standalone="no"?>
<!DOCTYPE svg PUBLIC "-//W3C//DTD SVG 1.1//EN" "http://www.w3.org/Graphics/SVG/1.1/DTD/svg11.dtd">
<svg width="800" height="600" version="1.1" xmlns="http://www.w3.org/2000/svg">
<rect width="800" height="600" x="0" y="0" style="fill:rgb(238,238,238);stroke:none"/>
<rect width="800" height="600" x="0" y="0" style="fill:rgb(255,255,255);stroke:none"/>
<text x="2" y="566" fill="rgb(0,0,0)" font-family="Arial" font-size="12">0</text>
<text x="2" y="469" fill="rgb(0,0,0)" font-family="Arial" font-size="12">500000</text>
<text x="2" y="372" fill="rgb(0,0,0)" font-family="Arial" font-size="12">1000000</text>
<text x="2" y="274" fill="rgb(0,0,0)" font-family="Arial" font-size="12">1500000</text>
<text x="2" y="177" fill="rgb(0,0,0)" font-family="Arial" font-size="12">2000000</text>
<text x="2" y="79" fill="rgb(0,0,0)" font-family="Arial" font-size="12">2500000</text>
<text x="279" y="30" fill="rgb(0,0,0)" font-family="Arial" font-size="12">Distribution of sequence lengths over all sequences</text>
<line x1="54" y1="560" x2="790" y2="560" stroke="rgb(0,0,0)" stroke-width="1"/>
<line x1="54" y1="560" x2="54" y2="40" stroke="rgb(0,0,0)" stroke-width="1"/>
<text x="340" y="595" fill="rgb(0,0,0)" font-family="Arial" font-size="12">Sequence Length (bp)</text>
<text x="51" y="575" fill="rgb(0,0,0)" font-family="Arial" font-size="12">15-19</text>
<rect width="26" height="520" x="80" y="40" style="fill:rgb(230,230,230);stroke:none"/>
<text x="103" y="575" fill="rgb(0,0,0)" font-family="Arial" font-size="12">25-29</text>
<rect width="26" height="520" x="132" y="40" style="fill:rgb(230,230,230);stroke:none"/>
<text x="155" y="575" fill="rgb(0,0,0)" font-family="Arial" font-size="12">35-39</text>
<rect width="26" height="520" x="184" y="40" style="fill:rgb(230,230,230);stroke:none"/>
<text x="207" y="575" fill="rgb(0,0,0)" font-family="Arial" font-size="12">45-49</text>
<rect width="26" height="520" x="236" y="40" style="fill:rgb(230,230,230);stroke:none"/>
<text x="259" y="575" fill="rgb(0,0,0)" font-family="Arial" font-size="12">55-59</text>
<rect width="26" height="520" x="288" y="40" style="fill:rgb(230,230,230);stroke:none"/>
<text x="311" y="575" fill="rgb(0,0,0)" font-family="Arial" font-size="12">65-69</text>
<rect width="26" height="520" x="340" y="40" style="fill:rgb(230,230,230);stroke:none"/>
<text x="363" y="575" fill="rgb(0,0,0)" font-family="Arial" font-size="12">75-79</text>
<rect width="26" height="520" x="392" y="40" style="fill:rgb(230,230,230);stroke:none"/>
<text x="415" y="575" fill="rgb(0,0,0)" font-family="Arial" font-size="12">85-89</text>
<rect width="26" height="520" x="444" y="40" style="fill:rgb(230,230,230);stroke:none"/>
<text x="467" y="575" fill="rgb(0,0,0)" font-family="Arial" font-size="12">95-99</text>
<rect width="26" height="520" x="496" y="40" style="fill:rgb(230,230,230);stroke:none"/>
<text x="512" y="575" fill="rgb(0,0,0)" font-family="Arial" font-size="12">105-109</text>
<rect width="26" height="520" x="548" y="40" style="fill:rgb(230,230,230);stroke:none"/>
<text x="564" y="575" fill="rgb(0,0,0)" font-family="Arial" font-size="12">115-119</text>
<rect width="26" height="520" x="600" y="40" style="fill:rgb(230,230,230);stroke:none"/>
<text x="616" y="575" fill="rgb(0,0,0)" font-family="Arial" font-size="12">125-129</text>
<rect width="26" height="520" x="652" y="40" style="fill:rgb(230,230,230);stroke:none"/>
<text x="668" y="575" fill="rgb(0,0,0)" font-family="Arial" font-size="12">135-139</text>
<rect width="26" height="520" x="704" y="40" style="fill:rgb(230,230,230);stroke:none"/>
<text x="720" y="575" fill="rgb(0,0,0)" font-family="Arial" font-size="12">145-149</text>
<rect width="26" height="520" x="756" y="40" style="fill:rgb(230,230,230);stroke:none"/>
<line x1="54" y1="560" x2="790" y2="560" stroke="rgb(180,180,180)" stroke-width="1"/>
<line x1="54" y1="463" x2="790" y2="463" stroke="rgb(180,180,180)" stroke-width="1"/>
<line x1="54" y1="366" x2="790" y2="366" stroke="rgb(180,180,180)" stroke-width="1"/>
<line x1="54" y1="268" x2="790" y2="268" stroke="rgb(180,180,180)" stroke-width="1"/>
<line x1="54" y1="171" x2="790" y2="171" stroke="rgb(180,180,180)" stroke-width="1"/>
<line x1="54" y1="73" x2="790" y2="73" stroke="rgb(180,180,180)" stroke-width="1"/>
<line x1="67" y1="560" x2="93" y2="560" stroke="rgb(136,34,85)" stroke-width="1"/>
<line x1="93" y1="560" x2="119" y2="560" stroke="rgb(136,34,85)" stroke-width="1"/>
<line x1="119" y1="560" x2="145" y2="560" stroke="rgb(136,34,85)" stroke-width="1"/>
<line x1="145" y1="560" x2="171" y2="560" stroke="rgb(136,34,85)" stroke-width="1"/>
<line x1="171" y1="560" x2="197" y2="560" stroke="rgb(136,34,85)" stroke-width="1"/>
<line x1="197" y1="560" x2="223" y2="560" stroke="rgb(136,34,85)" stroke-width="1"/>
<line x1="223" y1="560" x2="249" y2="560" stroke="rgb(136,34,85)" stroke-width="1"/>
<line x1="249" y1="560" x2="275" y2="560" stroke="rgb(136,34,85)" stroke-width="1"/>
<line x1="275" y1="560" x2="301" y2="560" stroke="rgb(136,34,85)" stroke-width="1"/>
<line x1="301" y1="560" x2="327" y2="560" stroke="rgb(136,34,85)" stroke-width="1"/>
<line x1="327" y1="560" x2="353" y2="560" stroke="rgb(136,34,85)" stroke-width="1"/>
<line x1="353" y1="560" x2="379" y2="560" stroke="rgb(136,34,85)" stroke-width="1"/>
<line x1="379" y1="560" x2="405" y2="560" stroke="rgb(136,34,85)" stroke-width="1"/>
<line x1="405" y1="560" x2="431" y2="560" stroke="rgb(136,34,85)" stroke-width="1"/>
<line x1="431" y1="560" x2="457" y2="559" stroke="rgb(136,34,85)" stroke-width="1"/>
<line x1="457" y1="559" x2="483" y2="559" stroke="rgb(136,34,85)" stroke-width="1"/>
<line x1="483" y1="559" x2="509" y2="558" stroke="rgb(136,34,85)" stroke-width="1"/>
<line x1="509" y1="558" x2="535" y2="558" stroke="rgb(136,34,85)" stroke-width="1"/>
<line x1="535" y1="558" x2="561" y2="558" stroke="rgb(136,34,85)" stroke-width="1"/>
<line x1="561" y1="558" x2="587" y2="557" stroke="rgb(136,34,85)" stroke-width="1"/>
<line x1="587" y1="557" x2="613" y2="557" stroke="rgb(136,34,85)" stroke-width="1"/>
<line x1="613" y1="557" x2="639" y2="557" stroke="rgb(136,34,85)" stroke-width="1"/>
<line x1="639" y1="557" x2="665" y2="556" stroke="rgb(136,34,85)" stroke-width="1"/>
<line x1="665" y1="556" x2="691" y2="556" stroke="rgb(136,34,85)" stroke-width="1"/>
<line x1="691" y1="556" x2="717" y2="555" stroke="rgb(136,34,85)" stroke-width="1"/>
<line x1="717" y1="555" x2="743" y2="291" stroke="rgb(136,34,85)" stroke-width="1"/>
<line x1="743" y1="291" x2="769" y2="40" stroke="rgb(136,34,85)" stroke-width="1"/>
<rect width="110" height="23" x="680" y="40" style="fill:rgb(255,255,255);stroke:none"/>
<rect width="110" height="23" x="680" y="40" rx="0" ry="0" style="fill:none;stroke-width:1;stroke:rgb(192,192,192)"/>
<text x="683" y="55" fill="rgb(136,34,85)" font-family="Arial" font-size="12" font-weight="bold">Sequence Length</text>
</svg>
