<?xml version="1.0" standalone="no"?>
<!DOCTYPE svg PUBLIC "-//W3C//DTD SVG 1.1//EN" "http://www.w3.org/Graphics/SVG/1.1/DTD/svg11.dtd">
<svg width="800" height="600" version="1.1" xmlns="http://www.w3.org/2000/svg">
<rect width="800" height="600" x="0" y="0" style="fill:rgb(238,238,238);stroke:none"/>
<rect width="800" height="600" x="0" y="0" style="fill:rgb(255,255,255);stroke:none"/>
<text x="2" y="566" fill="rgb(0,0,0)" font-family="Arial" font-size="12">0</text>
<text x="2" y="471" fill="rgb(0,0,0)" font-family="Arial" font-size="12">20</text>
<text x="2" y="376" fill="rgb(0,0,0)" font-family="Arial" font-size="12">40</text>
<text x="2" y="280" fill="rgb(0,0,0)" font-family="Arial" font-size="12">60</text>
<text x="2" y="185" fill="rgb(0,0,0)" font-family="Arial" font-size="12">80</text>
<text x="2" y="89" fill="rgb(0,0,0)" font-family="Arial" font-size="12">100</text>
<text x="270" y="30" fill="rgb(0,0,0)" font-family="Arial" font-size="12">Quality score distribution over all sequences</text>
<line x1="29" y1="560" x2="790" y2="560" stroke="rgb(0,0,0)" stroke-width="1"/>
<line x1="29" y1="560" x2="29" y2="40" stroke="rgb(0,0,0)" stroke-width="1"/>
<text x="281" y="595" fill="rgb(0,0,0)" font-family="Arial" font-size="12">Mean Sequence Quality (Phred Score)</text>
<text x="41" y="575" fill="rgb(0,0,0)" font-family="Arial" font-size="12">19</text>
<rect width="40" height="520" x="69" y="40" style="fill:rgb(230,230,230);stroke:none"/>
<text x="81" y="575" fill="rgb(0,0,0)" font-family="Arial" font-size="12">20</text>
<text x="121" y="575" fill="rgb(0,0,0)" font-family="Arial" font-size="12">21</text>
<rect width="40" height="520" x="149" y="40" style="fill:rgb(230,230,230);stroke:none"/>
<text x="161" y="575" fill="rgb(0,0,0)" font-family="Arial" font-size="12">22</text>
<text x="201" y="575" fill="rgb(0,0,0)" font-family="Arial" font-size="12">23</text>
<rect width="40" height="520" x="229" y="40" style="fill:rgb(230,230,230);stroke:none"/>
<text x="241" y="575" fill="rgb(0,0,0)" font-family="Arial" font-size="12">24</text>
<text x="281" y="575" fill="rgb(0,0,0)" font-family="Arial" font-size="12">25</text>
<rect width="40" height="520" x="309" y="40" style="fill:rgb(230,230,230);stroke:none"/>
<text x="321" y="575" fill="rgb(0,0,0)" font-family="Arial" font-size="12">26</text>
<text x="361" y="575" fill="rgb(0,0,0)" font-family="Arial" font-size="12">27</text>
<rect width="40" height="520" x="389" y="40" style="fill:rgb(230,230,230);stroke:none"/>
<text x="401" y="575" fill="rgb(0,0,0)" font-family="Arial" font-size="12">28</text>
<text x="441" y="575" fill="rgb(0,0,0)" font-family="Arial" font-size="12">29</text>
<rect width="40" height="520" x="469" y="40" style="fill:rgb(230,230,230);stroke:none"/>
<text x="481" y="575" fill="rgb(0,0,0)" font-family="Arial" font-size="12">30</text>
<text x="521" y="575" fill="rgb(0,0,0)" font-family="Arial" font-size="12">31</text>
<rect width="40" height="520" x="549" y="40" style="fill:rgb(230,230,230);stroke:none"/>
<text x="561" y="575" fill="rgb(0,0,0)" font-family="Arial" font-size="12">32</text>
<text x="601" y="575" fill="rgb(0,0,0)" font-family="Arial" font-size="12">33</text>
<rect width="40" height="520" x="629" y="40" style="fill:rgb(230,230,230);stroke:none"/>
<text x="641" y="575" fill="rgb(0,0,0)" font-family="Arial" font-size="12">34</text>
<text x="681" y="575" fill="rgb(0,0,0)" font-family="Arial" font-size="12">35</text>
<rect width="40" height="520" x="709" y="40" style="fill:rgb(230,230,230);stroke:none"/>
<text x="721" y="575" fill="rgb(0,0,0)" font-family="Arial" font-size="12">36</text>
<text x="761" y="575" fill="rgb(0,0,0)" font-family="Arial" font-size="12">37</text>
<line x1="29" y1="560" x2="790" y2="560" stroke="rgb(180,180,180)" stroke-width="1"/>
<line x1="29" y1="465" x2="790" y2="465" stroke="rgb(180,180,180)" stroke-width="1"/>
<line x1="29" y1="370" x2="790" y2="370" stroke="rgb(180,180,180)" stroke-width="1"/>
<line x1="29" y1="274" x2="790" y2="274" stroke="rgb(180,180,180)" stroke-width="1"/>
<line x1="29" y1="179" x2="790" y2="179" stroke="rgb(180,180,180)" stroke-width="1"/>
<line x1="29" y1="83" x2="790" y2="83" stroke="rgb(180,180,180)" stroke-width="1"/>
<line x1="49" y1="551" x2="89" y2="556" stroke="rgb(136,34,85)" stroke-width="1"/>
<line x1="89" y1="556" x2="129" y2="522" stroke="rgb(136,34,85)" stroke-width="1"/>
<line x1="129" y1="522" x2="169" y2="537" stroke="rgb(136,34,85)" stroke-width="1"/>
<line x1="169" y1="537" x2="209" y2="522" stroke="rgb(136,34,85)" stroke-width="1"/>
<line x1="209" y1="522" x2="249" y2="460" stroke="rgb(136,34,85)" stroke-width="1"/>
<line x1="249" y1="460" x2="289" y2="432" stroke="rgb(136,34,85)" stroke-width="1"/>
<line x1="289" y1="432" x2="329" y2="389" stroke="rgb(136,34,85)" stroke-width="1"/>
<line x1="329" y1="389" x2="369" y2="303" stroke="rgb(136,34,85)" stroke-width="1"/>
<line x1="369" y1="303" x2="409" y2="274" stroke="rgb(136,34,85)" stroke-width="1"/>
<line x1="409" y1="274" x2="449" y2="126" stroke="rgb(136,34,85)" stroke-width="1"/>
<line x1="449" y1="126" x2="489" y2="136" stroke="rgb(136,34,85)" stroke-width="1"/>
<line x1="489" y1="136" x2="529" y2="103" stroke="rgb(136,34,85)" stroke-width="1"/>
<line x1="529" y1="103" x2="569" y2="40" stroke="rgb(136,34,85)" stroke-width="1"/>
<line x1="569" y1="40" x2="609" y2="45" stroke="rgb(136,34,85)" stroke-width="1"/>
<line x1="609" y1="45" x2="649" y2="169" stroke="rgb(136,34,85)" stroke-width="1"/>
<line x1="649" y1="169" x2="689" y2="303" stroke="rgb(136,34,85)" stroke-width="1"/>
<line x1="689" y1="303" x2="729" y2="441" stroke="rgb(136,34,85)" stroke-width="1"/>
<line x1="729" y1="441" x2="769" y2="503" stroke="rgb(136,34,85)" stroke-width="1"/>
<rect width="183" height="23" x="607" y="40" style="fill:rgb(255,255,255);stroke:none"/>
<rect width="183" height="23" x="607" y="40" rx="0" ry="0" style="fill:none;stroke-width:1;stroke:rgb(192,192,192)"/>
<text x="610" y="55" fill="rgb(136,34,85)" font-family="Arial" font-size="12" font-weight="bold">Average Quality per read</text>
</svg>
