<?xml version="1.0" standalone="no"?>
<!DOCTYPE svg PUBLIC "-//W3C//DTD SVG 1.1//EN" "http://www.w3.org/Graphics/SVG/1.1/DTD/svg11.dtd">
<svg width="800" height="600" version="1.1" xmlns="http://www.w3.org/2000/svg">
<rect width="800" height="600" x="0" y="0" style="fill:rgb(238,238,238);stroke:none"/>
<rect width="800" height="600" x="0" y="0" style="fill:rgb(255,255,255);stroke:none"/>
<text x="2" y="566" fill="rgb(0,0,0)" font-family="Arial" font-size="12">0</text>
<text x="2" y="495" fill="rgb(0,0,0)" font-family="Arial" font-size="12">10</text>
<text x="2" y="423" fill="rgb(0,0,0)" font-family="Arial" font-size="12">20</text>
<text x="2" y="351" fill="rgb(0,0,0)" font-family="Arial" font-size="12">30</text>
<text x="2" y="280" fill="rgb(0,0,0)" font-family="Arial" font-size="12">40</text>
<text x="2" y="208" fill="rgb(0,0,0)" font-family="Arial" font-size="12">50</text>
<text x="2" y="136" fill="rgb(0,0,0)" font-family="Arial" font-size="12">60</text>
<text x="2" y="64" fill="rgb(0,0,0)" font-family="Arial" font-size="12">70</text>
<text x="298" y="30" fill="rgb(0,0,0)" font-family="Arial" font-size="12">GC distribution over all sequences</text>
<line x1="21" y1="560" x2="790" y2="560" stroke="rgb(0,0,0)" stroke-width="1"/>
<line x1="21" y1="560" x2="21" y2="40" stroke="rgb(0,0,0)" stroke-width="1"/>
<text x="334" y="595" fill="rgb(0,0,0)" font-family="Arial" font-size="12">Mean GC content (%)</text>
<text x="20" y="575" fill="rgb(0,0,0)" font-family="Arial" font-size="12">0</text>
<rect width="7" height="520" x="28" y="40" style="fill:rgb(230,230,230);stroke:none"/>
<text x="34" y="575" fill="rgb(0,0,0)" font-family="Arial" font-size="12">2</text>
<rect width="7" height="520" x="42" y="40" style="fill:rgb(230,230,230);stroke:none"/>
<text x="48" y="575" fill="rgb(0,0,0)" font-family="Arial" font-size="12">4</text>
<rect width="7" height="520" x="56" y="40" style="fill:rgb(230,230,230);stroke:none"/>
<text x="62" y="575" fill="rgb(0,0,0)" font-family="Arial" font-size="12">6</text>
<rect width="7" height="520" x="70" y="40" style="fill:rgb(230,230,230);stroke:none"/>
<text x="76" y="575" fill="rgb(0,0,0)" font-family="Arial" font-size="12">8</text>
<rect width="7" height="520" x="84" y="40" style="fill:rgb(230,230,230);stroke:none"/>
<rect width="7" height="520" x="98" y="40" style="fill:rgb(230,230,230);stroke:none"/>
<text x="93" y="575" fill="rgb(0,0,0)" font-family="Arial" font-size="12">11</text>
<rect width="7" height="520" x="112" y="40" style="fill:rgb(230,230,230);stroke:none"/>
<rect width="7" height="520" x="126" y="40" style="fill:rgb(230,230,230);stroke:none"/>
<text x="121" y="575" fill="rgb(0,0,0)" font-family="Arial" font-size="12">15</text>
<rect width="7" height="520" x="140" y="40" style="fill:rgb(230,230,230);stroke:none"/>
<rect width="7" height="520" x="154" y="40" style="fill:rgb(230,230,230);stroke:none"/>
<text x="149" y="575" fill="rgb(0,0,0)" font-family="Arial" font-size="12">19</text>
<rect width="7" height="520" x="168" y="40" style="fill:rgb(230,230,230);stroke:none"/>
<rect width="7" height="520" x="182" y="40" style="fill:rgb(230,230,230);stroke:none"/>
<text x="177" y="575" fill="rgb(0,0,0)" font-family="Arial" font-size="12">23</text>
<rect width="7" height="520" x="196" y="40" style="fill:rgb(230,230,230);stroke:none"/>
<rect width="7" height="520" x="210" y="40" style="fill:rgb(230,230,230);stroke:none"/>
<text x="205" y="575" fill="rgb(0,0,0)" font-family="Arial" font-size="12">27</text>
<rect width="7" height="520" x="224" y="40" style="fill:rgb(230,230,230);stroke:none"/>
<rect width="7" height="520" x="238" y="40" style="fill:rgb(230,230,230);stroke:none"/>
<text x="233" y="575" fill="rgb(0,0,0)" font-family="Arial" font-size="12">31</text>
<rect width="7" height="520" x="252" y="40" style="fill:rgb(230,230,230);stroke:none"/>
<rect width="7" height="520" x="266" y="40" style="fill:rgb(230,230,230);stroke:none"/>
<text x="261" y="575" fill="rgb(0,0,0)" font-family="Arial" font-size="12">35</text>
<rect width="7" height="520" x="280" y="40" style="fill:rgb(230,230,230);stroke:none"/>
<rect width="7" height="520" x="294" y="40" style="fill:rgb(230,230,230);stroke:none"/>
<text x="289" y="575" fill="rgb(0,0,0)" font-family="Arial" font-size="12">39</text>
<rect width="7" height="520" x="308" y="40" style="fill:rgb(230,230,230);stroke:none"/>
<rect width="7" height="520" x="322" y="40" style="fill:rgb(230,230,230);stroke:none"/>
<text x="317" y="575" fill="rgb(0,0,0)" font-family="Arial" font-size="12">43</text>
<rect width="7" height="520" x="336" y="40" style="fill:rgb(230,230,230);stroke:none"/>
<rect width="7" height="520" x="350" y="40" style="fill:rgb(230,230,230);stroke:none"/>
<text x="345" y="575" fill="rgb(0,0,0)" font-family="Arial" font-size="12">47</text>
<rect width="7" height="520" x="364" y="40" style="fill:rgb(230,230,230);stroke:none"/>
<rect width="7" height="520" x="378" y="40" style="fill:rgb(230,230,230);stroke:none"/>
<text x="373" y="575" fill="rgb(0,0,0)" font-family="Arial" font-size="12">51</text>
<rect width="7" height="520" x="392" y="40" style="fill:rgb(230,230,230);stroke:none"/>
<rect width="7" height="520" x="406" y="40" style="fill:rgb(230,230,230);stroke:none"/>
<text x="401" y="575" fill="rgb(0,0,0)" font-family="Arial" font-size="12">55</text>
<rect width="7" height="520" x="420" y="40" style="fill:rgb(230,230,230);stroke:none"/>
<rect width="7" height="520" x="434" y="40" style="fill:rgb(230,230,230);stroke:none"/>
<text x="429" y="575" fill="rgb(0,0,0)" font-family="Arial" font-size="12">59</text>
<rect width="7" height="520" x="448" y="40" style="fill:rgb(230,230,230);stroke:none"/>
<rect width="7" height="520" x="462" y="40" style="fill:rgb(230,230,230);stroke:none"/>
<text x="457" y="575" fill="rgb(0,0,0)" font-family="Arial" font-size="12">63</text>
<rect width="7" height="520" x="476" y="40" style="fill:rgb(230,230,230);stroke:none"/>
<rect width="7" height="520" x="490" y="40" style="fill:rgb(230,230,230);stroke:none"/>
<text x="485" y="575" fill="rgb(0,0,0)" font-family="Arial" font-size="12">67</text>
<rect width="7" height="520" x="504" y="40" style="fill:rgb(230,230,230);stroke:none"/>
<rect width="7" height="520" x="518" y="40" style="fill:rgb(230,230,230);stroke:none"/>
<text x="513" y="575" fill="rgb(0,0,0)" font-family="Arial" font-size="12">71</text>
<rect width="7" height="520" x="532" y="40" style="fill:rgb(230,230,230);stroke:none"/>
<rect width="7" height="520" x="546" y="40" style="fill:rgb(230,230,230);stroke:none"/>
<text x="541" y="575" fill="rgb(0,0,0)" font-family="Arial" font-size="12">75</text>
<rect width="7" height="520" x="560" y="40" style="fill:rgb(230,230,230);stroke:none"/>
<rect width="7" height="520" x="574" y="40" style="fill:rgb(230,230,230);stroke:none"/>
<text x="569" y="575" fill="rgb(0,0,0)" font-family="Arial" font-size="12">79</text>
<rect width="7" height="520" x="588" y="40" style="fill:rgb(230,230,230);stroke:none"/>
<rect width="7" height="520" x="602" y="40" style="fill:rgb(230,230,230);stroke:none"/>
<text x="597" y="575" fill="rgb(0,0,0)" font-family="Arial" font-size="12">83</text>
<rect width="7" height="520" x="616" y="40" style="fill:rgb(230,230,230);stroke:none"/>
<rect width="7" height="520" x="630" y="40" style="fill:rgb(230,230,230);stroke:none"/>
<text x="625" y="575" fill="rgb(0,0,0)" font-family="Arial" font-size="12">87</text>
<rect width="7" height="520" x="644" y="40" style="fill:rgb(230,230,230);stroke:none"/>
<rect width="7" height="520" x="658" y="40" style="fill:rgb(230,230,230);stroke:none"/>
<text x="653" y="575" fill="rgb(0,0,0)" font-family="Arial" font-size="12">91</text>
<rect width="7" height="520" x="672" y="40" style="fill:rgb(230,230,230);stroke:none"/>
<rect width="7" height="520" x="686" y="40" style="fill:rgb(230,230,230);stroke:none"/>
<text x="681" y="575" fill="rgb(0,0,0)" font-family="Arial" font-size="12">95</text>
<rect width="7" height="520" x="700" y="40" style="fill:rgb(230,230,230);stroke:none"/>
<rect width="7" height="520" x="714" y="40" style="fill:rgb(230,230,230);stroke:none"/>
<text x="709" y="575" fill="rgb(0,0,0)" font-family="Arial" font-size="12">99</text>
<line x1="21" y1="560" x2="790" y2="560" stroke="rgb(180,180,180)" stroke-width="1"/>
<line x1="21" y1="489" x2="790" y2="489" stroke="rgb(180,180,180)" stroke-width="1"/>
<line x1="21" y1="417" x2="790" y2="417" stroke="rgb(180,180,180)" stroke-width="1"/>
<line x1="21" y1="345" x2="790" y2="345" stroke="rgb(180,180,180)" stroke-width="1"/>
<line x1="21" y1="274" x2="790" y2="274" stroke="rgb(180,180,180)" stroke-width="1"/>
<line x1="21" y1="202" x2="790" y2="202" stroke="rgb(180,180,180)" stroke-width="1"/>
<line x1="21" y1="130" x2="790" y2="130" stroke="rgb(180,180,180)" stroke-width="1"/>
<line x1="21" y1="58" x2="790" y2="58" stroke="rgb(180,180,180)" stroke-width="1"/>
<line x1="24" y1="525" x2="31" y2="528" stroke="rgb(136,34,85)" stroke-width="1"/>
<line x1="31" y1="528" x2="38" y2="517" stroke="rgb(136,34,85)" stroke-width="1"/>
<line x1="38" y1="517" x2="45" y2="510" stroke="rgb(136,34,85)" stroke-width="1"/>
<line x1="45" y1="510" x2="52" y2="521" stroke="rgb(136,34,85)" stroke-width="1"/>
<line x1="52" y1="521" x2="59" y2="528" stroke="rgb(136,34,85)" stroke-width="1"/>
<line x1="59" y1="528" x2="66" y2="528" stroke="rgb(136,34,85)" stroke-width="1"/>
<line x1="66" y1="528" x2="73" y2="514" stroke="rgb(136,34,85)" stroke-width="1"/>
<line x1="73" y1="514" x2="80" y2="489" stroke="rgb(136,34,85)" stroke-width="1"/>
<line x1="80" y1="489" x2="87" y2="478" stroke="rgb(136,34,85)" stroke-width="1"/>
<line x1="87" y1="478" x2="94" y2="485" stroke="rgb(136,34,85)" stroke-width="1"/>
<line x1="94" y1="485" x2="101" y2="489" stroke="rgb(136,34,85)" stroke-width="1"/>
<line x1="101" y1="489" x2="108" y2="489" stroke="rgb(136,34,85)" stroke-width="1"/>
<line x1="108" y1="489" x2="115" y2="485" stroke="rgb(136,34,85)" stroke-width="1"/>
<line x1="115" y1="485" x2="122" y2="478" stroke="rgb(136,34,85)" stroke-width="1"/>
<line x1="122" y1="478" x2="129" y2="474" stroke="rgb(136,34,85)" stroke-width="1"/>
<line x1="129" y1="474" x2="136" y2="478" stroke="rgb(136,34,85)" stroke-width="1"/>
<line x1="136" y1="478" x2="143" y2="474" stroke="rgb(136,34,85)" stroke-width="1"/>
<line x1="143" y1="474" x2="150" y2="464" stroke="rgb(136,34,85)" stroke-width="1"/>
<line x1="150" y1="464" x2="157" y2="467" stroke="rgb(136,34,85)" stroke-width="1"/>
<line x1="157" y1="467" x2="164" y2="460" stroke="rgb(136,34,85)" stroke-width="1"/>
<line x1="164" y1="460" x2="171" y2="449" stroke="rgb(136,34,85)" stroke-width="1"/>
<line x1="171" y1="449" x2="178" y2="460" stroke="rgb(136,34,85)" stroke-width="1"/>
<line x1="178" y1="460" x2="185" y2="460" stroke="rgb(136,34,85)" stroke-width="1"/>
<line x1="185" y1="460" x2="192" y2="456" stroke="rgb(136,34,85)" stroke-width="1"/>
<line x1="192" y1="456" x2="199" y2="449" stroke="rgb(136,34,85)" stroke-width="1"/>
<line x1="199" y1="449" x2="206" y2="435" stroke="rgb(136,34,85)" stroke-width="1"/>
<line x1="206" y1="435" x2="213" y2="421" stroke="rgb(136,34,85)" stroke-width="1"/>
<line x1="213" y1="421" x2="220" y2="396" stroke="rgb(136,34,85)" stroke-width="1"/>
<line x1="220" y1="396" x2="227" y2="381" stroke="rgb(136,34,85)" stroke-width="1"/>
<line x1="227" y1="381" x2="234" y2="363" stroke="rgb(136,34,85)" stroke-width="1"/>
<line x1="234" y1="363" x2="241" y2="352" stroke="rgb(136,34,85)" stroke-width="1"/>
<line x1="241" y1="352" x2="248" y2="360" stroke="rgb(136,34,85)" stroke-width="1"/>
<line x1="248" y1="360" x2="255" y2="363" stroke="rgb(136,34,85)" stroke-width="1"/>
<line x1="255" y1="363" x2="262" y2="374" stroke="rgb(136,34,85)" stroke-width="1"/>
<line x1="262" y1="374" x2="269" y2="352" stroke="rgb(136,34,85)" stroke-width="1"/>
<line x1="269" y1="352" x2="276" y2="317" stroke="rgb(136,34,85)" stroke-width="1"/>
<line x1="276" y1="317" x2="283" y2="299" stroke="rgb(136,34,85)" stroke-width="1"/>
<line x1="283" y1="299" x2="290" y2="299" stroke="rgb(136,34,85)" stroke-width="1"/>
<line x1="290" y1="299" x2="297" y2="281" stroke="rgb(136,34,85)" stroke-width="1"/>
<line x1="297" y1="281" x2="304" y2="238" stroke="rgb(136,34,85)" stroke-width="1"/>
<line x1="304" y1="238" x2="311" y2="252" stroke="rgb(136,34,85)" stroke-width="1"/>
<line x1="311" y1="252" x2="318" y2="270" stroke="rgb(136,34,85)" stroke-width="1"/>
<line x1="318" y1="270" x2="325" y2="266" stroke="rgb(136,34,85)" stroke-width="1"/>
<line x1="325" y1="266" x2="332" y2="277" stroke="rgb(136,34,85)" stroke-width="1"/>
<line x1="332" y1="277" x2="339" y2="263" stroke="rgb(136,34,85)" stroke-width="1"/>
<line x1="339" y1="263" x2="346" y2="256" stroke="rgb(136,34,85)" stroke-width="1"/>
<line x1="346" y1="256" x2="353" y2="248" stroke="rgb(136,34,85)" stroke-width="1"/>
<line x1="353" y1="248" x2="360" y2="259" stroke="rgb(136,34,85)" stroke-width="1"/>
<line x1="360" y1="259" x2="367" y2="270" stroke="rgb(136,34,85)" stroke-width="1"/>
<line x1="367" y1="270" x2="374" y2="216" stroke="rgb(136,34,85)" stroke-width="1"/>
<line x1="374" y1="216" x2="381" y2="170" stroke="rgb(136,34,85)" stroke-width="1"/>
<line x1="381" y1="170" x2="388" y2="141" stroke="rgb(136,34,85)" stroke-width="1"/>
<line x1="388" y1="141" x2="395" y2="84" stroke="rgb(136,34,85)" stroke-width="1"/>
<line x1="395" y1="84" x2="402" y2="40" stroke="rgb(136,34,85)" stroke-width="1"/>
<line x1="402" y1="40" x2="409" y2="73" stroke="rgb(136,34,85)" stroke-width="1"/>
<line x1="409" y1="73" x2="416" y2="69" stroke="rgb(136,34,85)" stroke-width="1"/>
<line x1="416" y1="69" x2="423" y2="55" stroke="rgb(136,34,85)" stroke-width="1"/>
<line x1="423" y1="55" x2="430" y2="112" stroke="rgb(136,34,85)" stroke-width="1"/>
<line x1="430" y1="112" x2="437" y2="130" stroke="rgb(136,34,85)" stroke-width="1"/>
<line x1="437" y1="130" x2="444" y2="116" stroke="rgb(136,34,85)" stroke-width="1"/>
<line x1="444" y1="116" x2="451" y2="127" stroke="rgb(136,34,85)" stroke-width="1"/>
<line x1="451" y1="127" x2="458" y2="109" stroke="rgb(136,34,85)" stroke-width="1"/>
<line x1="458" y1="109" x2="465" y2="73" stroke="rgb(136,34,85)" stroke-width="1"/>
<line x1="465" y1="73" x2="472" y2="80" stroke="rgb(136,34,85)" stroke-width="1"/>
<line x1="472" y1="80" x2="479" y2="66" stroke="rgb(136,34,85)" stroke-width="1"/>
<line x1="479" y1="66" x2="486" y2="105" stroke="rgb(136,34,85)" stroke-width="1"/>
<line x1="486" y1="105" x2="493" y2="180" stroke="rgb(136,34,85)" stroke-width="1"/>
<line x1="493" y1="180" x2="500" y2="198" stroke="rgb(136,34,85)" stroke-width="1"/>
<line x1="500" y1="198" x2="507" y2="198" stroke="rgb(136,34,85)" stroke-width="1"/>
<line x1="507" y1="198" x2="514" y2="227" stroke="rgb(136,34,85)" stroke-width="1"/>
<line x1="514" y1="227" x2="521" y2="270" stroke="rgb(136,34,85)" stroke-width="1"/>
<line x1="521" y1="270" x2="528" y2="327" stroke="rgb(136,34,85)" stroke-width="1"/>
<line x1="528" y1="327" x2="535" y2="370" stroke="rgb(136,34,85)" stroke-width="1"/>
<line x1="535" y1="370" x2="542" y2="367" stroke="rgb(136,34,85)" stroke-width="1"/>
<line x1="542" y1="367" x2="549" y2="403" stroke="rgb(136,34,85)" stroke-width="1"/>
<line x1="549" y1="403" x2="556" y2="421" stroke="rgb(136,34,85)" stroke-width="1"/>
<line x1="556" y1="421" x2="563" y2="431" stroke="rgb(136,34,85)" stroke-width="1"/>
<line x1="563" y1="431" x2="570" y2="453" stroke="rgb(136,34,85)" stroke-width="1"/>
<line x1="570" y1="453" x2="577" y2="460" stroke="rgb(136,34,85)" stroke-width="1"/>
<line x1="577" y1="460" x2="584" y2="474" stroke="rgb(136,34,85)" stroke-width="1"/>
<line x1="584" y1="474" x2="591" y2="474" stroke="rgb(136,34,85)" stroke-width="1"/>
<line x1="591" y1="474" x2="598" y2="464" stroke="rgb(136,34,85)" stroke-width="1"/>
<line x1="598" y1="464" x2="605" y2="464" stroke="rgb(136,34,85)" stroke-width="1"/>
<line x1="605" y1="464" x2="612" y2="467" stroke="rgb(136,34,85)" stroke-width="1"/>
<line x1="612" y1="467" x2="619" y2="485" stroke="rgb(136,34,85)" stroke-width="1"/>
<line x1="619" y1="485" x2="626" y2="503" stroke="rgb(136,34,85)" stroke-width="1"/>
<line x1="626" y1="503" x2="633" y2="500" stroke="rgb(136,34,85)" stroke-width="1"/>
<line x1="633" y1="500" x2="640" y2="482" stroke="rgb(136,34,85)" stroke-width="1"/>
<line x1="640" y1="482" x2="647" y2="471" stroke="rgb(136,34,85)" stroke-width="1"/>
<line x1="647" y1="471" x2="654" y2="482" stroke="rgb(136,34,85)" stroke-width="1"/>
<line x1="654" y1="482" x2="661" y2="474" stroke="rgb(136,34,85)" stroke-width="1"/>
<line x1="661" y1="474" x2="668" y2="467" stroke="rgb(136,34,85)" stroke-width="1"/>
<line x1="668" y1="467" x2="675" y2="467" stroke="rgb(136,34,85)" stroke-width="1"/>
<line x1="675" y1="467" x2="682" y2="471" stroke="rgb(136,34,85)" stroke-width="1"/>
<line x1="682" y1="471" x2="689" y2="485" stroke="rgb(136,34,85)" stroke-width="1"/>
<line x1="689" y1="485" x2="696" y2="489" stroke="rgb(136,34,85)" stroke-width="1"/>
<line x1="696" y1="489" x2="703" y2="492" stroke="rgb(136,34,85)" stroke-width="1"/>
<line x1="703" y1="492" x2="710" y2="496" stroke="rgb(136,34,85)" stroke-width="1"/>
<line x1="710" y1="496" x2="717" y2="496" stroke="rgb(136,34,85)" stroke-width="1"/>
<line x1="717" y1="496" x2="724" y2="489" stroke="rgb(136,34,85)" stroke-width="1"/>
<line x1="24" y1="551" x2="31" y2="550" stroke="rgb(51,34,136)" stroke-width="1"/>
<line x1="31" y1="550" x2="38" y2="548" stroke="rgb(51,34,136)" stroke-width="1"/>
<line x1="38" y1="548" x2="45" y2="547" stroke="rgb(51,34,136)" stroke-width="1"/>
<line x1="45" y1="547" x2="52" y2="545" stroke="rgb(51,34,136)" stroke-width="1"/>
<line x1="52" y1="545" x2="59" y2="543" stroke="rgb(51,34,136)" stroke-width="1"/>
<line x1="59" y1="543" x2="66" y2="541" stroke="rgb(51,34,136)" stroke-width="1"/>
<line x1="66" y1="541" x2="73" y2="538" stroke="rgb(51,34,136)" stroke-width="1"/>
<line x1="73" y1="538" x2="80" y2="535" stroke="rgb(51,34,136)" stroke-width="1"/>
<line x1="80" y1="535" x2="87" y2="532" stroke="rgb(51,34,136)" stroke-width="1"/>
<line x1="87" y1="532" x2="94" y2="528" stroke="rgb(51,34,136)" stroke-width="1"/>
<line x1="94" y1="528" x2="101" y2="525" stroke="rgb(51,34,136)" stroke-width="1"/>
<line x1="101" y1="525" x2="108" y2="521" stroke="rgb(51,34,136)" stroke-width="1"/>
<line x1="108" y1="521" x2="115" y2="516" stroke="rgb(51,34,136)" stroke-width="1"/>
<line x1="115" y1="516" x2="122" y2="511" stroke="rgb(51,34,136)" stroke-width="1"/>
<line x1="122" y1="511" x2="129" y2="506" stroke="rgb(51,34,136)" stroke-width="1"/>
<line x1="129" y1="506" x2="136" y2="500" stroke="rgb(51,34,136)" stroke-width="1"/>
<line x1="136" y1="500" x2="143" y2="494" stroke="rgb(51,34,136)" stroke-width="1"/>
<line x1="143" y1="494" x2="150" y2="488" stroke="rgb(51,34,136)" stroke-width="1"/>
<line x1="150" y1="488" x2="157" y2="481" stroke="rgb(51,34,136)" stroke-width="1"/>
<line x1="157" y1="481" x2="164" y2="473" stroke="rgb(51,34,136)" stroke-width="1"/>
<line x1="164" y1="473" x2="171" y2="466" stroke="rgb(51,34,136)" stroke-width="1"/>
<line x1="171" y1="466" x2="178" y2="457" stroke="rgb(51,34,136)" stroke-width="1"/>
<line x1="178" y1="457" x2="185" y2="449" stroke="rgb(51,34,136)" stroke-width="1"/>
<line x1="185" y1="449" x2="192" y2="439" stroke="rgb(51,34,136)" stroke-width="1"/>
<line x1="192" y1="439" x2="199" y2="430" stroke="rgb(51,34,136)" stroke-width="1"/>
<line x1="199" y1="430" x2="206" y2="420" stroke="rgb(51,34,136)" stroke-width="1"/>
<line x1="206" y1="420" x2="213" y2="409" stroke="rgb(51,34,136)" stroke-width="1"/>
<line x1="213" y1="409" x2="220" y2="399" stroke="rgb(51,34,136)" stroke-width="1"/>
<line x1="220" y1="399" x2="227" y2="387" stroke="rgb(51,34,136)" stroke-width="1"/>
<line x1="227" y1="387" x2="234" y2="376" stroke="rgb(51,34,136)" stroke-width="1"/>
<line x1="234" y1="376" x2="241" y2="364" stroke="rgb(51,34,136)" stroke-width="1"/>
<line x1="241" y1="364" x2="248" y2="353" stroke="rgb(51,34,136)" stroke-width="1"/>
<line x1="248" y1="353" x2="255" y2="341" stroke="rgb(51,34,136)" stroke-width="1"/>
<line x1="255" y1="341" x2="262" y2="328" stroke="rgb(51,34,136)" stroke-width="1"/>
<line x1="262" y1="328" x2="269" y2="316" stroke="rgb(51,34,136)" stroke-width="1"/>
<line x1="269" y1="316" x2="276" y2="304" stroke="rgb(51,34,136)" stroke-width="1"/>
<line x1="276" y1="304" x2="283" y2="292" stroke="rgb(51,34,136)" stroke-width="1"/>
<line x1="283" y1="292" x2="290" y2="280" stroke="rgb(51,34,136)" stroke-width="1"/>
<line x1="290" y1="280" x2="297" y2="268" stroke="rgb(51,34,136)" stroke-width="1"/>
<line x1="297" y1="268" x2="304" y2="256" stroke="rgb(51,34,136)" stroke-width="1"/>
<line x1="304" y1="256" x2="311" y2="245" stroke="rgb(51,34,136)" stroke-width="1"/>
<line x1="311" y1="245" x2="318" y2="234" stroke="rgb(51,34,136)" stroke-width="1"/>
<line x1="318" y1="234" x2="325" y2="224" stroke="rgb(51,34,136)" stroke-width="1"/>
<line x1="325" y1="224" x2="332" y2="214" stroke="rgb(51,34,136)" stroke-width="1"/>
<line x1="332" y1="214" x2="339" y2="205" stroke="rgb(51,34,136)" stroke-width="1"/>
<line x1="339" y1="205" x2="346" y2="196" stroke="rgb(51,34,136)" stroke-width="1"/>
<line x1="346" y1="196" x2="353" y2="188" stroke="rgb(51,34,136)" stroke-width="1"/>
<line x1="353" y1="188" x2="360" y2="181" stroke="rgb(51,34,136)" stroke-width="1"/>
<line x1="360" y1="181" x2="367" y2="175" stroke="rgb(51,34,136)" stroke-width="1"/>
<line x1="367" y1="175" x2="374" y2="170" stroke="rgb(51,34,136)" stroke-width="1"/>
<line x1="374" y1="170" x2="381" y2="165" stroke="rgb(51,34,136)" stroke-width="1"/>
<line x1="381" y1="165" x2="388" y2="162" stroke="rgb(51,34,136)" stroke-width="1"/>
<line x1="388" y1="162" x2="395" y2="159" stroke="rgb(51,34,136)" stroke-width="1"/>
<line x1="395" y1="159" x2="402" y2="158" stroke="rgb(51,34,136)" stroke-width="1"/>
<line x1="402" y1="158" x2="409" y2="157" stroke="rgb(51,34,136)" stroke-width="1"/>
<line x1="409" y1="157" x2="416" y2="158" stroke="rgb(51,34,136)" stroke-width="1"/>
<line x1="416" y1="158" x2="423" y2="159" stroke="rgb(51,34,136)" stroke-width="1"/>
<line x1="423" y1="159" x2="430" y2="162" stroke="rgb(51,34,136)" stroke-width="1"/>
<line x1="430" y1="162" x2="437" y2="165" stroke="rgb(51,34,136)" stroke-width="1"/>
<line x1="437" y1="165" x2="444" y2="170" stroke="rgb(51,34,136)" stroke-width="1"/>
<line x1="444" y1="170" x2="451" y2="175" stroke="rgb(51,34,136)" stroke-width="1"/>
<line x1="451" y1="175" x2="458" y2="181" stroke="rgb(51,34,136)" stroke-width="1"/>
<line x1="458" y1="181" x2="465" y2="188" stroke="rgb(51,34,136)" stroke-width="1"/>
<line x1="465" y1="188" x2="472" y2="196" stroke="rgb(51,34,136)" stroke-width="1"/>
<line x1="472" y1="196" x2="479" y2="205" stroke="rgb(51,34,136)" stroke-width="1"/>
<line x1="479" y1="205" x2="486" y2="214" stroke="rgb(51,34,136)" stroke-width="1"/>
<line x1="486" y1="214" x2="493" y2="224" stroke="rgb(51,34,136)" stroke-width="1"/>
<line x1="493" y1="224" x2="500" y2="234" stroke="rgb(51,34,136)" stroke-width="1"/>
<line x1="500" y1="234" x2="507" y2="245" stroke="rgb(51,34,136)" stroke-width="1"/>
<line x1="507" y1="245" x2="514" y2="256" stroke="rgb(51,34,136)" stroke-width="1"/>
<line x1="514" y1="256" x2="521" y2="268" stroke="rgb(51,34,136)" stroke-width="1"/>
<line x1="521" y1="268" x2="528" y2="280" stroke="rgb(51,34,136)" stroke-width="1"/>
<line x1="528" y1="280" x2="535" y2="292" stroke="rgb(51,34,136)" stroke-width="1"/>
<line x1="535" y1="292" x2="542" y2="304" stroke="rgb(51,34,136)" stroke-width="1"/>
<line x1="542" y1="304" x2="549" y2="316" stroke="rgb(51,34,136)" stroke-width="1"/>
<line x1="549" y1="316" x2="556" y2="328" stroke="rgb(51,34,136)" stroke-width="1"/>
<line x1="556" y1="328" x2="563" y2="341" stroke="rgb(51,34,136)" stroke-width="1"/>
<line x1="563" y1="341" x2="570" y2="353" stroke="rgb(51,34,136)" stroke-width="1"/>
<line x1="570" y1="353" x2="577" y2="364" stroke="rgb(51,34,136)" stroke-width="1"/>
<line x1="577" y1="364" x2="584" y2="376" stroke="rgb(51,34,136)" stroke-width="1"/>
<line x1="584" y1="376" x2="591" y2="387" stroke="rgb(51,34,136)" stroke-width="1"/>
<line x1="591" y1="387" x2="598" y2="399" stroke="rgb(51,34,136)" stroke-width="1"/>
<line x1="598" y1="399" x2="605" y2="409" stroke="rgb(51,34,136)" stroke-width="1"/>
<line x1="605" y1="409" x2="612" y2="420" stroke="rgb(51,34,136)" stroke-width="1"/>
<line x1="612" y1="420" x2="619" y2="430" stroke="rgb(51,34,136)" stroke-width="1"/>
<line x1="619" y1="430" x2="626" y2="439" stroke="rgb(51,34,136)" stroke-width="1"/>
<line x1="626" y1="439" x2="633" y2="449" stroke="rgb(51,34,136)" stroke-width="1"/>
<line x1="633" y1="449" x2="640" y2="457" stroke="rgb(51,34,136)" stroke-width="1"/>
<line x1="640" y1="457" x2="647" y2="466" stroke="rgb(51,34,136)" stroke-width="1"/>
<line x1="647" y1="466" x2="654" y2="473" stroke="rgb(51,34,136)" stroke-width="1"/>
<line x1="654" y1="473" x2="661" y2="481" stroke="rgb(51,34,136)" stroke-width="1"/>
<line x1="661" y1="481" x2="668" y2="488" stroke="rgb(51,34,136)" stroke-width="1"/>
<line x1="668" y1="488" x2="675" y2="494" stroke="rgb(51,34,136)" stroke-width="1"/>
<line x1="675" y1="494" x2="682" y2="500" stroke="rgb(51,34,136)" stroke-width="1"/>
<line x1="682" y1="500" x2="689" y2="506" stroke="rgb(51,34,136)" stroke-width="1"/>
<line x1="689" y1="506" x2="696" y2="511" stroke="rgb(51,34,136)" stroke-width="1"/>
<line x1="696" y1="511" x2="703" y2="516" stroke="rgb(51,34,136)" stroke-width="1"/>
<line x1="703" y1="516" x2="710" y2="521" stroke="rgb(51,34,136)" stroke-width="1"/>
<line x1="710" y1="521" x2="717" y2="525" stroke="rgb(51,34,136)" stroke-width="1"/>
<line x1="717" y1="525" x2="724" y2="528" stroke="rgb(51,34,136)" stroke-width="1"/>
<rect width="174" height="43" x="616" y="40" style="fill:rgb(255,255,255);stroke:none"/>
<rect width="174" height="43" x="616" y="40" rx="0" ry="0" style="fill:none;stroke-width:1;stroke:rgb(192,192,192)"/>
<text x="619" y="55" fill="rgb(136,34,85)" font-family="Arial" font-size="12" font-weight="bold">GC count per read</text>
<text x="619" y="75" fill="rgb(51,34,136)" font-family="Arial" font-size="12" font-weight="bold">Theoretical Distribution</text>
</svg>
