<?xml version="1.0" standalone="no"?>
<!DOCTYPE svg PUBLIC "-//W3C//DTD SVG 1.1//EN" "http://www.w3.org/Graphics/SVG/1.1/DTD/svg11.dtd">
<svg width="800" height="600" version="1.1" xmlns="http://www.w3.org/2000/svg">
<rect width="800" height="600" x="0" y="0" style="fill:rgb(238,238,238);stroke:none"/>
<rect width="800" height="600" x="0" y="0" style="fill:rgb(255,255,255);stroke:none"/>
<text x="2" y="566" fill="rgb(0,0,0)" font-family="Arial" font-size="12">0</text>
<text x="2" y="514" fill="rgb(0,0,0)" font-family="Arial" font-size="12">10</text>
<text x="2" y="462" fill="rgb(0,0,0)" font-family="Arial" font-size="12">20</text>
<text x="2" y="410" fill="rgb(0,0,0)" font-family="Arial" font-size="12">30</text>
<text x="2" y="358" fill="rgb(0,0,0)" font-family="Arial" font-size="12">40</text>
<text x="2" y="306" fill="rgb(0,0,0)" font-family="Arial" font-size="12">50</text>
<text x="2" y="254" fill="rgb(0,0,0)" font-family="Arial" font-size="12">60</text>
<text x="2" y="202" fill="rgb(0,0,0)" font-family="Arial" font-size="12">70</text>
<text x="2" y="150" fill="rgb(0,0,0)" font-family="Arial" font-size="12">80</text>
<text x="2" y="98" fill="rgb(0,0,0)" font-family="Arial" font-size="12">90</text>
<text x="2" y="46" fill="rgb(0,0,0)" font-family="Arial" font-size="12">100</text>
<text x="312" y="30" fill="rgb(0,0,0)" font-family="Arial" font-size="12">Sequence content across all bases</text>
<line x1="26" y1="560" x2="790" y2="560" stroke="rgb(0,0,0)" stroke-width="1"/>
<line x1="26" y1="560" x2="26" y2="40" stroke="rgb(0,0,0)" stroke-width="1"/>
<text x="345" y="595" fill="rgb(0,0,0)" font-family="Arial" font-size="12">Position in read (bp)</text>
<text x="30" y="575" fill="rgb(0,0,0)" font-family="Arial" font-size="12">1</text>
<rect width="15" height="520" x="41" y="40" style="fill:rgb(230,230,230);stroke:none"/>
<text x="45" y="575" fill="rgb(0,0,0)" font-family="Arial" font-size="12">2</text>
<text x="60" y="575" fill="rgb(0,0,0)" font-family="Arial" font-size="12">3</text>
<rect width="15" height="520" x="71" y="40" style="fill:rgb(230,230,230);stroke:none"/>
<text x="75" y="575" fill="rgb(0,0,0)" font-family="Arial" font-size="12">4</text>
<text x="90" y="575" fill="rgb(0,0,0)" font-family="Arial" font-size="12">5</text>
<rect width="15" height="520" x="101" y="40" style="fill:rgb(230,230,230);stroke:none"/>
<text x="105" y="575" fill="rgb(0,0,0)" font-family="Arial" font-size="12">6</text>
<text x="120" y="575" fill="rgb(0,0,0)" font-family="Arial" font-size="12">7</text>
<rect width="15" height="520" x="131" y="40" style="fill:rgb(230,230,230);stroke:none"/>
<text x="135" y="575" fill="rgb(0,0,0)" font-family="Arial" font-size="12">8</text>
<text x="150" y="575" fill="rgb(0,0,0)" font-family="Arial" font-size="12">9</text>
<rect width="15" height="520" x="161" y="40" style="fill:rgb(230,230,230);stroke:none"/>
<text x="176" y="575" fill="rgb(0,0,0)" font-family="Arial" font-size="12">11</text>
<rect width="15" height="520" x="191" y="40" style="fill:rgb(230,230,230);stroke:none"/>
<text x="206" y="575" fill="rgb(0,0,0)" font-family="Arial" font-size="12">13</text>
<rect width="15" height="520" x="221" y="40" style="fill:rgb(230,230,230);stroke:none"/>
<text x="236" y="575" fill="rgb(0,0,0)" font-family="Arial" font-size="12">15</text>
<rect width="15" height="520" x="251" y="40" style="fill:rgb(230,230,230);stroke:none"/>
<text x="266" y="575" fill="rgb(0,0,0)" font-family="Arial" font-size="12">17</text>
<rect width="15" height="520" x="281" y="40" style="fill:rgb(230,230,230);stroke:none"/>
<text x="296" y="575" fill="rgb(0,0,0)" font-family="Arial" font-size="12">19</text>
<rect width="15" height="520" x="311" y="40" style="fill:rgb(230,230,230);stroke:none"/>
<text x="326" y="575" fill="rgb(0,0,0)" font-family="Arial" font-size="12">21</text>
<rect width="15" height="520" x="341" y="40" style="fill:rgb(230,230,230);stroke:none"/>
<text x="356" y="575" fill="rgb(0,0,0)" font-family="Arial" font-size="12">23</text>
<rect width="15" height="520" x="371" y="40" style="fill:rgb(230,230,230);stroke:none"/>
<text x="386" y="575" fill="rgb(0,0,0)" font-family="Arial" font-size="12">25</text>
<rect width="15" height="520" x="401" y="40" style="fill:rgb(230,230,230);stroke:none"/>
<text x="416" y="575" fill="rgb(0,0,0)" font-family="Arial" font-size="12">27</text>
<rect width="15" height="520" x="431" y="40" style="fill:rgb(230,230,230);stroke:none"/>
<text x="446" y="575" fill="rgb(0,0,0)" font-family="Arial" font-size="12">29</text>
<rect width="15" height="520" x="461" y="40" style="fill:rgb(230,230,230);stroke:none"/>
<text x="476" y="575" fill="rgb(0,0,0)" font-family="Arial" font-size="12">31</text>
<rect width="15" height="520" x="491" y="40" style="fill:rgb(230,230,230);stroke:none"/>
<text x="506" y="575" fill="rgb(0,0,0)" font-family="Arial" font-size="12">33</text>
<rect width="15" height="520" x="521" y="40" style="fill:rgb(230,230,230);stroke:none"/>
<text x="536" y="575" fill="rgb(0,0,0)" font-family="Arial" font-size="12">35</text>
<rect width="15" height="520" x="551" y="40" style="fill:rgb(230,230,230);stroke:none"/>
<text x="566" y="575" fill="rgb(0,0,0)" font-family="Arial" font-size="12">37</text>
<rect width="15" height="520" x="581" y="40" style="fill:rgb(230,230,230);stroke:none"/>
<text x="596" y="575" fill="rgb(0,0,0)" font-family="Arial" font-size="12">39</text>
<rect width="15" height="520" x="611" y="40" style="fill:rgb(230,230,230);stroke:none"/>
<text x="626" y="575" fill="rgb(0,0,0)" font-family="Arial" font-size="12">41</text>
<rect width="15" height="520" x="641" y="40" style="fill:rgb(230,230,230);stroke:none"/>
<text x="656" y="575" fill="rgb(0,0,0)" font-family="Arial" font-size="12">43</text>
<rect width="15" height="520" x="671" y="40" style="fill:rgb(230,230,230);stroke:none"/>
<text x="686" y="575" fill="rgb(0,0,0)" font-family="Arial" font-size="12">45</text>
<rect width="15" height="520" x="701" y="40" style="fill:rgb(230,230,230);stroke:none"/>
<text x="716" y="575" fill="rgb(0,0,0)" font-family="Arial" font-size="12">47</text>
<rect width="15" height="520" x="731" y="40" style="fill:rgb(230,230,230);stroke:none"/>
<text x="746" y="575" fill="rgb(0,0,0)" font-family="Arial" font-size="12">49</text>
<rect width="15" height="520" x="761" y="40" style="fill:rgb(230,230,230);stroke:none"/>
<line x1="26" y1="560" x2="790" y2="560" stroke="rgb(180,180,180)" stroke-width="1"/>
<line x1="26" y1="508" x2="790" y2="508" stroke="rgb(180,180,180)" stroke-width="1"/>
<line x1="26" y1="456" x2="790" y2="456" stroke="rgb(180,180,180)" stroke-width="1"/>
<line x1="26" y1="404" x2="790" y2="404" stroke="rgb(180,180,180)" stroke-width="1"/>
<line x1="26" y1="352" x2="790" y2="352" stroke="rgb(180,180,180)" stroke-width="1"/>
<line x1="26" y1="300" x2="790" y2="300" stroke="rgb(180,180,180)" stroke-width="1"/>
<line x1="26" y1="248" x2="790" y2="248" stroke="rgb(180,180,180)" stroke-width="1"/>
<line x1="26" y1="196" x2="790" y2="196" stroke="rgb(180,180,180)" stroke-width="1"/>
<line x1="26" y1="144" x2="790" y2="144" stroke="rgb(180,180,180)" stroke-width="1"/>
<line x1="26" y1="92" x2="790" y2="92" stroke="rgb(180,180,180)" stroke-width="1"/>
<line x1="26" y1="40" x2="790" y2="40" stroke="rgb(180,180,180)" stroke-width="1"/>
<line x1="33" y1="326" x2="48" y2="467" stroke="rgb(136,34,85)" stroke-width="1"/>
<line x1="48" y1="467" x2="63" y2="454" stroke="rgb(136,34,85)" stroke-width="1"/>
<line x1="63" y1="454" x2="78" y2="426" stroke="rgb(136,34,85)" stroke-width="1"/>
<line x1="78" y1="426" x2="93" y2="434" stroke="rgb(136,34,85)" stroke-width="1"/>
<line x1="93" y1="434" x2="108" y2="439" stroke="rgb(136,34,85)" stroke-width="1"/>
<line x1="108" y1="439" x2="123" y2="405" stroke="rgb(136,34,85)" stroke-width="1"/>
<line x1="123" y1="405" x2="138" y2="415" stroke="rgb(136,34,85)" stroke-width="1"/>
<line x1="138" y1="415" x2="153" y2="451" stroke="rgb(136,34,85)" stroke-width="1"/>
<line x1="153" y1="451" x2="168" y2="432" stroke="rgb(136,34,85)" stroke-width="1"/>
<line x1="168" y1="432" x2="183" y2="454" stroke="rgb(136,34,85)" stroke-width="1"/>
<line x1="183" y1="454" x2="198" y2="366" stroke="rgb(136,34,85)" stroke-width="1"/>
<line x1="198" y1="366" x2="213" y2="438" stroke="rgb(136,34,85)" stroke-width="1"/>
<line x1="213" y1="438" x2="228" y2="451" stroke="rgb(136,34,85)" stroke-width="1"/>
<line x1="228" y1="451" x2="243" y2="451" stroke="rgb(136,34,85)" stroke-width="1"/>
<line x1="243" y1="451" x2="258" y2="440" stroke="rgb(136,34,85)" stroke-width="1"/>
<line x1="258" y1="440" x2="273" y2="430" stroke="rgb(136,34,85)" stroke-width="1"/>
<line x1="273" y1="430" x2="288" y2="394" stroke="rgb(136,34,85)" stroke-width="1"/>
<line x1="288" y1="394" x2="303" y2="373" stroke="rgb(136,34,85)" stroke-width="1"/>
<line x1="303" y1="373" x2="318" y2="440" stroke="rgb(136,34,85)" stroke-width="1"/>
<line x1="318" y1="440" x2="333" y2="428" stroke="rgb(136,34,85)" stroke-width="1"/>
<line x1="333" y1="428" x2="348" y2="442" stroke="rgb(136,34,85)" stroke-width="1"/>
<line x1="348" y1="442" x2="363" y2="405" stroke="rgb(136,34,85)" stroke-width="1"/>
<line x1="363" y1="405" x2="378" y2="410" stroke="rgb(136,34,85)" stroke-width="1"/>
<line x1="378" y1="410" x2="393" y2="468" stroke="rgb(136,34,85)" stroke-width="1"/>
<line x1="393" y1="468" x2="408" y2="441" stroke="rgb(136,34,85)" stroke-width="1"/>
<line x1="408" y1="441" x2="423" y2="430" stroke="rgb(136,34,85)" stroke-width="1"/>
<line x1="423" y1="430" x2="438" y2="473" stroke="rgb(136,34,85)" stroke-width="1"/>
<line x1="438" y1="473" x2="453" y2="498" stroke="rgb(136,34,85)" stroke-width="1"/>
<line x1="453" y1="498" x2="468" y2="506" stroke="rgb(136,34,85)" stroke-width="1"/>
<line x1="468" y1="506" x2="483" y2="487" stroke="rgb(136,34,85)" stroke-width="1"/>
<line x1="483" y1="487" x2="498" y2="426" stroke="rgb(136,34,85)" stroke-width="1"/>
<line x1="498" y1="426" x2="513" y2="503" stroke="rgb(136,34,85)" stroke-width="1"/>
<line x1="513" y1="503" x2="528" y2="515" stroke="rgb(136,34,85)" stroke-width="1"/>
<line x1="528" y1="515" x2="543" y2="531" stroke="rgb(136,34,85)" stroke-width="1"/>
<line x1="543" y1="531" x2="558" y2="528" stroke="rgb(136,34,85)" stroke-width="1"/>
<line x1="558" y1="528" x2="573" y2="534" stroke="rgb(136,34,85)" stroke-width="1"/>
<line x1="573" y1="534" x2="588" y2="533" stroke="rgb(136,34,85)" stroke-width="1"/>
<line x1="588" y1="533" x2="603" y2="511" stroke="rgb(136,34,85)" stroke-width="1"/>
<line x1="603" y1="511" x2="618" y2="512" stroke="rgb(136,34,85)" stroke-width="1"/>
<line x1="618" y1="512" x2="633" y2="496" stroke="rgb(136,34,85)" stroke-width="1"/>
<line x1="633" y1="496" x2="648" y2="498" stroke="rgb(136,34,85)" stroke-width="1"/>
<line x1="648" y1="498" x2="663" y2="486" stroke="rgb(136,34,85)" stroke-width="1"/>
<line x1="663" y1="486" x2="678" y2="465" stroke="rgb(136,34,85)" stroke-width="1"/>
<line x1="678" y1="465" x2="693" y2="489" stroke="rgb(136,34,85)" stroke-width="1"/>
<line x1="693" y1="489" x2="708" y2="464" stroke="rgb(136,34,85)" stroke-width="1"/>
<line x1="708" y1="464" x2="723" y2="401" stroke="rgb(136,34,85)" stroke-width="1"/>
<line x1="723" y1="401" x2="738" y2="440" stroke="rgb(136,34,85)" stroke-width="1"/>
<line x1="738" y1="440" x2="753" y2="385" stroke="rgb(136,34,85)" stroke-width="1"/>
<line x1="753" y1="385" x2="768" y2="465" stroke="rgb(136,34,85)" stroke-width="1"/>
<line x1="33" y1="488" x2="48" y2="377" stroke="rgb(51,34,136)" stroke-width="1"/>
<line x1="48" y1="377" x2="63" y2="407" stroke="rgb(51,34,136)" stroke-width="1"/>
<line x1="63" y1="407" x2="78" y2="471" stroke="rgb(51,34,136)" stroke-width="1"/>
<line x1="78" y1="471" x2="93" y2="444" stroke="rgb(51,34,136)" stroke-width="1"/>
<line x1="93" y1="444" x2="108" y2="397" stroke="rgb(51,34,136)" stroke-width="1"/>
<line x1="108" y1="397" x2="123" y2="444" stroke="rgb(51,34,136)" stroke-width="1"/>
<line x1="123" y1="444" x2="138" y2="418" stroke="rgb(51,34,136)" stroke-width="1"/>
<line x1="138" y1="418" x2="153" y2="451" stroke="rgb(51,34,136)" stroke-width="1"/>
<line x1="153" y1="451" x2="168" y2="421" stroke="rgb(51,34,136)" stroke-width="1"/>
<line x1="168" y1="421" x2="183" y2="434" stroke="rgb(51,34,136)" stroke-width="1"/>
<line x1="183" y1="434" x2="198" y2="468" stroke="rgb(51,34,136)" stroke-width="1"/>
<line x1="198" y1="468" x2="213" y2="445" stroke="rgb(51,34,136)" stroke-width="1"/>
<line x1="213" y1="445" x2="228" y2="461" stroke="rgb(51,34,136)" stroke-width="1"/>
<line x1="228" y1="461" x2="243" y2="444" stroke="rgb(51,34,136)" stroke-width="1"/>
<line x1="243" y1="444" x2="258" y2="473" stroke="rgb(51,34,136)" stroke-width="1"/>
<line x1="258" y1="473" x2="273" y2="404" stroke="rgb(51,34,136)" stroke-width="1"/>
<line x1="273" y1="404" x2="288" y2="454" stroke="rgb(51,34,136)" stroke-width="1"/>
<line x1="288" y1="454" x2="303" y2="471" stroke="rgb(51,34,136)" stroke-width="1"/>
<line x1="303" y1="471" x2="318" y2="457" stroke="rgb(51,34,136)" stroke-width="1"/>
<line x1="318" y1="457" x2="333" y2="443" stroke="rgb(51,34,136)" stroke-width="1"/>
<line x1="333" y1="443" x2="348" y2="471" stroke="rgb(51,34,136)" stroke-width="1"/>
<line x1="348" y1="471" x2="363" y2="475" stroke="rgb(51,34,136)" stroke-width="1"/>
<line x1="363" y1="475" x2="378" y2="477" stroke="rgb(51,34,136)" stroke-width="1"/>
<line x1="378" y1="477" x2="393" y2="463" stroke="rgb(51,34,136)" stroke-width="1"/>
<line x1="393" y1="463" x2="408" y2="454" stroke="rgb(51,34,136)" stroke-width="1"/>
<line x1="408" y1="454" x2="423" y2="435" stroke="rgb(51,34,136)" stroke-width="1"/>
<line x1="423" y1="435" x2="438" y2="446" stroke="rgb(51,34,136)" stroke-width="1"/>
<line x1="438" y1="446" x2="453" y2="488" stroke="rgb(51,34,136)" stroke-width="1"/>
<line x1="453" y1="488" x2="468" y2="480" stroke="rgb(51,34,136)" stroke-width="1"/>
<line x1="468" y1="480" x2="483" y2="498" stroke="rgb(51,34,136)" stroke-width="1"/>
<line x1="483" y1="498" x2="498" y2="475" stroke="rgb(51,34,136)" stroke-width="1"/>
<line x1="498" y1="475" x2="513" y2="407" stroke="rgb(51,34,136)" stroke-width="1"/>
<line x1="513" y1="407" x2="528" y2="452" stroke="rgb(51,34,136)" stroke-width="1"/>
<line x1="528" y1="452" x2="543" y2="455" stroke="rgb(51,34,136)" stroke-width="1"/>
<line x1="543" y1="455" x2="558" y2="471" stroke="rgb(51,34,136)" stroke-width="1"/>
<line x1="558" y1="471" x2="573" y2="450" stroke="rgb(51,34,136)" stroke-width="1"/>
<line x1="573" y1="450" x2="588" y2="433" stroke="rgb(51,34,136)" stroke-width="1"/>
<line x1="588" y1="433" x2="603" y2="448" stroke="rgb(51,34,136)" stroke-width="1"/>
<line x1="603" y1="448" x2="618" y2="413" stroke="rgb(51,34,136)" stroke-width="1"/>
<line x1="618" y1="413" x2="633" y2="352" stroke="rgb(51,34,136)" stroke-width="1"/>
<line x1="633" y1="352" x2="648" y2="387" stroke="rgb(51,34,136)" stroke-width="1"/>
<line x1="648" y1="387" x2="663" y2="358" stroke="rgb(51,34,136)" stroke-width="1"/>
<line x1="663" y1="358" x2="678" y2="413" stroke="rgb(51,34,136)" stroke-width="1"/>
<line x1="678" y1="413" x2="693" y2="333" stroke="rgb(51,34,136)" stroke-width="1"/>
<line x1="693" y1="333" x2="708" y2="418" stroke="rgb(51,34,136)" stroke-width="1"/>
<line x1="708" y1="418" x2="723" y2="384" stroke="rgb(51,34,136)" stroke-width="1"/>
<line x1="723" y1="384" x2="738" y2="337" stroke="rgb(51,34,136)" stroke-width="1"/>
<line x1="738" y1="337" x2="753" y2="391" stroke="rgb(51,34,136)" stroke-width="1"/>
<line x1="753" y1="391" x2="768" y2="412" stroke="rgb(51,34,136)" stroke-width="1"/>
<line x1="33" y1="451" x2="48" y2="454" stroke="rgb(17,119,51)" stroke-width="1"/>
<line x1="48" y1="454" x2="63" y2="427" stroke="rgb(17,119,51)" stroke-width="1"/>
<line x1="63" y1="427" x2="78" y2="463" stroke="rgb(17,119,51)" stroke-width="1"/>
<line x1="78" y1="463" x2="93" y2="404" stroke="rgb(17,119,51)" stroke-width="1"/>
<line x1="93" y1="404" x2="108" y2="469" stroke="rgb(17,119,51)" stroke-width="1"/>
<line x1="108" y1="469" x2="123" y2="471" stroke="rgb(17,119,51)" stroke-width="1"/>
<line x1="123" y1="471" x2="138" y2="461" stroke="rgb(17,119,51)" stroke-width="1"/>
<line x1="138" y1="461" x2="153" y2="383" stroke="rgb(17,119,51)" stroke-width="1"/>
<line x1="153" y1="383" x2="168" y2="462" stroke="rgb(17,119,51)" stroke-width="1"/>
<line x1="168" y1="462" x2="183" y2="436" stroke="rgb(17,119,51)" stroke-width="1"/>
<line x1="183" y1="436" x2="198" y2="462" stroke="rgb(17,119,51)" stroke-width="1"/>
<line x1="198" y1="462" x2="213" y2="406" stroke="rgb(17,119,51)" stroke-width="1"/>
<line x1="213" y1="406" x2="228" y2="433" stroke="rgb(17,119,51)" stroke-width="1"/>
<line x1="228" y1="433" x2="243" y2="406" stroke="rgb(17,119,51)" stroke-width="1"/>
<line x1="243" y1="406" x2="258" y2="376" stroke="rgb(17,119,51)" stroke-width="1"/>
<line x1="258" y1="376" x2="273" y2="449" stroke="rgb(17,119,51)" stroke-width="1"/>
<line x1="273" y1="449" x2="288" y2="447" stroke="rgb(17,119,51)" stroke-width="1"/>
<line x1="288" y1="447" x2="303" y2="452" stroke="rgb(17,119,51)" stroke-width="1"/>
<line x1="303" y1="452" x2="318" y2="425" stroke="rgb(17,119,51)" stroke-width="1"/>
<line x1="318" y1="425" x2="333" y2="409" stroke="rgb(17,119,51)" stroke-width="1"/>
<line x1="333" y1="409" x2="348" y2="378" stroke="rgb(17,119,51)" stroke-width="1"/>
<line x1="348" y1="378" x2="363" y2="404" stroke="rgb(17,119,51)" stroke-width="1"/>
<line x1="363" y1="404" x2="378" y2="397" stroke="rgb(17,119,51)" stroke-width="1"/>
<line x1="378" y1="397" x2="393" y2="374" stroke="rgb(17,119,51)" stroke-width="1"/>
<line x1="393" y1="374" x2="408" y2="391" stroke="rgb(17,119,51)" stroke-width="1"/>
<line x1="408" y1="391" x2="423" y2="427" stroke="rgb(17,119,51)" stroke-width="1"/>
<line x1="423" y1="427" x2="438" y2="429" stroke="rgb(17,119,51)" stroke-width="1"/>
<line x1="438" y1="429" x2="453" y2="332" stroke="rgb(17,119,51)" stroke-width="1"/>
<line x1="453" y1="332" x2="468" y2="392" stroke="rgb(17,119,51)" stroke-width="1"/>
<line x1="468" y1="392" x2="483" y2="339" stroke="rgb(17,119,51)" stroke-width="1"/>
<line x1="483" y1="339" x2="498" y2="404" stroke="rgb(17,119,51)" stroke-width="1"/>
<line x1="498" y1="404" x2="513" y2="392" stroke="rgb(17,119,51)" stroke-width="1"/>
<line x1="513" y1="392" x2="528" y2="419" stroke="rgb(17,119,51)" stroke-width="1"/>
<line x1="528" y1="419" x2="543" y2="409" stroke="rgb(17,119,51)" stroke-width="1"/>
<line x1="543" y1="409" x2="558" y2="315" stroke="rgb(17,119,51)" stroke-width="1"/>
<line x1="558" y1="315" x2="573" y2="296" stroke="rgb(17,119,51)" stroke-width="1"/>
<line x1="573" y1="296" x2="588" y2="383" stroke="rgb(17,119,51)" stroke-width="1"/>
<line x1="588" y1="383" x2="603" y2="341" stroke="rgb(17,119,51)" stroke-width="1"/>
<line x1="603" y1="341" x2="618" y2="417" stroke="rgb(17,119,51)" stroke-width="1"/>
<line x1="618" y1="417" x2="633" y2="421" stroke="rgb(17,119,51)" stroke-width="1"/>
<line x1="633" y1="421" x2="648" y2="367" stroke="rgb(17,119,51)" stroke-width="1"/>
<line x1="648" y1="367" x2="663" y2="412" stroke="rgb(17,119,51)" stroke-width="1"/>
<line x1="663" y1="412" x2="678" y2="376" stroke="rgb(17,119,51)" stroke-width="1"/>
<line x1="678" y1="376" x2="693" y2="425" stroke="rgb(17,119,51)" stroke-width="1"/>
<line x1="693" y1="425" x2="708" y2="425" stroke="rgb(17,119,51)" stroke-width="1"/>
<line x1="708" y1="425" x2="723" y2="463" stroke="rgb(17,119,51)" stroke-width="1"/>
<line x1="723" y1="463" x2="738" y2="461" stroke="rgb(17,119,51)" stroke-width="1"/>
<line x1="738" y1="461" x2="753" y2="468" stroke="rgb(17,119,51)" stroke-width="1"/>
<line x1="753" y1="468" x2="768" y2="428" stroke="rgb(17,119,51)" stroke-width="1"/>
<line x1="33" y1="457" x2="48" y2="424" stroke="rgb(221,204,119)" stroke-width="1"/>
<line x1="48" y1="424" x2="63" y2="433" stroke="rgb(221,204,119)" stroke-width="1"/>
<line x1="63" y1="433" x2="78" y2="362" stroke="rgb(221,204,119)" stroke-width="1"/>
<line x1="78" y1="362" x2="93" y2="440" stroke="rgb(221,204,119)" stroke-width="1"/>
<line x1="93" y1="440" x2="108" y2="417" stroke="rgb(221,204,119)" stroke-width="1"/>
<line x1="108" y1="417" x2="123" y2="402" stroke="rgb(221,204,119)" stroke-width="1"/>
<line x1="123" y1="402" x2="138" y2="428" stroke="rgb(221,204,119)" stroke-width="1"/>
<line x1="138" y1="428" x2="153" y2="438" stroke="rgb(221,204,119)" stroke-width="1"/>
<line x1="153" y1="438" x2="168" y2="407" stroke="rgb(221,204,119)" stroke-width="1"/>
<line x1="168" y1="407" x2="183" y2="398" stroke="rgb(221,204,119)" stroke-width="1"/>
<line x1="183" y1="398" x2="198" y2="426" stroke="rgb(221,204,119)" stroke-width="1"/>
<line x1="198" y1="426" x2="213" y2="433" stroke="rgb(221,204,119)" stroke-width="1"/>
<line x1="213" y1="433" x2="228" y2="377" stroke="rgb(221,204,119)" stroke-width="1"/>
<line x1="228" y1="377" x2="243" y2="421" stroke="rgb(221,204,119)" stroke-width="1"/>
<line x1="243" y1="421" x2="258" y2="433" stroke="rgb(221,204,119)" stroke-width="1"/>
<line x1="258" y1="433" x2="273" y2="440" stroke="rgb(221,204,119)" stroke-width="1"/>
<line x1="273" y1="440" x2="288" y2="427" stroke="rgb(221,204,119)" stroke-width="1"/>
<line x1="288" y1="427" x2="303" y2="426" stroke="rgb(221,204,119)" stroke-width="1"/>
<line x1="303" y1="426" x2="318" y2="399" stroke="rgb(221,204,119)" stroke-width="1"/>
<line x1="318" y1="399" x2="333" y2="442" stroke="rgb(221,204,119)" stroke-width="1"/>
<line x1="333" y1="442" x2="348" y2="431" stroke="rgb(221,204,119)" stroke-width="1"/>
<line x1="348" y1="431" x2="363" y2="438" stroke="rgb(221,204,119)" stroke-width="1"/>
<line x1="363" y1="438" x2="378" y2="439" stroke="rgb(221,204,119)" stroke-width="1"/>
<line x1="378" y1="439" x2="393" y2="418" stroke="rgb(221,204,119)" stroke-width="1"/>
<line x1="393" y1="418" x2="408" y2="436" stroke="rgb(221,204,119)" stroke-width="1"/>
<line x1="408" y1="436" x2="423" y2="431" stroke="rgb(221,204,119)" stroke-width="1"/>
<line x1="423" y1="431" x2="438" y2="374" stroke="rgb(221,204,119)" stroke-width="1"/>
<line x1="438" y1="374" x2="453" y2="404" stroke="rgb(221,204,119)" stroke-width="1"/>
<line x1="453" y1="404" x2="468" y2="344" stroke="rgb(221,204,119)" stroke-width="1"/>
<line x1="468" y1="344" x2="483" y2="398" stroke="rgb(221,204,119)" stroke-width="1"/>
<line x1="483" y1="398" x2="498" y2="418" stroke="rgb(221,204,119)" stroke-width="1"/>
<line x1="498" y1="418" x2="513" y2="420" stroke="rgb(221,204,119)" stroke-width="1"/>
<line x1="513" y1="420" x2="528" y2="335" stroke="rgb(221,204,119)" stroke-width="1"/>
<line x1="528" y1="335" x2="543" y2="327" stroke="rgb(221,204,119)" stroke-width="1"/>
<line x1="543" y1="327" x2="558" y2="408" stroke="rgb(221,204,119)" stroke-width="1"/>
<line x1="558" y1="408" x2="573" y2="442" stroke="rgb(221,204,119)" stroke-width="1"/>
<line x1="573" y1="442" x2="588" y2="373" stroke="rgb(221,204,119)" stroke-width="1"/>
<line x1="588" y1="373" x2="603" y2="423" stroke="rgb(221,204,119)" stroke-width="1"/>
<line x1="603" y1="423" x2="618" y2="380" stroke="rgb(221,204,119)" stroke-width="1"/>
<line x1="618" y1="380" x2="633" y2="453" stroke="rgb(221,204,119)" stroke-width="1"/>
<line x1="633" y1="453" x2="648" y2="470" stroke="rgb(221,204,119)" stroke-width="1"/>
<line x1="648" y1="470" x2="663" y2="466" stroke="rgb(221,204,119)" stroke-width="1"/>
<line x1="663" y1="466" x2="678" y2="469" stroke="rgb(221,204,119)" stroke-width="1"/>
<line x1="678" y1="469" x2="693" y2="475" stroke="rgb(221,204,119)" stroke-width="1"/>
<line x1="693" y1="475" x2="708" y2="415" stroke="rgb(221,204,119)" stroke-width="1"/>
<line x1="708" y1="415" x2="723" y2="473" stroke="rgb(221,204,119)" stroke-width="1"/>
<line x1="723" y1="473" x2="738" y2="483" stroke="rgb(221,204,119)" stroke-width="1"/>
<line x1="738" y1="483" x2="753" y2="478" stroke="rgb(221,204,119)" stroke-width="1"/>
<line x1="753" y1="478" x2="768" y2="416" stroke="rgb(221,204,119)" stroke-width="1"/>
<rect width="26" height="83" x="764" y="40" style="fill:rgb(255,255,255);stroke:none"/>
<rect width="26" height="83" x="764" y="40" rx="0" ry="0" style="fill:none;stroke-width:1;stroke:rgb(192,192,192)"/>
<text x="767" y="55" fill="rgb(136,34,85)" font-family="Arial" font-size="12" font-weight="bold">%T</text>
<text x="767" y="75" fill="rgb(51,34,136)" font-family="Arial" font-size="12" font-weight="bold">%C</text>
<text x="767" y="95" fill="rgb(17,119,51)" font-family="Arial" font-size="12" font-weight="bold">%A</text>
<text x="767" y="115" fill="rgb(221,204,119)" font-family="Arial" font-size="12" font-weight="bold">%G</text>
</svg>
