<?xml version="1.0" standalone="no"?>
<!DOCTYPE svg PUBLIC "-//W3C//DTD SVG 1.1//EN" "http://www.w3.org/Graphics/SVG/1.1/DTD/svg11.dtd">
<svg width="800" height="600" version="1.1" xmlns="http://www.w3.org/2000/svg">
<rect width="800" height="600" x="0" y="0" style="fill:rgb(238,238,238);stroke:none"/>
<rect width="800" height="600" x="0" y="0" style="fill:rgb(255,255,255);stroke:none"/>
<text x="2" y="566" fill="rgb(0,0,0)" font-family="Arial" font-size="12">0</text>
<text x="2" y="509" fill="rgb(0,0,0)" font-family="Arial" font-size="12">100000</text>
<text x="2" y="451" fill="rgb(0,0,0)" font-family="Arial" font-size="12">200000</text>
<text x="2" y="393" fill="rgb(0,0,0)" font-family="Arial" font-size="12">300000</text>
<text x="2" y="336" fill="rgb(0,0,0)" font-family="Arial" font-size="12">400000</text>
<text x="2" y="278" fill="rgb(0,0,0)" font-family="Arial" font-size="12">500000</text>
<text x="2" y="220" fill="rgb(0,0,0)" font-family="Arial" font-size="12">600000</text>
<text x="2" y="163" fill="rgb(0,0,0)" font-family="Arial" font-size="12">700000</text>
<text x="2" y="105" fill="rgb(0,0,0)" font-family="Arial" font-size="12">800000</text>
<text x="2" y="47" fill="rgb(0,0,0)" font-family="Arial" font-size="12">900000</text>
<text x="295" y="30" fill="rgb(0,0,0)" font-family="Arial" font-size="12">Quality score distribution over all sequences</text>
<line x1="47" y1="560" x2="790" y2="560" stroke="rgb(0,0,0)" stroke-width="1"/>
<line x1="47" y1="560" x2="47" y2="40" stroke="rgb(0,0,0)" stroke-width="1"/>
<text x="295" y="595" fill="rgb(0,0,0)" font-family="Arial" font-size="12">Mean Sequence Quality (Phred Score)</text>
<text x="57" y="575" fill="rgb(0,0,0)" font-family="Arial" font-size="12">17</text>
<rect width="35" height="520" x="82" y="40" style="fill:rgb(230,230,230);stroke:none"/>
<text x="92" y="575" fill="rgb(0,0,0)" font-family="Arial" font-size="12">18</text>
<text x="127" y="575" fill="rgb(0,0,0)" font-family="Arial" font-size="12">19</text>
<rect width="35" height="520" x="152" y="40" style="fill:rgb(230,230,230);stroke:none"/>
<text x="162" y="575" fill="rgb(0,0,0)" font-family="Arial" font-size="12">20</text>
<text x="197" y="575" fill="rgb(0,0,0)" font-family="Arial" font-size="12">21</text>
<rect width="35" height="520" x="222" y="40" style="fill:rgb(230,230,230);stroke:none"/>
<text x="232" y="575" fill="rgb(0,0,0)" font-family="Arial" font-size="12">22</text>
<text x="267" y="575" fill="rgb(0,0,0)" font-family="Arial" font-size="12">23</text>
<rect width="35" height="520" x="292" y="40" style="fill:rgb(230,230,230);stroke:none"/>
<text x="302" y="575" fill="rgb(0,0,0)" font-family="Arial" font-size="12">24</text>
<text x="337" y="575" fill="rgb(0,0,0)" font-family="Arial" font-size="12">25</text>
<rect width="35" height="520" x="362" y="40" style="fill:rgb(230,230,230);stroke:none"/>
<text x="372" y="575" fill="rgb(0,0,0)" font-family="Arial" font-size="12">26</text>
<text x="407" y="575" fill="rgb(0,0,0)" font-family="Arial" font-size="12">27</text>
<rect width="35" height="520" x="432" y="40" style="fill:rgb(230,230,230);stroke:none"/>
<text x="442" y="575" fill="rgb(0,0,0)" font-family="Arial" font-size="12">28</text>
<text x="477" y="575" fill="rgb(0,0,0)" font-family="Arial" font-size="12">29</text>
<rect width="35" height="520" x="502" y="40" style="fill:rgb(230,230,230);stroke:none"/>
<text x="512" y="575" fill="rgb(0,0,0)" font-family="Arial" font-size="12">30</text>
<text x="547" y="575" fill="rgb(0,0,0)" font-family="Arial" font-size="12">31</text>
<rect width="35" height="520" x="572" y="40" style="fill:rgb(230,230,230);stroke:none"/>
<text x="582" y="575" fill="rgb(0,0,0)" font-family="Arial" font-size="12">32</text>
<text x="617" y="575" fill="rgb(0,0,0)" font-family="Arial" font-size="12">33</text>
<rect width="35" height="520" x="642" y="40" style="fill:rgb(230,230,230);stroke:none"/>
<text x="652" y="575" fill="rgb(0,0,0)" font-family="Arial" font-size="12">34</text>
<text x="687" y="575" fill="rgb(0,0,0)" font-family="Arial" font-size="12">35</text>
<rect width="35" height="520" x="712" y="40" style="fill:rgb(230,230,230);stroke:none"/>
<text x="722" y="575" fill="rgb(0,0,0)" font-family="Arial" font-size="12">36</text>
<text x="757" y="575" fill="rgb(0,0,0)" font-family="Arial" font-size="12">37</text>
<line x1="47" y1="560" x2="790" y2="560" stroke="rgb(180,180,180)" stroke-width="1"/>
<line x1="47" y1="503" x2="790" y2="503" stroke="rgb(180,180,180)" stroke-width="1"/>
<line x1="47" y1="445" x2="790" y2="445" stroke="rgb(180,180,180)" stroke-width="1"/>
<line x1="47" y1="387" x2="790" y2="387" stroke="rgb(180,180,180)" stroke-width="1"/>
<line x1="47" y1="330" x2="790" y2="330" stroke="rgb(180,180,180)" stroke-width="1"/>
<line x1="47" y1="272" x2="790" y2="272" stroke="rgb(180,180,180)" stroke-width="1"/>
<line x1="47" y1="214" x2="790" y2="214" stroke="rgb(180,180,180)" stroke-width="1"/>
<line x1="47" y1="157" x2="790" y2="157" stroke="rgb(180,180,180)" stroke-width="1"/>
<line x1="47" y1="99" x2="790" y2="99" stroke="rgb(180,180,180)" stroke-width="1"/>
<line x1="47" y1="41" x2="790" y2="41" stroke="rgb(180,180,180)" stroke-width="1"/>
<line x1="64" y1="560" x2="99" y2="560" stroke="rgb(136,34,85)" stroke-width="1"/>
<line x1="99" y1="560" x2="134" y2="560" stroke="rgb(136,34,85)" stroke-width="1"/>
<line x1="134" y1="560" x2="169" y2="560" stroke="rgb(136,34,85)" stroke-width="1"/>
<line x1="169" y1="560" x2="204" y2="560" stroke="rgb(136,34,85)" stroke-width="1"/>
<line x1="204" y1="560" x2="239" y2="560" stroke="rgb(136,34,85)" stroke-width="1"/>
<line x1="239" y1="560" x2="274" y2="560" stroke="rgb(136,34,85)" stroke-width="1"/>
<line x1="274" y1="560" x2="309" y2="560" stroke="rgb(136,34,85)" stroke-width="1"/>
<line x1="309" y1="560" x2="344" y2="560" stroke="rgb(136,34,85)" stroke-width="1"/>
<line x1="344" y1="560" x2="379" y2="560" stroke="rgb(136,34,85)" stroke-width="1"/>
<line x1="379" y1="560" x2="414" y2="559" stroke="rgb(136,34,85)" stroke-width="1"/>
<line x1="414" y1="559" x2="449" y2="558" stroke="rgb(136,34,85)" stroke-width="1"/>
<line x1="449" y1="558" x2="484" y2="556" stroke="rgb(136,34,85)" stroke-width="1"/>
<line x1="484" y1="556" x2="519" y2="555" stroke="rgb(136,34,85)" stroke-width="1"/>
<line x1="519" y1="555" x2="554" y2="552" stroke="rgb(136,34,85)" stroke-width="1"/>
<line x1="554" y1="552" x2="589" y2="550" stroke="rgb(136,34,85)" stroke-width="1"/>
<line x1="589" y1="550" x2="624" y2="547" stroke="rgb(136,34,85)" stroke-width="1"/>
<line x1="624" y1="547" x2="659" y2="540" stroke="rgb(136,34,85)" stroke-width="1"/>
<line x1="659" y1="540" x2="694" y2="501" stroke="rgb(136,34,85)" stroke-width="1"/>
<line x1="694" y1="501" x2="729" y2="70" stroke="rgb(136,34,85)" stroke-width="1"/>
<line x1="729" y1="70" x2="764" y2="40" stroke="rgb(136,34,85)" stroke-width="1"/>
<rect width="156" height="23" x="634" y="40" style="fill:rgb(255,255,255);stroke:none"/>
<rect width="156" height="23" x="634" y="40" rx="0" ry="0" style="fill:none;stroke-width:1;stroke:rgb(192,192,192)"/>
<text x="637" y="55" fill="rgb(136,34,85)" font-family="Arial" font-size="12" font-weight="bold">Average Quality per read</text>
</svg>
