<?xml version="1.0" standalone="no"?>
<!DOCTYPE svg PUBLIC "-//W3C//DTD SVG 1.1//EN" "http://www.w3.org/Graphics/SVG/1.1/DTD/svg11.dtd">
<svg width="800" height="600" version="1.1" xmlns="http://www.w3.org/2000/svg">
<rect width="800" height="600" x="0" y="0" style="fill:rgb(238,238,238);stroke:none"/>
<rect width="800" height="600" x="0" y="0" style="fill:rgb(255,255,255);stroke:none"/>
<text x="2" y="566" fill="rgb(0,0,0)" font-family="Arial" font-size="12">0</text>
<text x="2" y="513" fill="rgb(0,0,0)" font-family="Arial" font-size="12">200000</text>
<text x="2" y="460" fill="rgb(0,0,0)" font-family="Arial" font-size="12">400000</text>
<text x="2" y="406" fill="rgb(0,0,0)" font-family="Arial" font-size="12">600000</text>
<text x="2" y="353" fill="rgb(0,0,0)" font-family="Arial" font-size="12">800000</text>
<text x="2" y="299" fill="rgb(0,0,0)" font-family="Arial" font-size="12">1000000</text>
<text x="2" y="246" fill="rgb(0,0,0)" font-family="Arial" font-size="12">1200000</text>
<text x="2" y="192" fill="rgb(0,0,0)" font-family="Arial" font-size="12">1400000</text>
<text x="2" y="139" fill="rgb(0,0,0)" font-family="Arial" font-size="12">1600000</text>
<text x="2" y="85" fill="rgb(0,0,0)" font-family="Arial" font-size="12">1800000</text>
<text x="279" y="30" fill="rgb(0,0,0)" font-family="Arial" font-size="12">Distribution of sequence lengths over all sequences</text>
<line x1="54" y1="560" x2="790" y2="560" stroke="rgb(0,0,0)" stroke-width="1"/>
<line x1="54" y1="560" x2="54" y2="40" stroke="rgb(0,0,0)" stroke-width="1"/>
<text x="340" y="595" fill="rgb(0,0,0)" font-family="Arial" font-size="12">Sequence Length (bp)</text>
<text x="59" y="575" fill="rgb(0,0,0)" font-family="Arial" font-size="12">0-1</text>
<rect width="28" height="520" x="82" y="40" style="fill:rgb(230,230,230);stroke:none"/>
<text x="87" y="575" fill="rgb(0,0,0)" font-family="Arial" font-size="12">2-3</text>
<text x="115" y="575" fill="rgb(0,0,0)" font-family="Arial" font-size="12">4-5</text>
<rect width="28" height="520" x="138" y="40" style="fill:rgb(230,230,230);stroke:none"/>
<text x="143" y="575" fill="rgb(0,0,0)" font-family="Arial" font-size="12">6-7</text>
<text x="171" y="575" fill="rgb(0,0,0)" font-family="Arial" font-size="12">8-9</text>
<rect width="28" height="520" x="194" y="40" style="fill:rgb(230,230,230);stroke:none"/>
<text x="220" y="575" fill="rgb(0,0,0)" font-family="Arial" font-size="12">12-13</text>
<rect width="28" height="520" x="250" y="40" style="fill:rgb(230,230,230);stroke:none"/>
<text x="276" y="575" fill="rgb(0,0,0)" font-family="Arial" font-size="12">16-17</text>
<rect width="28" height="520" x="306" y="40" style="fill:rgb(230,230,230);stroke:none"/>
<text x="332" y="575" fill="rgb(0,0,0)" font-family="Arial" font-size="12">20-21</text>
<rect width="28" height="520" x="362" y="40" style="fill:rgb(230,230,230);stroke:none"/>
<text x="388" y="575" fill="rgb(0,0,0)" font-family="Arial" font-size="12">24-25</text>
<rect width="28" height="520" x="418" y="40" style="fill:rgb(230,230,230);stroke:none"/>
<text x="444" y="575" fill="rgb(0,0,0)" font-family="Arial" font-size="12">28-29</text>
<rect width="28" height="520" x="474" y="40" style="fill:rgb(230,230,230);stroke:none"/>
<text x="500" y="575" fill="rgb(0,0,0)" font-family="Arial" font-size="12">32-33</text>
<rect width="28" height="520" x="530" y="40" style="fill:rgb(230,230,230);stroke:none"/>
<text x="556" y="575" fill="rgb(0,0,0)" font-family="Arial" font-size="12">36-37</text>
<rect width="28" height="520" x="586" y="40" style="fill:rgb(230,230,230);stroke:none"/>
<text x="612" y="575" fill="rgb(0,0,0)" font-family="Arial" font-size="12">40-41</text>
<rect width="28" height="520" x="642" y="40" style="fill:rgb(230,230,230);stroke:none"/>
<text x="668" y="575" fill="rgb(0,0,0)" font-family="Arial" font-size="12">44-45</text>
<rect width="28" height="520" x="698" y="40" style="fill:rgb(230,230,230);stroke:none"/>
<text x="724" y="575" fill="rgb(0,0,0)" font-family="Arial" font-size="12">48-49</text>
<rect width="28" height="520" x="754" y="40" style="fill:rgb(230,230,230);stroke:none"/>
<line x1="54" y1="560" x2="790" y2="560" stroke="rgb(180,180,180)" stroke-width="1"/>
<line x1="54" y1="507" x2="790" y2="507" stroke="rgb(180,180,180)" stroke-width="1"/>
<line x1="54" y1="454" x2="790" y2="454" stroke="rgb(180,180,180)" stroke-width="1"/>
<line x1="54" y1="400" x2="790" y2="400" stroke="rgb(180,180,180)" stroke-width="1"/>
<line x1="54" y1="347" x2="790" y2="347" stroke="rgb(180,180,180)" stroke-width="1"/>
<line x1="54" y1="293" x2="790" y2="293" stroke="rgb(180,180,180)" stroke-width="1"/>
<line x1="54" y1="240" x2="790" y2="240" stroke="rgb(180,180,180)" stroke-width="1"/>
<line x1="54" y1="186" x2="790" y2="186" stroke="rgb(180,180,180)" stroke-width="1"/>
<line x1="54" y1="133" x2="790" y2="133" stroke="rgb(180,180,180)" stroke-width="1"/>
<line x1="54" y1="79" x2="790" y2="79" stroke="rgb(180,180,180)" stroke-width="1"/>
<line x1="68" y1="560" x2="96" y2="560" stroke="rgb(136,34,85)" stroke-width="1"/>
<line x1="96" y1="560" x2="124" y2="560" stroke="rgb(136,34,85)" stroke-width="1"/>
<line x1="124" y1="560" x2="152" y2="560" stroke="rgb(136,34,85)" stroke-width="1"/>
<line x1="152" y1="560" x2="180" y2="560" stroke="rgb(136,34,85)" stroke-width="1"/>
<line x1="180" y1="560" x2="208" y2="560" stroke="rgb(136,34,85)" stroke-width="1"/>
<line x1="208" y1="560" x2="236" y2="560" stroke="rgb(136,34,85)" stroke-width="1"/>
<line x1="236" y1="560" x2="264" y2="560" stroke="rgb(136,34,85)" stroke-width="1"/>
<line x1="264" y1="560" x2="292" y2="560" stroke="rgb(136,34,85)" stroke-width="1"/>
<line x1="292" y1="560" x2="320" y2="560" stroke="rgb(136,34,85)" stroke-width="1"/>
<line x1="320" y1="560" x2="348" y2="560" stroke="rgb(136,34,85)" stroke-width="1"/>
<line x1="348" y1="560" x2="376" y2="560" stroke="rgb(136,34,85)" stroke-width="1"/>
<line x1="376" y1="560" x2="404" y2="560" stroke="rgb(136,34,85)" stroke-width="1"/>
<line x1="404" y1="560" x2="432" y2="560" stroke="rgb(136,34,85)" stroke-width="1"/>
<line x1="432" y1="560" x2="460" y2="560" stroke="rgb(136,34,85)" stroke-width="1"/>
<line x1="460" y1="560" x2="488" y2="560" stroke="rgb(136,34,85)" stroke-width="1"/>
<line x1="488" y1="560" x2="516" y2="560" stroke="rgb(136,34,85)" stroke-width="1"/>
<line x1="516" y1="560" x2="544" y2="560" stroke="rgb(136,34,85)" stroke-width="1"/>
<line x1="544" y1="560" x2="572" y2="560" stroke="rgb(136,34,85)" stroke-width="1"/>
<line x1="572" y1="560" x2="600" y2="560" stroke="rgb(136,34,85)" stroke-width="1"/>
<line x1="600" y1="560" x2="628" y2="560" stroke="rgb(136,34,85)" stroke-width="1"/>
<line x1="628" y1="560" x2="656" y2="560" stroke="rgb(136,34,85)" stroke-width="1"/>
<line x1="656" y1="560" x2="684" y2="560" stroke="rgb(136,34,85)" stroke-width="1"/>
<line x1="684" y1="560" x2="712" y2="560" stroke="rgb(136,34,85)" stroke-width="1"/>
<line x1="712" y1="560" x2="740" y2="556" stroke="rgb(136,34,85)" stroke-width="1"/>
<line x1="740" y1="556" x2="768" y2="40" stroke="rgb(136,34,85)" stroke-width="1"/>
<rect width="110" height="23" x="680" y="40" style="fill:rgb(255,255,255);stroke:none"/>
<rect width="110" height="23" x="680" y="40" rx="0" ry="0" style="fill:none;stroke-width:1;stroke:rgb(192,192,192)"/>
<text x="683" y="55" fill="rgb(136,34,85)" font-family="Arial" font-size="12" font-weight="bold">Sequence Length</text>
</svg>
