<?xml version="1.0" standalone="no"?>
<!DOCTYPE svg PUBLIC "-//W3C//DTD SVG 1.1//EN" "http://www.w3.org/Graphics/SVG/1.1/DTD/svg11.dtd">
<svg width="800" height="600" version="1.1" xmlns="http://www.w3.org/2000/svg">
<rect width="800" height="600" x="0" y="0" style="fill:rgb(238,238,238);stroke:none"/>
<rect width="800" height="600" x="0" y="0" style="fill:rgb(255,255,255);stroke:none"/>
<text x="2" y="566" fill="rgb(0,0,0)" font-family="Arial" font-size="12">0</text>
<text x="2" y="538" fill="rgb(0,0,0)" font-family="Arial" font-size="12">2</text>
<text x="2" y="510" fill="rgb(0,0,0)" font-family="Arial" font-size="12">4</text>
<text x="2" y="482" fill="rgb(0,0,0)" font-family="Arial" font-size="12">6</text>
<text x="2" y="454" fill="rgb(0,0,0)" font-family="Arial" font-size="12">8</text>
<text x="2" y="426" fill="rgb(0,0,0)" font-family="Arial" font-size="12">10</text>
<text x="2" y="398" fill="rgb(0,0,0)" font-family="Arial" font-size="12">12</text>
<text x="2" y="370" fill="rgb(0,0,0)" font-family="Arial" font-size="12">14</text>
<text x="2" y="342" fill="rgb(0,0,0)" font-family="Arial" font-size="12">16</text>
<text x="2" y="314" fill="rgb(0,0,0)" font-family="Arial" font-size="12">18</text>
<text x="2" y="285" fill="rgb(0,0,0)" font-family="Arial" font-size="12">20</text>
<text x="2" y="257" fill="rgb(0,0,0)" font-family="Arial" font-size="12">22</text>
<text x="2" y="229" fill="rgb(0,0,0)" font-family="Arial" font-size="12">24</text>
<text x="2" y="201" fill="rgb(0,0,0)" font-family="Arial" font-size="12">26</text>
<text x="2" y="173" fill="rgb(0,0,0)" font-family="Arial" font-size="12">28</text>
<text x="2" y="145" fill="rgb(0,0,0)" font-family="Arial" font-size="12">30</text>
<text x="2" y="117" fill="rgb(0,0,0)" font-family="Arial" font-size="12">32</text>
<text x="2" y="89" fill="rgb(0,0,0)" font-family="Arial" font-size="12">34</text>
<text x="2" y="61" fill="rgb(0,0,0)" font-family="Arial" font-size="12">36</text>
<text x="229" y="30" fill="rgb(0,0,0)" font-family="Arial" font-size="12">Quality scores across all bases (Sanger / Illumina 1.9 encoding)</text>
<rect width="20" height="281" x="19" y="279" style="fill:rgb(230,175,175);stroke:none"/>
<rect width="20" height="112" x="19" y="167" style="fill:rgb(230,215,175);stroke:none"/>
<rect width="20" height="127" x="19" y="40" style="fill:rgb(175,230,175);stroke:none"/>
<text x="26" y="575" fill="rgb(0,0,0)" font-family="Arial" font-size="12">1</text>
<rect width="20" height="281" x="39" y="279" style="fill:rgb(230,195,195);stroke:none"/>
<rect width="20" height="112" x="39" y="167" style="fill:rgb(230,220,195);stroke:none"/>
<rect width="20" height="127" x="39" y="40" style="fill:rgb(195,230,195);stroke:none"/>
<text x="46" y="575" fill="rgb(0,0,0)" font-family="Arial" font-size="12">2</text>
<rect width="20" height="281" x="59" y="279" style="fill:rgb(230,175,175);stroke:none"/>
<rect width="20" height="112" x="59" y="167" style="fill:rgb(230,215,175);stroke:none"/>
<rect width="20" height="127" x="59" y="40" style="fill:rgb(175,230,175);stroke:none"/>
<text x="66" y="575" fill="rgb(0,0,0)" font-family="Arial" font-size="12">3</text>
<rect width="20" height="281" x="79" y="279" style="fill:rgb(230,195,195);stroke:none"/>
<rect width="20" height="112" x="79" y="167" style="fill:rgb(230,220,195);stroke:none"/>
<rect width="20" height="127" x="79" y="40" style="fill:rgb(195,230,195);stroke:none"/>
<text x="86" y="575" fill="rgb(0,0,0)" font-family="Arial" font-size="12">4</text>
<rect width="20" height="281" x="99" y="279" style="fill:rgb(230,175,175);stroke:none"/>
<rect width="20" height="112" x="99" y="167" style="fill:rgb(230,215,175);stroke:none"/>
<rect width="20" height="127" x="99" y="40" style="fill:rgb(175,230,175);stroke:none"/>
<text x="106" y="575" fill="rgb(0,0,0)" font-family="Arial" font-size="12">5</text>
<rect width="20" height="281" x="119" y="279" style="fill:rgb(230,195,195);stroke:none"/>
<rect width="20" height="112" x="119" y="167" style="fill:rgb(230,220,195);stroke:none"/>
<rect width="20" height="127" x="119" y="40" style="fill:rgb(195,230,195);stroke:none"/>
<text x="126" y="575" fill="rgb(0,0,0)" font-family="Arial" font-size="12">6</text>
<rect width="20" height="281" x="139" y="279" style="fill:rgb(230,175,175);stroke:none"/>
<rect width="20" height="112" x="139" y="167" style="fill:rgb(230,215,175);stroke:none"/>
<rect width="20" height="127" x="139" y="40" style="fill:rgb(175,230,175);stroke:none"/>
<text x="146" y="575" fill="rgb(0,0,0)" font-family="Arial" font-size="12">7</text>
<rect width="20" height="281" x="159" y="279" style="fill:rgb(230,195,195);stroke:none"/>
<rect width="20" height="112" x="159" y="167" style="fill:rgb(230,220,195);stroke:none"/>
<rect width="20" height="127" x="159" y="40" style="fill:rgb(195,230,195);stroke:none"/>
<text x="166" y="575" fill="rgb(0,0,0)" font-family="Arial" font-size="12">8</text>
<rect width="20" height="281" x="179" y="279" style="fill:rgb(230,175,175);stroke:none"/>
<rect width="20" height="112" x="179" y="167" style="fill:rgb(230,215,175);stroke:none"/>
<rect width="20" height="127" x="179" y="40" style="fill:rgb(175,230,175);stroke:none"/>
<text x="186" y="575" fill="rgb(0,0,0)" font-family="Arial" font-size="12">9</text>
<rect width="20" height="281" x="199" y="279" style="fill:rgb(230,195,195);stroke:none"/>
<rect width="20" height="112" x="199" y="167" style="fill:rgb(230,220,195);stroke:none"/>
<rect width="20" height="127" x="199" y="40" style="fill:rgb(195,230,195);stroke:none"/>
<rect width="20" height="281" x="219" y="279" style="fill:rgb(230,175,175);stroke:none"/>
<rect width="20" height="112" x="219" y="167" style="fill:rgb(230,215,175);stroke:none"/>
<rect width="20" height="127" x="219" y="40" style="fill:rgb(175,230,175);stroke:none"/>
<text x="213" y="575" fill="rgb(0,0,0)" font-family="Arial" font-size="12">15-19</text>
<rect width="20" height="281" x="239" y="279" style="fill:rgb(230,195,195);stroke:none"/>
<rect width="20" height="112" x="239" y="167" style="fill:rgb(230,220,195);stroke:none"/>
<rect width="20" height="127" x="239" y="40" style="fill:rgb(195,230,195);stroke:none"/>
<rect width="20" height="281" x="259" y="279" style="fill:rgb(230,175,175);stroke:none"/>
<rect width="20" height="112" x="259" y="167" style="fill:rgb(230,215,175);stroke:none"/>
<rect width="20" height="127" x="259" y="40" style="fill:rgb(175,230,175);stroke:none"/>
<text x="253" y="575" fill="rgb(0,0,0)" font-family="Arial" font-size="12">25-29</text>
<rect width="20" height="281" x="279" y="279" style="fill:rgb(230,195,195);stroke:none"/>
<rect width="20" height="112" x="279" y="167" style="fill:rgb(230,220,195);stroke:none"/>
<rect width="20" height="127" x="279" y="40" style="fill:rgb(195,230,195);stroke:none"/>
<rect width="20" height="281" x="299" y="279" style="fill:rgb(230,175,175);stroke:none"/>
<rect width="20" height="112" x="299" y="167" style="fill:rgb(230,215,175);stroke:none"/>
<rect width="20" height="127" x="299" y="40" style="fill:rgb(175,230,175);stroke:none"/>
<text x="293" y="575" fill="rgb(0,0,0)" font-family="Arial" font-size="12">35-39</text>
<rect width="20" height="281" x="319" y="279" style="fill:rgb(230,195,195);stroke:none"/>
<rect width="20" height="112" x="319" y="167" style="fill:rgb(230,220,195);stroke:none"/>
<rect width="20" height="127" x="319" y="40" style="fill:rgb(195,230,195);stroke:none"/>
<rect width="20" height="281" x="339" y="279" style="fill:rgb(230,175,175);stroke:none"/>
<rect width="20" height="112" x="339" y="167" style="fill:rgb(230,215,175);stroke:none"/>
<rect width="20" height="127" x="339" y="40" style="fill:rgb(175,230,175);stroke:none"/>
<text x="333" y="575" fill="rgb(0,0,0)" font-family="Arial" font-size="12">45-49</text>
<rect width="20" height="281" x="359" y="279" style="fill:rgb(230,195,195);stroke:none"/>
<rect width="20" height="112" x="359" y="167" style="fill:rgb(230,220,195);stroke:none"/>
<rect width="20" height="127" x="359" y="40" style="fill:rgb(195,230,195);stroke:none"/>
<rect width="20" height="281" x="379" y="279" style="fill:rgb(230,175,175);stroke:none"/>
<rect width="20" height="112" x="379" y="167" style="fill:rgb(230,215,175);stroke:none"/>
<rect width="20" height="127" x="379" y="40" style="fill:rgb(175,230,175);stroke:none"/>
<text x="373" y="575" fill="rgb(0,0,0)" font-family="Arial" font-size="12">55-59</text>
<rect width="20" height="281" x="399" y="279" style="fill:rgb(230,195,195);stroke:none"/>
<rect width="20" height="112" x="399" y="167" style="fill:rgb(230,220,195);stroke:none"/>
<rect width="20" height="127" x="399" y="40" style="fill:rgb(195,230,195);stroke:none"/>
<rect width="20" height="281" x="419" y="279" style="fill:rgb(230,175,175);stroke:none"/>
<rect width="20" height="112" x="419" y="167" style="fill:rgb(230,215,175);stroke:none"/>
<rect width="20" height="127" x="419" y="40" style="fill:rgb(175,230,175);stroke:none"/>
<text x="413" y="575" fill="rgb(0,0,0)" font-family="Arial" font-size="12">65-69</text>
<rect width="20" height="281" x="439" y="279" style="fill:rgb(230,195,195);stroke:none"/>
<rect width="20" height="112" x="439" y="167" style="fill:rgb(230,220,195);stroke:none"/>
<rect width="20" height="127" x="439" y="40" style="fill:rgb(195,230,195);stroke:none"/>
<rect width="20" height="281" x="459" y="279" style="fill:rgb(230,175,175);stroke:none"/>
<rect width="20" height="112" x="459" y="167" style="fill:rgb(230,215,175);stroke:none"/>
<rect width="20" height="127" x="459" y="40" style="fill:rgb(175,230,175);stroke:none"/>
<text x="453" y="575" fill="rgb(0,0,0)" font-family="Arial" font-size="12">75-79</text>
<rect width="20" height="281" x="479" y="279" style="fill:rgb(230,195,195);stroke:none"/>
<rect width="20" height="112" x="479" y="167" style="fill:rgb(230,220,195);stroke:none"/>
<rect width="20" height="127" x="479" y="40" style="fill:rgb(195,230,195);stroke:none"/>
<rect width="20" height="281" x="499" y="279" style="fill:rgb(230,175,175);stroke:none"/>
<rect width="20" height="112" x="499" y="167" style="fill:rgb(230,215,175);stroke:none"/>
<rect width="20" height="127" x="499" y="40" style="fill:rgb(175,230,175);stroke:none"/>
<text x="493" y="575" fill="rgb(0,0,0)" font-family="Arial" font-size="12">85-89</text>
<rect width="20" height="281" x="519" y="279" style="fill:rgb(230,195,195);stroke:none"/>
<rect width="20" height="112" x="519" y="167" style="fill:rgb(230,220,195);stroke:none"/>
<rect width="20" height="127" x="519" y="40" style="fill:rgb(195,230,195);stroke:none"/>
<rect width="20" height="281" x="539" y="279" style="fill:rgb(230,175,175);stroke:none"/>
<rect width="20" height="112" x="539" y="167" style="fill:rgb(230,215,175);stroke:none"/>
<rect width="20" height="127" x="539" y="40" style="fill:rgb(175,230,175);stroke:none"/>
<text x="533" y="575" fill="rgb(0,0,0)" font-family="Arial" font-size="12">95-99</text>
<rect width="20" height="281" x="559" y="279" style="fill:rgb(230,195,195);stroke:none"/>
<rect width="20" height="112" x="559" y="167" style="fill:rgb(230,220,195);stroke:none"/>
<rect width="20" height="127" x="559" y="40" style="fill:rgb(195,230,195);stroke:none"/>
<rect width="20" height="281" x="579" y="279" style="fill:rgb(230,175,175);stroke:none"/>
<rect width="20" height="112" x="579" y="167" style="fill:rgb(230,215,175);stroke:none"/>
<rect width="20" height="127" x="579" y="40" style="fill:rgb(175,230,175);stroke:none"/>
<rect width="20" height="281" x="599" y="279" style="fill:rgb(230,195,195);stroke:none"/>
<rect width="20" height="112" x="599" y="167" style="fill:rgb(230,220,195);stroke:none"/>
<rect width="20" height="127" x="599" y="40" style="fill:rgb(195,230,195);stroke:none"/>
<text x="586" y="575" fill="rgb(0,0,0)" font-family="Arial" font-size="12">110-114</text>
<rect width="20" height="281" x="619" y="279" style="fill:rgb(230,175,175);stroke:none"/>
<rect width="20" height="112" x="619" y="167" style="fill:rgb(230,215,175);stroke:none"/>
<rect width="20" height="127" x="619" y="40" style="fill:rgb(175,230,175);stroke:none"/>
<rect width="20" height="281" x="639" y="279" style="fill:rgb(230,195,195);stroke:none"/>
<rect width="20" height="112" x="639" y="167" style="fill:rgb(230,220,195);stroke:none"/>
<rect width="20" height="127" x="639" y="40" style="fill:rgb(195,230,195);stroke:none"/>
<rect width="20" height="281" x="659" y="279" style="fill:rgb(230,175,175);stroke:none"/>
<rect width="20" height="112" x="659" y="167" style="fill:rgb(230,215,175);stroke:none"/>
<rect width="20" height="127" x="659" y="40" style="fill:rgb(175,230,175);stroke:none"/>
<text x="646" y="575" fill="rgb(0,0,0)" font-family="Arial" font-size="12">125-129</text>
<rect width="20" height="281" x="679" y="279" style="fill:rgb(230,195,195);stroke:none"/>
<rect width="20" height="112" x="679" y="167" style="fill:rgb(230,220,195);stroke:none"/>
<rect width="20" height="127" x="679" y="40" style="fill:rgb(195,230,195);stroke:none"/>
<rect width="20" height="281" x="699" y="279" style="fill:rgb(230,175,175);stroke:none"/>
<rect width="20" height="112" x="699" y="167" style="fill:rgb(230,215,175);stroke:none"/>
<rect width="20" height="127" x="699" y="40" style="fill:rgb(175,230,175);stroke:none"/>
<rect width="20" height="281" x="719" y="279" style="fill:rgb(230,195,195);stroke:none"/>
<rect width="20" height="112" x="719" y="167" style="fill:rgb(230,220,195);stroke:none"/>
<rect width="20" height="127" x="719" y="40" style="fill:rgb(195,230,195);stroke:none"/>
<text x="706" y="575" fill="rgb(0,0,0)" font-family="Arial" font-size="12">140-144</text>
<rect width="20" height="281" x="739" y="279" style="fill:rgb(230,175,175);stroke:none"/>
<rect width="20" height="112" x="739" y="167" style="fill:rgb(230,215,175);stroke:none"/>
<rect width="20" height="127" x="739" y="40" style="fill:rgb(175,230,175);stroke:none"/>
<rect width="20" height="281" x="759" y="279" style="fill:rgb(230,195,195);stroke:none"/>
<rect width="20" height="112" x="759" y="167" style="fill:rgb(230,220,195);stroke:none"/>
<rect width="20" height="127" x="759" y="40" style="fill:rgb(195,230,195);stroke:none"/>
<text x="759" y="575" fill="rgb(0,0,0)" font-family="Arial" font-size="12">150</text>
<line x1="19" y1="560" x2="790" y2="560" stroke="rgb(0,0,0)" stroke-width="1"/>
<line x1="19" y1="560" x2="19" y2="40" stroke="rgb(0,0,0)" stroke-width="1"/>
<text x="345" y="595" fill="rgb(0,0,0)" font-family="Arial" font-size="12">Position in read (bp)</text>
<rect width="16" height="0" x="21" y="40" style="fill:rgb(240,240,0);stroke:none"/>
<rect width="16" height="0" x="21" y="40" rx="0" ry="0" style="fill:none;stroke-width:1;stroke:rgb(0,0,0)"/>
<line x1="29" y1="40" x2="29" y2="40" stroke="rgb(0,0,0)" stroke-width="1"/>
<line x1="21" y1="40" x2="37" y2="40" stroke="rgb(0,0,0)" stroke-width="1"/>
<line x1="29" y1="40" x2="29" y2="40" stroke="rgb(0,0,0)" stroke-width="1"/>
<line x1="21" y1="40" x2="37" y2="40" stroke="rgb(0,0,0)" stroke-width="1"/>
<line x1="21" y1="40" x2="37" y2="40" stroke="rgb(200,0,0)" stroke-width="1"/>
<rect width="16" height="0" x="41" y="40" style="fill:rgb(240,240,0);stroke:none"/>
<rect width="16" height="0" x="41" y="40" rx="0" ry="0" style="fill:none;stroke-width:1;stroke:rgb(0,0,0)"/>
<line x1="49" y1="40" x2="49" y2="40" stroke="rgb(0,0,0)" stroke-width="1"/>
<line x1="41" y1="40" x2="57" y2="40" stroke="rgb(0,0,0)" stroke-width="1"/>
<line x1="49" y1="40" x2="49" y2="40" stroke="rgb(0,0,0)" stroke-width="1"/>
<line x1="41" y1="40" x2="57" y2="40" stroke="rgb(0,0,0)" stroke-width="1"/>
<line x1="41" y1="40" x2="57" y2="40" stroke="rgb(200,0,0)" stroke-width="1"/>
<rect width="16" height="0" x="61" y="40" style="fill:rgb(240,240,0);stroke:none"/>
<rect width="16" height="0" x="61" y="40" rx="0" ry="0" style="fill:none;stroke-width:1;stroke:rgb(0,0,0)"/>
<line x1="69" y1="40" x2="69" y2="40" stroke="rgb(0,0,0)" stroke-width="1"/>
<line x1="61" y1="40" x2="77" y2="40" stroke="rgb(0,0,0)" stroke-width="1"/>
<line x1="69" y1="40" x2="69" y2="40" stroke="rgb(0,0,0)" stroke-width="1"/>
<line x1="61" y1="40" x2="77" y2="40" stroke="rgb(0,0,0)" stroke-width="1"/>
<line x1="61" y1="40" x2="77" y2="40" stroke="rgb(200,0,0)" stroke-width="1"/>
<rect width="16" height="0" x="81" y="40" style="fill:rgb(240,240,0);stroke:none"/>
<rect width="16" height="0" x="81" y="40" rx="0" ry="0" style="fill:none;stroke-width:1;stroke:rgb(0,0,0)"/>
<line x1="89" y1="40" x2="89" y2="40" stroke="rgb(0,0,0)" stroke-width="1"/>
<line x1="81" y1="40" x2="97" y2="40" stroke="rgb(0,0,0)" stroke-width="1"/>
<line x1="89" y1="40" x2="89" y2="40" stroke="rgb(0,0,0)" stroke-width="1"/>
<line x1="81" y1="40" x2="97" y2="40" stroke="rgb(0,0,0)" stroke-width="1"/>
<line x1="81" y1="40" x2="97" y2="40" stroke="rgb(200,0,0)" stroke-width="1"/>
<rect width="16" height="0" x="101" y="40" style="fill:rgb(240,240,0);stroke:none"/>
<rect width="16" height="0" x="101" y="40" rx="0" ry="0" style="fill:none;stroke-width:1;stroke:rgb(0,0,0)"/>
<line x1="109" y1="40" x2="109" y2="40" stroke="rgb(0,0,0)" stroke-width="1"/>
<line x1="101" y1="40" x2="117" y2="40" stroke="rgb(0,0,0)" stroke-width="1"/>
<line x1="109" y1="40" x2="109" y2="40" stroke="rgb(0,0,0)" stroke-width="1"/>
<line x1="101" y1="40" x2="117" y2="40" stroke="rgb(0,0,0)" stroke-width="1"/>
<line x1="101" y1="40" x2="117" y2="40" stroke="rgb(200,0,0)" stroke-width="1"/>
<rect width="16" height="0" x="121" y="40" style="fill:rgb(240,240,0);stroke:none"/>
<rect width="16" height="0" x="121" y="40" rx="0" ry="0" style="fill:none;stroke-width:1;stroke:rgb(0,0,0)"/>
<line x1="129" y1="40" x2="129" y2="40" stroke="rgb(0,0,0)" stroke-width="1"/>
<line x1="121" y1="40" x2="137" y2="40" stroke="rgb(0,0,0)" stroke-width="1"/>
<line x1="129" y1="40" x2="129" y2="40" stroke="rgb(0,0,0)" stroke-width="1"/>
<line x1="121" y1="40" x2="137" y2="40" stroke="rgb(0,0,0)" stroke-width="1"/>
<line x1="121" y1="40" x2="137" y2="40" stroke="rgb(200,0,0)" stroke-width="1"/>
<rect width="16" height="0" x="141" y="40" style="fill:rgb(240,240,0);stroke:none"/>
<rect width="16" height="0" x="141" y="40" rx="0" ry="0" style="fill:none;stroke-width:1;stroke:rgb(0,0,0)"/>
<line x1="149" y1="40" x2="149" y2="40" stroke="rgb(0,0,0)" stroke-width="1"/>
<line x1="141" y1="40" x2="157" y2="40" stroke="rgb(0,0,0)" stroke-width="1"/>
<line x1="149" y1="40" x2="149" y2="40" stroke="rgb(0,0,0)" stroke-width="1"/>
<line x1="141" y1="40" x2="157" y2="40" stroke="rgb(0,0,0)" stroke-width="1"/>
<line x1="141" y1="40" x2="157" y2="40" stroke="rgb(200,0,0)" stroke-width="1"/>
<rect width="16" height="0" x="161" y="40" style="fill:rgb(240,240,0);stroke:none"/>
<rect width="16" height="0" x="161" y="40" rx="0" ry="0" style="fill:none;stroke-width:1;stroke:rgb(0,0,0)"/>
<line x1="169" y1="40" x2="169" y2="40" stroke="rgb(0,0,0)" stroke-width="1"/>
<line x1="161" y1="40" x2="177" y2="40" stroke="rgb(0,0,0)" stroke-width="1"/>
<line x1="169" y1="40" x2="169" y2="40" stroke="rgb(0,0,0)" stroke-width="1"/>
<line x1="161" y1="40" x2="177" y2="40" stroke="rgb(0,0,0)" stroke-width="1"/>
<line x1="161" y1="40" x2="177" y2="40" stroke="rgb(200,0,0)" stroke-width="1"/>
<rect width="16" height="0" x="181" y="40" style="fill:rgb(240,240,0);stroke:none"/>
<rect width="16" height="0" x="181" y="40" rx="0" ry="0" style="fill:none;stroke-width:1;stroke:rgb(0,0,0)"/>
<line x1="189" y1="40" x2="189" y2="40" stroke="rgb(0,0,0)" stroke-width="1"/>
<line x1="181" y1="40" x2="197" y2="40" stroke="rgb(0,0,0)" stroke-width="1"/>
<line x1="189" y1="40" x2="189" y2="40" stroke="rgb(0,0,0)" stroke-width="1"/>
<line x1="181" y1="40" x2="197" y2="40" stroke="rgb(0,0,0)" stroke-width="1"/>
<line x1="181" y1="40" x2="197" y2="40" stroke="rgb(200,0,0)" stroke-width="1"/>
<rect width="16" height="0" x="201" y="40" style="fill:rgb(240,240,0);stroke:none"/>
<rect width="16" height="0" x="201" y="40" rx="0" ry="0" style="fill:none;stroke-width:1;stroke:rgb(0,0,0)"/>
<line x1="209" y1="40" x2="209" y2="40" stroke="rgb(0,0,0)" stroke-width="1"/>
<line x1="201" y1="40" x2="217" y2="40" stroke="rgb(0,0,0)" stroke-width="1"/>
<line x1="209" y1="40" x2="209" y2="40" stroke="rgb(0,0,0)" stroke-width="1"/>
<line x1="201" y1="40" x2="217" y2="40" stroke="rgb(0,0,0)" stroke-width="1"/>
<line x1="201" y1="40" x2="217" y2="40" stroke="rgb(200,0,0)" stroke-width="1"/>
<rect width="16" height="0" x="221" y="40" style="fill:rgb(240,240,0);stroke:none"/>
<rect width="16" height="0" x="221" y="40" rx="0" ry="0" style="fill:none;stroke-width:1;stroke:rgb(0,0,0)"/>
<line x1="229" y1="40" x2="229" y2="40" stroke="rgb(0,0,0)" stroke-width="1"/>
<line x1="221" y1="40" x2="237" y2="40" stroke="rgb(0,0,0)" stroke-width="1"/>
<line x1="229" y1="40" x2="229" y2="40" stroke="rgb(0,0,0)" stroke-width="1"/>
<line x1="221" y1="40" x2="237" y2="40" stroke="rgb(0,0,0)" stroke-width="1"/>
<line x1="221" y1="40" x2="237" y2="40" stroke="rgb(200,0,0)" stroke-width="1"/>
<rect width="16" height="0" x="241" y="40" style="fill:rgb(240,240,0);stroke:none"/>
<rect width="16" height="0" x="241" y="40" rx="0" ry="0" style="fill:none;stroke-width:1;stroke:rgb(0,0,0)"/>
<line x1="249" y1="40" x2="249" y2="40" stroke="rgb(0,0,0)" stroke-width="1"/>
<line x1="241" y1="40" x2="257" y2="40" stroke="rgb(0,0,0)" stroke-width="1"/>
<line x1="249" y1="40" x2="249" y2="40" stroke="rgb(0,0,0)" stroke-width="1"/>
<line x1="241" y1="40" x2="257" y2="40" stroke="rgb(0,0,0)" stroke-width="1"/>
<line x1="241" y1="40" x2="257" y2="40" stroke="rgb(200,0,0)" stroke-width="1"/>
<rect width="16" height="0" x="261" y="40" style="fill:rgb(240,240,0);stroke:none"/>
<rect width="16" height="0" x="261" y="40" rx="0" ry="0" style="fill:none;stroke-width:1;stroke:rgb(0,0,0)"/>
<line x1="269" y1="40" x2="269" y2="40" stroke="rgb(0,0,0)" stroke-width="1"/>
<line x1="261" y1="40" x2="277" y2="40" stroke="rgb(0,0,0)" stroke-width="1"/>
<line x1="269" y1="40" x2="269" y2="40" stroke="rgb(0,0,0)" stroke-width="1"/>
<line x1="261" y1="40" x2="277" y2="40" stroke="rgb(0,0,0)" stroke-width="1"/>
<line x1="261" y1="40" x2="277" y2="40" stroke="rgb(200,0,0)" stroke-width="1"/>
<rect width="16" height="0" x="281" y="40" style="fill:rgb(240,240,0);stroke:none"/>
<rect width="16" height="0" x="281" y="40" rx="0" ry="0" style="fill:none;stroke-width:1;stroke:rgb(0,0,0)"/>
<line x1="289" y1="40" x2="289" y2="40" stroke="rgb(0,0,0)" stroke-width="1"/>
<line x1="281" y1="40" x2="297" y2="40" stroke="rgb(0,0,0)" stroke-width="1"/>
<line x1="289" y1="40" x2="289" y2="40" stroke="rgb(0,0,0)" stroke-width="1"/>
<line x1="281" y1="40" x2="297" y2="40" stroke="rgb(0,0,0)" stroke-width="1"/>
<line x1="281" y1="40" x2="297" y2="40" stroke="rgb(200,0,0)" stroke-width="1"/>
<rect width="16" height="0" x="301" y="40" style="fill:rgb(240,240,0);stroke:none"/>
<rect width="16" height="0" x="301" y="40" rx="0" ry="0" style="fill:none;stroke-width:1;stroke:rgb(0,0,0)"/>
<line x1="309" y1="40" x2="309" y2="40" stroke="rgb(0,0,0)" stroke-width="1"/>
<line x1="301" y1="40" x2="317" y2="40" stroke="rgb(0,0,0)" stroke-width="1"/>
<line x1="309" y1="40" x2="309" y2="40" stroke="rgb(0,0,0)" stroke-width="1"/>
<line x1="301" y1="40" x2="317" y2="40" stroke="rgb(0,0,0)" stroke-width="1"/>
<line x1="301" y1="40" x2="317" y2="40" stroke="rgb(200,0,0)" stroke-width="1"/>
<rect width="16" height="0" x="321" y="40" style="fill:rgb(240,240,0);stroke:none"/>
<rect width="16" height="0" x="321" y="40" rx="0" ry="0" style="fill:none;stroke-width:1;stroke:rgb(0,0,0)"/>
<line x1="329" y1="40" x2="329" y2="40" stroke="rgb(0,0,0)" stroke-width="1"/>
<line x1="321" y1="40" x2="337" y2="40" stroke="rgb(0,0,0)" stroke-width="1"/>
<line x1="329" y1="40" x2="329" y2="40" stroke="rgb(0,0,0)" stroke-width="1"/>
<line x1="321" y1="40" x2="337" y2="40" stroke="rgb(0,0,0)" stroke-width="1"/>
<line x1="321" y1="40" x2="337" y2="40" stroke="rgb(200,0,0)" stroke-width="1"/>
<rect width="16" height="0" x="341" y="40" style="fill:rgb(240,240,0);stroke:none"/>
<rect width="16" height="0" x="341" y="40" rx="0" ry="0" style="fill:none;stroke-width:1;stroke:rgb(0,0,0)"/>
<line x1="349" y1="40" x2="349" y2="40" stroke="rgb(0,0,0)" stroke-width="1"/>
<line x1="341" y1="40" x2="357" y2="40" stroke="rgb(0,0,0)" stroke-width="1"/>
<line x1="349" y1="40" x2="349" y2="40" stroke="rgb(0,0,0)" stroke-width="1"/>
<line x1="341" y1="40" x2="357" y2="40" stroke="rgb(0,0,0)" stroke-width="1"/>
<line x1="341" y1="40" x2="357" y2="40" stroke="rgb(200,0,0)" stroke-width="1"/>
<rect width="16" height="0" x="361" y="40" style="fill:rgb(240,240,0);stroke:none"/>
<rect width="16" height="0" x="361" y="40" rx="0" ry="0" style="fill:none;stroke-width:1;stroke:rgb(0,0,0)"/>
<line x1="369" y1="40" x2="369" y2="40" stroke="rgb(0,0,0)" stroke-width="1"/>
<line x1="361" y1="40" x2="377" y2="40" stroke="rgb(0,0,0)" stroke-width="1"/>
<line x1="369" y1="40" x2="369" y2="40" stroke="rgb(0,0,0)" stroke-width="1"/>
<line x1="361" y1="40" x2="377" y2="40" stroke="rgb(0,0,0)" stroke-width="1"/>
<line x1="361" y1="40" x2="377" y2="40" stroke="rgb(200,0,0)" stroke-width="1"/>
<rect width="16" height="0" x="381" y="40" style="fill:rgb(240,240,0);stroke:none"/>
<rect width="16" height="0" x="381" y="40" rx="0" ry="0" style="fill:none;stroke-width:1;stroke:rgb(0,0,0)"/>
<line x1="389" y1="40" x2="389" y2="40" stroke="rgb(0,0,0)" stroke-width="1"/>
<line x1="381" y1="40" x2="397" y2="40" stroke="rgb(0,0,0)" stroke-width="1"/>
<line x1="389" y1="40" x2="389" y2="40" stroke="rgb(0,0,0)" stroke-width="1"/>
<line x1="381" y1="40" x2="397" y2="40" stroke="rgb(0,0,0)" stroke-width="1"/>
<line x1="381" y1="40" x2="397" y2="40" stroke="rgb(200,0,0)" stroke-width="1"/>
<rect width="16" height="0" x="401" y="40" style="fill:rgb(240,240,0);stroke:none"/>
<rect width="16" height="0" x="401" y="40" rx="0" ry="0" style="fill:none;stroke-width:1;stroke:rgb(0,0,0)"/>
<line x1="409" y1="40" x2="409" y2="40" stroke="rgb(0,0,0)" stroke-width="1"/>
<line x1="401" y1="40" x2="417" y2="40" stroke="rgb(0,0,0)" stroke-width="1"/>
<line x1="409" y1="40" x2="409" y2="40" stroke="rgb(0,0,0)" stroke-width="1"/>
<line x1="401" y1="40" x2="417" y2="40" stroke="rgb(0,0,0)" stroke-width="1"/>
<line x1="401" y1="40" x2="417" y2="40" stroke="rgb(200,0,0)" stroke-width="1"/>
<rect width="16" height="0" x="421" y="40" style="fill:rgb(240,240,0);stroke:none"/>
<rect width="16" height="0" x="421" y="40" rx="0" ry="0" style="fill:none;stroke-width:1;stroke:rgb(0,0,0)"/>
<line x1="429" y1="40" x2="429" y2="40" stroke="rgb(0,0,0)" stroke-width="1"/>
<line x1="421" y1="40" x2="437" y2="40" stroke="rgb(0,0,0)" stroke-width="1"/>
<line x1="429" y1="40" x2="429" y2="40" stroke="rgb(0,0,0)" stroke-width="1"/>
<line x1="421" y1="40" x2="437" y2="40" stroke="rgb(0,0,0)" stroke-width="1"/>
<line x1="421" y1="40" x2="437" y2="40" stroke="rgb(200,0,0)" stroke-width="1"/>
<rect width="16" height="0" x="441" y="40" style="fill:rgb(240,240,0);stroke:none"/>
<rect width="16" height="0" x="441" y="40" rx="0" ry="0" style="fill:none;stroke-width:1;stroke:rgb(0,0,0)"/>
<line x1="449" y1="40" x2="449" y2="40" stroke="rgb(0,0,0)" stroke-width="1"/>
<line x1="441" y1="40" x2="457" y2="40" stroke="rgb(0,0,0)" stroke-width="1"/>
<line x1="449" y1="40" x2="449" y2="40" stroke="rgb(0,0,0)" stroke-width="1"/>
<line x1="441" y1="40" x2="457" y2="40" stroke="rgb(0,0,0)" stroke-width="1"/>
<line x1="441" y1="40" x2="457" y2="40" stroke="rgb(200,0,0)" stroke-width="1"/>
<rect width="16" height="0" x="461" y="40" style="fill:rgb(240,240,0);stroke:none"/>
<rect width="16" height="0" x="461" y="40" rx="0" ry="0" style="fill:none;stroke-width:1;stroke:rgb(0,0,0)"/>
<line x1="469" y1="40" x2="469" y2="40" stroke="rgb(0,0,0)" stroke-width="1"/>
<line x1="461" y1="40" x2="477" y2="40" stroke="rgb(0,0,0)" stroke-width="1"/>
<line x1="469" y1="40" x2="469" y2="40" stroke="rgb(0,0,0)" stroke-width="1"/>
<line x1="461" y1="40" x2="477" y2="40" stroke="rgb(0,0,0)" stroke-width="1"/>
<line x1="461" y1="40" x2="477" y2="40" stroke="rgb(200,0,0)" stroke-width="1"/>
<rect width="16" height="0" x="481" y="40" style="fill:rgb(240,240,0);stroke:none"/>
<rect width="16" height="0" x="481" y="40" rx="0" ry="0" style="fill:none;stroke-width:1;stroke:rgb(0,0,0)"/>
<line x1="489" y1="40" x2="489" y2="40" stroke="rgb(0,0,0)" stroke-width="1"/>
<line x1="481" y1="40" x2="497" y2="40" stroke="rgb(0,0,0)" stroke-width="1"/>
<line x1="489" y1="40" x2="489" y2="40" stroke="rgb(0,0,0)" stroke-width="1"/>
<line x1="481" y1="40" x2="497" y2="40" stroke="rgb(0,0,0)" stroke-width="1"/>
<line x1="481" y1="40" x2="497" y2="40" stroke="rgb(200,0,0)" stroke-width="1"/>
<rect width="16" height="0" x="501" y="40" style="fill:rgb(240,240,0);stroke:none"/>
<rect width="16" height="0" x="501" y="40" rx="0" ry="0" style="fill:none;stroke-width:1;stroke:rgb(0,0,0)"/>
<line x1="509" y1="40" x2="509" y2="40" stroke="rgb(0,0,0)" stroke-width="1"/>
<line x1="501" y1="40" x2="517" y2="40" stroke="rgb(0,0,0)" stroke-width="1"/>
<line x1="509" y1="40" x2="509" y2="40" stroke="rgb(0,0,0)" stroke-width="1"/>
<line x1="501" y1="40" x2="517" y2="40" stroke="rgb(0,0,0)" stroke-width="1"/>
<line x1="501" y1="40" x2="517" y2="40" stroke="rgb(200,0,0)" stroke-width="1"/>
<rect width="16" height="0" x="521" y="40" style="fill:rgb(240,240,0);stroke:none"/>
<rect width="16" height="0" x="521" y="40" rx="0" ry="0" style="fill:none;stroke-width:1;stroke:rgb(0,0,0)"/>
<line x1="529" y1="40" x2="529" y2="40" stroke="rgb(0,0,0)" stroke-width="1"/>
<line x1="521" y1="40" x2="537" y2="40" stroke="rgb(0,0,0)" stroke-width="1"/>
<line x1="529" y1="40" x2="529" y2="40" stroke="rgb(0,0,0)" stroke-width="1"/>
<line x1="521" y1="40" x2="537" y2="40" stroke="rgb(0,0,0)" stroke-width="1"/>
<line x1="521" y1="40" x2="537" y2="40" stroke="rgb(200,0,0)" stroke-width="1"/>
<rect width="16" height="0" x="541" y="40" style="fill:rgb(240,240,0);stroke:none"/>
<rect width="16" height="0" x="541" y="40" rx="0" ry="0" style="fill:none;stroke-width:1;stroke:rgb(0,0,0)"/>
<line x1="549" y1="40" x2="549" y2="40" stroke="rgb(0,0,0)" stroke-width="1"/>
<line x1="541" y1="40" x2="557" y2="40" stroke="rgb(0,0,0)" stroke-width="1"/>
<line x1="549" y1="40" x2="549" y2="40" stroke="rgb(0,0,0)" stroke-width="1"/>
<line x1="541" y1="40" x2="557" y2="40" stroke="rgb(0,0,0)" stroke-width="1"/>
<line x1="541" y1="40" x2="557" y2="40" stroke="rgb(200,0,0)" stroke-width="1"/>
<rect width="16" height="0" x="561" y="40" style="fill:rgb(240,240,0);stroke:none"/>
<rect width="16" height="0" x="561" y="40" rx="0" ry="0" style="fill:none;stroke-width:1;stroke:rgb(0,0,0)"/>
<line x1="569" y1="40" x2="569" y2="40" stroke="rgb(0,0,0)" stroke-width="1"/>
<line x1="561" y1="40" x2="577" y2="40" stroke="rgb(0,0,0)" stroke-width="1"/>
<line x1="569" y1="40" x2="569" y2="40" stroke="rgb(0,0,0)" stroke-width="1"/>
<line x1="561" y1="40" x2="577" y2="40" stroke="rgb(0,0,0)" stroke-width="1"/>
<line x1="561" y1="40" x2="577" y2="40" stroke="rgb(200,0,0)" stroke-width="1"/>
<rect width="16" height="0" x="581" y="40" style="fill:rgb(240,240,0);stroke:none"/>
<rect width="16" height="0" x="581" y="40" rx="0" ry="0" style="fill:none;stroke-width:1;stroke:rgb(0,0,0)"/>
<line x1="589" y1="40" x2="589" y2="40" stroke="rgb(0,0,0)" stroke-width="1"/>
<line x1="581" y1="40" x2="597" y2="40" stroke="rgb(0,0,0)" stroke-width="1"/>
<line x1="589" y1="40" x2="589" y2="40" stroke="rgb(0,0,0)" stroke-width="1"/>
<line x1="581" y1="40" x2="597" y2="40" stroke="rgb(0,0,0)" stroke-width="1"/>
<line x1="581" y1="40" x2="597" y2="40" stroke="rgb(200,0,0)" stroke-width="1"/>
<rect width="16" height="0" x="601" y="40" style="fill:rgb(240,240,0);stroke:none"/>
<rect width="16" height="0" x="601" y="40" rx="0" ry="0" style="fill:none;stroke-width:1;stroke:rgb(0,0,0)"/>
<line x1="609" y1="40" x2="609" y2="40" stroke="rgb(0,0,0)" stroke-width="1"/>
<line x1="601" y1="40" x2="617" y2="40" stroke="rgb(0,0,0)" stroke-width="1"/>
<line x1="609" y1="40" x2="609" y2="40" stroke="rgb(0,0,0)" stroke-width="1"/>
<line x1="601" y1="40" x2="617" y2="40" stroke="rgb(0,0,0)" stroke-width="1"/>
<line x1="601" y1="40" x2="617" y2="40" stroke="rgb(200,0,0)" stroke-width="1"/>
<rect width="16" height="0" x="621" y="40" style="fill:rgb(240,240,0);stroke:none"/>
<rect width="16" height="0" x="621" y="40" rx="0" ry="0" style="fill:none;stroke-width:1;stroke:rgb(0,0,0)"/>
<line x1="629" y1="40" x2="629" y2="40" stroke="rgb(0,0,0)" stroke-width="1"/>
<line x1="621" y1="40" x2="637" y2="40" stroke="rgb(0,0,0)" stroke-width="1"/>
<line x1="629" y1="40" x2="629" y2="40" stroke="rgb(0,0,0)" stroke-width="1"/>
<line x1="621" y1="40" x2="637" y2="40" stroke="rgb(0,0,0)" stroke-width="1"/>
<line x1="621" y1="40" x2="637" y2="40" stroke="rgb(200,0,0)" stroke-width="1"/>
<rect width="16" height="0" x="641" y="40" style="fill:rgb(240,240,0);stroke:none"/>
<rect width="16" height="0" x="641" y="40" rx="0" ry="0" style="fill:none;stroke-width:1;stroke:rgb(0,0,0)"/>
<line x1="649" y1="40" x2="649" y2="40" stroke="rgb(0,0,0)" stroke-width="1"/>
<line x1="641" y1="40" x2="657" y2="40" stroke="rgb(0,0,0)" stroke-width="1"/>
<line x1="649" y1="74" x2="649" y2="40" stroke="rgb(0,0,0)" stroke-width="1"/>
<line x1="641" y1="74" x2="657" y2="74" stroke="rgb(0,0,0)" stroke-width="1"/>
<line x1="641" y1="40" x2="657" y2="40" stroke="rgb(200,0,0)" stroke-width="1"/>
<rect width="16" height="0" x="661" y="40" style="fill:rgb(240,240,0);stroke:none"/>
<rect width="16" height="0" x="661" y="40" rx="0" ry="0" style="fill:none;stroke-width:1;stroke:rgb(0,0,0)"/>
<line x1="669" y1="40" x2="669" y2="40" stroke="rgb(0,0,0)" stroke-width="1"/>
<line x1="661" y1="40" x2="677" y2="40" stroke="rgb(0,0,0)" stroke-width="1"/>
<line x1="669" y1="40" x2="669" y2="40" stroke="rgb(0,0,0)" stroke-width="1"/>
<line x1="661" y1="40" x2="677" y2="40" stroke="rgb(0,0,0)" stroke-width="1"/>
<line x1="661" y1="40" x2="677" y2="40" stroke="rgb(200,0,0)" stroke-width="1"/>
<rect width="16" height="0" x="681" y="40" style="fill:rgb(240,240,0);stroke:none"/>
<rect width="16" height="0" x="681" y="40" rx="0" ry="0" style="fill:none;stroke-width:1;stroke:rgb(0,0,0)"/>
<line x1="689" y1="40" x2="689" y2="40" stroke="rgb(0,0,0)" stroke-width="1"/>
<line x1="681" y1="40" x2="697" y2="40" stroke="rgb(0,0,0)" stroke-width="1"/>
<line x1="689" y1="40" x2="689" y2="40" stroke="rgb(0,0,0)" stroke-width="1"/>
<line x1="681" y1="40" x2="697" y2="40" stroke="rgb(0,0,0)" stroke-width="1"/>
<line x1="681" y1="40" x2="697" y2="40" stroke="rgb(200,0,0)" stroke-width="1"/>
<rect width="16" height="0" x="701" y="40" style="fill:rgb(240,240,0);stroke:none"/>
<rect width="16" height="0" x="701" y="40" rx="0" ry="0" style="fill:none;stroke-width:1;stroke:rgb(0,0,0)"/>
<line x1="709" y1="40" x2="709" y2="40" stroke="rgb(0,0,0)" stroke-width="1"/>
<line x1="701" y1="40" x2="717" y2="40" stroke="rgb(0,0,0)" stroke-width="1"/>
<line x1="709" y1="209" x2="709" y2="40" stroke="rgb(0,0,0)" stroke-width="1"/>
<line x1="701" y1="209" x2="717" y2="209" stroke="rgb(0,0,0)" stroke-width="1"/>
<line x1="701" y1="40" x2="717" y2="40" stroke="rgb(200,0,0)" stroke-width="1"/>
<rect width="16" height="0" x="721" y="40" style="fill:rgb(240,240,0);stroke:none"/>
<rect width="16" height="0" x="721" y="40" rx="0" ry="0" style="fill:none;stroke-width:1;stroke:rgb(0,0,0)"/>
<line x1="729" y1="40" x2="729" y2="40" stroke="rgb(0,0,0)" stroke-width="1"/>
<line x1="721" y1="40" x2="737" y2="40" stroke="rgb(0,0,0)" stroke-width="1"/>
<line x1="729" y1="209" x2="729" y2="40" stroke="rgb(0,0,0)" stroke-width="1"/>
<line x1="721" y1="209" x2="737" y2="209" stroke="rgb(0,0,0)" stroke-width="1"/>
<line x1="721" y1="40" x2="737" y2="40" stroke="rgb(200,0,0)" stroke-width="1"/>
<rect width="16" height="0" x="741" y="40" style="fill:rgb(240,240,0);stroke:none"/>
<rect width="16" height="0" x="741" y="40" rx="0" ry="0" style="fill:none;stroke-width:1;stroke:rgb(0,0,0)"/>
<line x1="749" y1="40" x2="749" y2="40" stroke="rgb(0,0,0)" stroke-width="1"/>
<line x1="741" y1="40" x2="757" y2="40" stroke="rgb(0,0,0)" stroke-width="1"/>
<line x1="749" y1="209" x2="749" y2="40" stroke="rgb(0,0,0)" stroke-width="1"/>
<line x1="741" y1="209" x2="757" y2="209" stroke="rgb(0,0,0)" stroke-width="1"/>
<line x1="741" y1="40" x2="757" y2="40" stroke="rgb(200,0,0)" stroke-width="1"/>
<rect width="16" height="0" x="761" y="40" style="fill:rgb(240,240,0);stroke:none"/>
<rect width="16" height="0" x="761" y="40" rx="0" ry="0" style="fill:none;stroke-width:1;stroke:rgb(0,0,0)"/>
<line x1="769" y1="40" x2="769" y2="40" stroke="rgb(0,0,0)" stroke-width="1"/>
<line x1="761" y1="40" x2="777" y2="40" stroke="rgb(0,0,0)" stroke-width="1"/>
<line x1="769" y1="40" x2="769" y2="40" stroke="rgb(0,0,0)" stroke-width="1"/>
<line x1="761" y1="40" x2="777" y2="40" stroke="rgb(0,0,0)" stroke-width="1"/>
<line x1="761" y1="40" x2="777" y2="40" stroke="rgb(200,0,0)" stroke-width="1"/>
<line x1="29" y1="49" x2="49" y2="48" stroke="rgb(0,0,200)" stroke-width="1"/>
<line x1="49" y1="48" x2="69" y2="47" stroke="rgb(0,0,200)" stroke-width="1"/>
<line x1="69" y1="47" x2="89" y2="47" stroke="rgb(0,0,200)" stroke-width="1"/>
<line x1="89" y1="47" x2="109" y2="47" stroke="rgb(0,0,200)" stroke-width="1"/>
<line x1="109" y1="47" x2="129" y2="47" stroke="rgb(0,0,200)" stroke-width="1"/>
<line x1="129" y1="47" x2="149" y2="47" stroke="rgb(0,0,200)" stroke-width="1"/>
<line x1="149" y1="47" x2="169" y2="47" stroke="rgb(0,0,200)" stroke-width="1"/>
<line x1="169" y1="47" x2="189" y2="47" stroke="rgb(0,0,200)" stroke-width="1"/>
<line x1="189" y1="47" x2="209" y2="46" stroke="rgb(0,0,200)" stroke-width="1"/>
<line x1="209" y1="46" x2="229" y2="47" stroke="rgb(0,0,200)" stroke-width="1"/>
<line x1="229" y1="47" x2="249" y2="47" stroke="rgb(0,0,200)" stroke-width="1"/>
<line x1="249" y1="47" x2="269" y2="48" stroke="rgb(0,0,200)" stroke-width="1"/>
<line x1="269" y1="48" x2="289" y2="48" stroke="rgb(0,0,200)" stroke-width="1"/>
<line x1="289" y1="48" x2="309" y2="48" stroke="rgb(0,0,200)" stroke-width="1"/>
<line x1="309" y1="48" x2="329" y2="48" stroke="rgb(0,0,200)" stroke-width="1"/>
<line x1="329" y1="48" x2="349" y2="49" stroke="rgb(0,0,200)" stroke-width="1"/>
<line x1="349" y1="49" x2="369" y2="50" stroke="rgb(0,0,200)" stroke-width="1"/>
<line x1="369" y1="50" x2="389" y2="50" stroke="rgb(0,0,200)" stroke-width="1"/>
<line x1="389" y1="50" x2="409" y2="50" stroke="rgb(0,0,200)" stroke-width="1"/>
<line x1="409" y1="50" x2="429" y2="50" stroke="rgb(0,0,200)" stroke-width="1"/>
<line x1="429" y1="50" x2="449" y2="51" stroke="rgb(0,0,200)" stroke-width="1"/>
<line x1="449" y1="51" x2="469" y2="53" stroke="rgb(0,0,200)" stroke-width="1"/>
<line x1="469" y1="53" x2="489" y2="52" stroke="rgb(0,0,200)" stroke-width="1"/>
<line x1="489" y1="52" x2="509" y2="53" stroke="rgb(0,0,200)" stroke-width="1"/>
<line x1="509" y1="53" x2="529" y2="55" stroke="rgb(0,0,200)" stroke-width="1"/>
<line x1="529" y1="55" x2="549" y2="57" stroke="rgb(0,0,200)" stroke-width="1"/>
<line x1="549" y1="57" x2="569" y2="58" stroke="rgb(0,0,200)" stroke-width="1"/>
<line x1="569" y1="58" x2="589" y2="59" stroke="rgb(0,0,200)" stroke-width="1"/>
<line x1="589" y1="59" x2="609" y2="61" stroke="rgb(0,0,200)" stroke-width="1"/>
<line x1="609" y1="61" x2="629" y2="63" stroke="rgb(0,0,200)" stroke-width="1"/>
<line x1="629" y1="63" x2="649" y2="63" stroke="rgb(0,0,200)" stroke-width="1"/>
<line x1="649" y1="63" x2="669" y2="63" stroke="rgb(0,0,200)" stroke-width="1"/>
<line x1="669" y1="63" x2="689" y2="63" stroke="rgb(0,0,200)" stroke-width="1"/>
<line x1="689" y1="63" x2="709" y2="67" stroke="rgb(0,0,200)" stroke-width="1"/>
<line x1="709" y1="67" x2="729" y2="70" stroke="rgb(0,0,200)" stroke-width="1"/>
<line x1="729" y1="70" x2="749" y2="70" stroke="rgb(0,0,200)" stroke-width="1"/>
<line x1="749" y1="70" x2="769" y2="53" stroke="rgb(0,0,200)" stroke-width="1"/>
</svg>
