<?xml version="1.0" standalone="no"?>
<!DOCTYPE svg PUBLIC "-//W3C//DTD SVG 1.1//EN" "http://www.w3.org/Graphics/SVG/1.1/DTD/svg11.dtd">
<svg width="800" height="600" version="1.1" xmlns="http://www.w3.org/2000/svg">
<rect width="800" height="600" x="0" y="0" style="fill:rgb(238,238,238);stroke:none"/>
<rect width="800" height="600" x="0" y="0" style="fill:rgb(255,255,255);stroke:none"/>
<text x="2" y="566" fill="rgb(0,0,0)" font-family="Arial" font-size="12">0</text>
<text x="2" y="498" fill="rgb(0,0,0)" font-family="Arial" font-size="12">500000</text>
<text x="2" y="430" fill="rgb(0,0,0)" font-family="Arial" font-size="12">1000000</text>
<text x="2" y="361" fill="rgb(0,0,0)" font-family="Arial" font-size="12">1500000</text>
<text x="2" y="293" fill="rgb(0,0,0)" font-family="Arial" font-size="12">2000000</text>
<text x="2" y="224" fill="rgb(0,0,0)" font-family="Arial" font-size="12">2500000</text>
<text x="2" y="156" fill="rgb(0,0,0)" font-family="Arial" font-size="12">3000000</text>
<text x="2" y="87" fill="rgb(0,0,0)" font-family="Arial" font-size="12">3500000</text>
<text x="279" y="30" fill="rgb(0,0,0)" font-family="Arial" font-size="12">Distribution of sequence lengths over all sequences</text>
<line x1="54" y1="560" x2="790" y2="560" stroke="rgb(0,0,0)" stroke-width="1"/>
<line x1="54" y1="560" x2="54" y2="40" stroke="rgb(0,0,0)" stroke-width="1"/>
<text x="340" y="595" fill="rgb(0,0,0)" font-family="Arial" font-size="12">Sequence Length (bp)</text>
<text x="56" y="575" fill="rgb(0,0,0)" font-family="Arial" font-size="12">0-4</text>
<rect width="23" height="520" x="77" y="40" style="fill:rgb(230,230,230);stroke:none"/>
<text x="95" y="575" fill="rgb(0,0,0)" font-family="Arial" font-size="12">10-14</text>
<rect width="23" height="520" x="123" y="40" style="fill:rgb(230,230,230);stroke:none"/>
<text x="141" y="575" fill="rgb(0,0,0)" font-family="Arial" font-size="12">20-24</text>
<rect width="23" height="520" x="169" y="40" style="fill:rgb(230,230,230);stroke:none"/>
<text x="187" y="575" fill="rgb(0,0,0)" font-family="Arial" font-size="12">30-34</text>
<rect width="23" height="520" x="215" y="40" style="fill:rgb(230,230,230);stroke:none"/>
<text x="233" y="575" fill="rgb(0,0,0)" font-family="Arial" font-size="12">40-44</text>
<rect width="23" height="520" x="261" y="40" style="fill:rgb(230,230,230);stroke:none"/>
<text x="279" y="575" fill="rgb(0,0,0)" font-family="Arial" font-size="12">50-54</text>
<rect width="23" height="520" x="307" y="40" style="fill:rgb(230,230,230);stroke:none"/>
<text x="325" y="575" fill="rgb(0,0,0)" font-family="Arial" font-size="12">60-64</text>
<rect width="23" height="520" x="353" y="40" style="fill:rgb(230,230,230);stroke:none"/>
<text x="371" y="575" fill="rgb(0,0,0)" font-family="Arial" font-size="12">70-74</text>
<rect width="23" height="520" x="399" y="40" style="fill:rgb(230,230,230);stroke:none"/>
<text x="417" y="575" fill="rgb(0,0,0)" font-family="Arial" font-size="12">80-84</text>
<rect width="23" height="520" x="445" y="40" style="fill:rgb(230,230,230);stroke:none"/>
<text x="463" y="575" fill="rgb(0,0,0)" font-family="Arial" font-size="12">90-94</text>
<rect width="23" height="520" x="491" y="40" style="fill:rgb(230,230,230);stroke:none"/>
<text x="502" y="575" fill="rgb(0,0,0)" font-family="Arial" font-size="12">100-104</text>
<rect width="23" height="520" x="537" y="40" style="fill:rgb(230,230,230);stroke:none"/>
<rect width="23" height="520" x="583" y="40" style="fill:rgb(230,230,230);stroke:none"/>
<text x="571" y="575" fill="rgb(0,0,0)" font-family="Arial" font-size="12">115-119</text>
<rect width="23" height="520" x="629" y="40" style="fill:rgb(230,230,230);stroke:none"/>
<text x="640" y="575" fill="rgb(0,0,0)" font-family="Arial" font-size="12">130-134</text>
<rect width="23" height="520" x="675" y="40" style="fill:rgb(230,230,230);stroke:none"/>
<rect width="23" height="520" x="721" y="40" style="fill:rgb(230,230,230);stroke:none"/>
<text x="709" y="575" fill="rgb(0,0,0)" font-family="Arial" font-size="12">145-149</text>
<line x1="54" y1="560" x2="790" y2="560" stroke="rgb(180,180,180)" stroke-width="1"/>
<line x1="54" y1="492" x2="790" y2="492" stroke="rgb(180,180,180)" stroke-width="1"/>
<line x1="54" y1="424" x2="790" y2="424" stroke="rgb(180,180,180)" stroke-width="1"/>
<line x1="54" y1="355" x2="790" y2="355" stroke="rgb(180,180,180)" stroke-width="1"/>
<line x1="54" y1="287" x2="790" y2="287" stroke="rgb(180,180,180)" stroke-width="1"/>
<line x1="54" y1="218" x2="790" y2="218" stroke="rgb(180,180,180)" stroke-width="1"/>
<line x1="54" y1="150" x2="790" y2="150" stroke="rgb(180,180,180)" stroke-width="1"/>
<line x1="54" y1="81" x2="790" y2="81" stroke="rgb(180,180,180)" stroke-width="1"/>
<line x1="65" y1="560" x2="88" y2="560" stroke="rgb(136,34,85)" stroke-width="1"/>
<line x1="88" y1="560" x2="111" y2="560" stroke="rgb(136,34,85)" stroke-width="1"/>
<line x1="111" y1="560" x2="134" y2="560" stroke="rgb(136,34,85)" stroke-width="1"/>
<line x1="134" y1="560" x2="157" y2="560" stroke="rgb(136,34,85)" stroke-width="1"/>
<line x1="157" y1="560" x2="180" y2="560" stroke="rgb(136,34,85)" stroke-width="1"/>
<line x1="180" y1="560" x2="203" y2="560" stroke="rgb(136,34,85)" stroke-width="1"/>
<line x1="203" y1="560" x2="226" y2="560" stroke="rgb(136,34,85)" stroke-width="1"/>
<line x1="226" y1="560" x2="249" y2="560" stroke="rgb(136,34,85)" stroke-width="1"/>
<line x1="249" y1="560" x2="272" y2="560" stroke="rgb(136,34,85)" stroke-width="1"/>
<line x1="272" y1="560" x2="295" y2="560" stroke="rgb(136,34,85)" stroke-width="1"/>
<line x1="295" y1="560" x2="318" y2="560" stroke="rgb(136,34,85)" stroke-width="1"/>
<line x1="318" y1="560" x2="341" y2="560" stroke="rgb(136,34,85)" stroke-width="1"/>
<line x1="341" y1="560" x2="364" y2="560" stroke="rgb(136,34,85)" stroke-width="1"/>
<line x1="364" y1="560" x2="387" y2="559" stroke="rgb(136,34,85)" stroke-width="1"/>
<line x1="387" y1="559" x2="410" y2="560" stroke="rgb(136,34,85)" stroke-width="1"/>
<line x1="410" y1="560" x2="433" y2="560" stroke="rgb(136,34,85)" stroke-width="1"/>
<line x1="433" y1="560" x2="456" y2="559" stroke="rgb(136,34,85)" stroke-width="1"/>
<line x1="456" y1="559" x2="479" y2="559" stroke="rgb(136,34,85)" stroke-width="1"/>
<line x1="479" y1="559" x2="502" y2="558" stroke="rgb(136,34,85)" stroke-width="1"/>
<line x1="502" y1="558" x2="525" y2="559" stroke="rgb(136,34,85)" stroke-width="1"/>
<line x1="525" y1="559" x2="548" y2="559" stroke="rgb(136,34,85)" stroke-width="1"/>
<line x1="548" y1="559" x2="571" y2="559" stroke="rgb(136,34,85)" stroke-width="1"/>
<line x1="571" y1="559" x2="594" y2="558" stroke="rgb(136,34,85)" stroke-width="1"/>
<line x1="594" y1="558" x2="617" y2="559" stroke="rgb(136,34,85)" stroke-width="1"/>
<line x1="617" y1="559" x2="640" y2="558" stroke="rgb(136,34,85)" stroke-width="1"/>
<line x1="640" y1="558" x2="663" y2="558" stroke="rgb(136,34,85)" stroke-width="1"/>
<line x1="663" y1="558" x2="686" y2="558" stroke="rgb(136,34,85)" stroke-width="1"/>
<line x1="686" y1="558" x2="709" y2="559" stroke="rgb(136,34,85)" stroke-width="1"/>
<line x1="709" y1="559" x2="732" y2="533" stroke="rgb(136,34,85)" stroke-width="1"/>
<line x1="732" y1="533" x2="755" y2="40" stroke="rgb(136,34,85)" stroke-width="1"/>
<rect width="110" height="23" x="680" y="40" style="fill:rgb(255,255,255);stroke:none"/>
<rect width="110" height="23" x="680" y="40" rx="0" ry="0" style="fill:none;stroke-width:1;stroke:rgb(192,192,192)"/>
<text x="683" y="55" fill="rgb(136,34,85)" font-family="Arial" font-size="12" font-weight="bold">Sequence Length</text>
</svg>
